<svg width="46.752930" height="46.753052" viewBox="0 0 46.7529 46.7531" fill="none" xmlns="http://www.w3.org/2000/svg" xmlns:xlink="http://www.w3.org/1999/xlink">
    <defs/>
    <path id="Vector" d="M46.75 23.37C46.75 36.28 36.28 46.75 23.37 46.75C10.46 46.75 0 36.28 0 23.37C0 10.46 10.46 0 23.37 0C36.28 0 46.75 10.46 46.75 23.37ZM17.25 30.66L17.24 32.99L29.41 32.99L29.41 30.5L21.28 30.5L26.49 25.85C27.14 25.27 27.68 24.74 28.11 24.25C28.55 23.76 28.87 23.22 29.09 22.65C29.3 22.07 29.41 21.37 29.41 20.55C29.41 19.41 29.15 18.39 28.62 17.5C28.11 16.61 27.4 15.91 26.5 15.4C25.6 14.88 24.58 14.62 23.45 14.62C22.26 14.62 21.2 14.87 20.27 15.37C19.35 15.86 18.62 16.55 18.09 17.44C17.56 18.31 17.3 19.33 17.3 20.5L19.97 20.5C19.97 19.9 20.11 19.34 20.4 18.82C20.69 18.31 21.1 17.89 21.61 17.59C22.14 17.27 22.73 17.11 23.4 17.11C24.05 17.11 24.62 17.26 25.12 17.56C25.62 17.86 26.02 18.27 26.3 18.79C26.58 19.29 26.72 19.87 26.72 20.51C26.72 21.02 26.61 21.53 26.37 22.04C26.15 22.54 25.72 23.08 25.09 23.64L17.25 30.66Z" fill="#FF90E7" fill-opacity="1.000000" fill-rule="evenodd"/>
</svg>
