<svg width="46.753052" height="46.753174" viewBox="0 0 46.7531 46.7532" fill="none" xmlns="http://www.w3.org/2000/svg" xmlns:xlink="http://www.w3.org/1999/xlink">
    <defs/>
    <path id="Vector" d="M46.75 23.37C46.75 36.28 36.28 46.75 23.37 46.75C10.46 46.75 0 36.28 0 23.37C0 10.46 10.46 0 23.37 0C36.28 0 46.75 10.46 46.75 23.37ZM20.27 32.83C21.05 33.17 21.89 33.33 22.78 33.33C23.91 33.33 24.92 33.08 25.82 32.57C26.73 32.06 27.45 31.36 27.98 30.47C28.52 29.58 28.79 28.56 28.79 27.41C28.79 26.34 28.57 25.38 28.11 24.52C27.66 23.65 27.02 22.97 26.18 22.47C25.57 22.1 24.87 21.86 24.09 21.76L28.53 17.48L28.53 15L17.71 15L17.71 17.48L25.33 17.48L19.83 22.35L21.06 24.41C21.32 24.28 21.59 24.17 21.88 24.08C22.18 24 22.47 23.96 22.76 23.96C23.76 23.96 24.57 24.28 25.18 24.93C25.81 25.58 26.12 26.41 26.12 27.41C26.12 28.08 25.98 28.67 25.7 29.18C25.41 29.69 25.02 30.1 24.52 30.4C24.02 30.7 23.44 30.85 22.78 30.86C22.05 30.87 21.38 30.67 20.78 30.26C20.18 29.84 19.76 29.25 19.52 28.47L17 29.17C17.25 30.02 17.67 30.76 18.23 31.38C18.81 32.01 19.49 32.49 20.27 32.83Z" fill="#242423" fill-opacity="1.000000" fill-rule="evenodd"/>
</svg>
