<svg width="195.543457" height="195.543579" viewBox="0 0 195.543 195.544" fill="none" xmlns="http://www.w3.org/2000/svg" xmlns:xlink="http://www.w3.org/1999/xlink">
    <defs>
        <clipPath id="clip74_8">
            <rect id="easy" rx="-0.292857" width="116.557137" height="116.557137" transform="translate(28.227427 53.522228) rotate(-12.470078)" fill="white" fill-opacity="0"/>
        </clipPath>
    </defs>
    <rect id="Stickers" rx="-0.292857" width="163.414291" height="163.414291" transform="translate(0.292857 35.705334) rotate(-12.470078)" fill="#FFFFFF" fill-opacity="0"/>
    <rect id="easy" rx="-0.292857" width="116.557137" height="116.557137" transform="translate(28.227427 53.522228) rotate(-12.470078)" fill="#FFFFFF" fill-opacity="0"/>
    <g clip-path="url(#clip74_8)">
        <path id="vector" d="M40.9 111.86C30.45 63.94 42.52 49.91 84.62 40.69C127.8 31.23 144.59 38.82 155.32 86.79C166.13 134.44 151.53 145.95 108.89 155.29C68.17 164.21 51.3 159.59 40.9 111.86Z" fill="#F1F332" fill-opacity="1.000000" fill-rule="nonzero"/>
        <path id="vector" d="M153.81 87.14L153.81 87.13C148.44 63.16 141.65 49.79 131.25 43.42C120.89 37.06 106.5 37.37 84.93 42.09C63.91 46.7 50.97 52.4 44.37 62.48C37.74 72.61 37.2 87.59 42.42 111.52C47.61 135.37 54.34 147.9 64.36 153.58C74.39 159.26 88.19 158.36 108.59 153.89C129.95 149.21 143.66 144.08 150.9 134.6C158.1 125.15 159.2 110.92 153.81 87.14ZM84.62 40.69C42.52 49.91 30.45 63.94 40.9 111.86C51.3 159.59 68.17 164.21 108.89 155.29C151.53 145.95 166.13 134.44 155.32 86.79C144.59 38.82 127.8 31.23 84.62 40.69Z" fill="#000000" fill-opacity="1.000000" fill-rule="evenodd"/>
        <path id="vector" d="M86.2 125.58C82.78 127.09 79.59 128.32 76.83 129.29C72.99 119.37 68.92 108.54 65.17 98.28C68.49 97.11 72.23 95.88 73.59 95.5L70.5 87.29C69.3 87.81 65.59 89.12 62.3 90.39C60.82 86.46 59.54 82.75 58.19 79.17C60.22 78.56 62.69 77.68 67.12 76.31L64.13 68.36L46.09 74.74C54.33 96.08 65.11 124.73 70.74 140.26L89.26 133.71L86.2 125.58Z" fill="#F1F332" fill-opacity="1.000000" fill-rule="nonzero"/>
        <path id="vector" d="M98.35 118.76L107.8 116.69C101.85 99.29 90.06 63.23 86.02 49.9L73.12 52.73C76.11 75.93 79.3 103.37 81.2 122.52L90.56 120.47C89.25 112.55 87.5 101.67 85.89 90.48C87.26 90.18 88.94 89.81 90.32 89.51C93.83 101.81 96.9 113.07 98.35 118.76ZM84.37 82.13C83.16 73.72 82 65.57 81.19 58.98L81.48 58.91C83.32 65 85.7 73.06 88.02 81.33C86.84 81.59 85.56 81.87 84.37 82.13Z" fill="#F1F332" fill-opacity="1.000000" fill-rule="nonzero"/>
        <path id="vector" d="M124.04 119.18C123.27 110.07 110.16 76.82 109.63 70.59C109.49 68.92 110.31 67.8 111.81 67.64C113.01 67.52 114.56 67.92 115.63 68.56L118.61 60.74C116.52 59.93 113.63 59.29 110.23 59.65C103.92 60.3 99.94 64.66 100.46 70.89C101.12 78.7 113.85 110.96 114.56 119.42C114.74 121.56 113.34 122.93 111.54 123.12C110.33 123.24 108.79 122.93 107.29 121.96L105.49 130.5C108.08 131.26 111.04 131.61 113.94 131.31C120.36 130.64 124.66 126.53 124.04 119.18Z" fill="#F1F332" fill-opacity="1.000000" fill-rule="nonzero"/>
        <path id="vector" d="M135.71 70.54C134.76 76.03 133.23 84.2 132.15 91.2L131.75 91.23C130.02 84.52 127.83 76.53 126.47 71.2L116.95 72.26C120.5 81.37 124.29 91.3 127.08 99.15C127.65 109.03 128.98 135.34 128.97 141.61L138.81 140.9C138.33 134.94 137.08 110.41 136.58 99.78C139.05 90.05 141.62 80.5 144.77 70.26L135.71 70.54Z" fill="#F1F332" fill-opacity="1.000000" fill-rule="nonzero"/>
        <path id="vector" d="M59.67 78.71C60.13 78.56 60.62 78.4 61.15 78.22C62.37 77.82 63.82 77.35 65.64 76.77C66.11 76.63 66.6 76.47 67.12 76.31L64.13 68.36L46.09 74.74C46.26 75.19 46.43 75.64 46.6 76.09C54.54 96.65 64.62 123.45 70.25 138.9C70.41 139.37 70.58 139.82 70.74 140.26L89.26 133.71L86.2 125.58C85.72 125.8 85.24 126 84.77 126.2C81.89 127.43 79.2 128.45 76.83 129.29C72.99 119.37 68.92 108.54 65.17 98.28C67.63 97.41 70.32 96.52 72.1 95.95C72.72 95.76 73.24 95.6 73.59 95.5L70.5 87.29C70.18 87.43 69.68 87.63 69.06 87.86C68.35 88.13 67.49 88.45 66.55 88.8C65.67 89.12 64.71 89.48 63.75 89.84C63.27 90.02 62.78 90.2 62.3 90.39C62.13 89.94 61.97 89.49 61.8 89.04C61.23 87.5 60.68 86 60.15 84.52C59.66 83.17 59.18 81.84 58.69 80.52C58.53 80.07 58.36 79.62 58.19 79.17C58.66 79.03 59.14 78.88 59.67 78.71ZM69.56 89.21C68.83 89.49 67.94 89.82 66.98 90.17C65.65 90.66 64.2 91.2 62.85 91.72L61.36 92.29L60.84 90.91C60.1 88.93 59.4 87.02 58.73 85.15L58.68 85.02C58.02 83.2 57.38 81.43 56.73 79.69L56.2 78.28L57.75 77.8C58.6 77.54 59.53 77.24 60.68 76.86C60.87 76.8 61.08 76.73 61.28 76.67C62.36 76.31 63.62 75.9 65.13 75.43L63.17 70.23L48.07 75.57C56 96.13 66.08 122.92 71.71 138.39L87.29 132.88L85.28 127.55C82.4 128.78 79.71 129.8 77.34 130.64L75.89 131.15L75.37 129.82C71.53 119.89 67.45 109.05 63.7 98.79L63.21 97.45L64.66 96.94C67.1 96.07 69.78 95.18 71.59 94.61L69.56 89.21ZM84.16 89.39L91.45 87.79L91.82 89.1C95.07 100.5 97.95 111.01 99.51 117.04L105.81 115.66C99.9 98.31 89.16 65.45 84.92 51.62L74.82 53.83C77.68 76.11 80.7 102.05 82.59 120.74L88.81 119.38C87.52 111.6 85.87 101.3 84.35 90.72L84.16 89.39ZM90.56 120.47L81.2 122.52C81.16 122.04 81.11 121.56 81.06 121.08C79.14 102.02 76.03 75.35 73.11 52.73L86.02 49.9C89.96 62.89 101.25 97.47 107.34 115.32C107.5 115.79 107.65 116.25 107.8 116.69L98.35 118.76C96.9 113.07 93.83 101.81 90.32 89.51L85.89 90.48C87.5 101.67 89.25 112.55 90.56 120.47ZM83.06 83.89L82.84 82.37C81.62 73.96 80.47 65.8 79.65 59.19L79.48 57.88L82.59 57.2L82.97 58.48C84.82 64.57 87.2 72.64 89.52 80.92L89.93 82.39L83.06 83.89ZM131.03 88.45C130.36 85.91 129.65 83.26 128.97 80.7L128.97 80.7C128.04 77.2 127.15 73.87 126.47 71.2L116.95 72.26C117.13 72.72 117.31 73.19 117.49 73.65C120.88 82.37 124.43 91.7 127.08 99.15C127.61 108.4 128.81 132.04 128.96 140.17C128.97 140.73 128.97 141.21 128.97 141.61L138.81 140.9C138.78 140.5 138.75 140.02 138.71 139.47C138.17 131.72 137.05 109.7 136.58 99.78C138.93 90.51 141.38 81.41 144.32 71.71C144.47 71.23 144.62 70.74 144.77 70.26L135.71 70.54C135.42 72.19 135.09 74.08 134.72 76.11C134.04 79.94 133.27 84.24 132.6 88.34C132.45 89.28 132.3 90.22 132.16 91.13C132.16 91.15 132.15 91.18 132.15 91.2L131.75 91.23C131.74 91.21 131.73 91.18 131.73 91.16C131.5 90.28 131.27 89.37 131.03 88.45ZM137.03 71.94C136.79 73.29 136.53 74.77 136.25 76.32C135.41 81.04 134.43 86.48 133.68 91.36L133.5 92.55L130.53 92.76L130.24 91.61C129.39 88.3 128.41 84.62 127.47 81.1C126.67 78.09 125.9 75.21 125.27 72.78L119.09 73.47C122.44 82.09 125.94 91.29 128.55 98.66L128.62 98.84L128.63 99.03C129.15 108.24 130.36 131.83 130.51 140.06L137.16 139.58C136.62 131.77 135.5 109.79 135.03 99.89L135.02 99.69L135.07 99.49C137.39 90.34 139.81 81.34 142.71 71.76L137.03 71.94ZM84.37 82.13L88.02 81.33C87.89 80.87 87.76 80.41 87.63 79.95C86.3 75.23 84.96 70.61 83.73 66.43C82.93 63.72 82.17 61.19 81.49 58.94C81.49 58.93 81.48 58.92 81.48 58.91L81.19 58.98C81.19 58.98 81.19 58.99 81.19 59C81.49 61.4 81.83 64 82.2 66.75C82.8 71.12 83.47 75.86 84.17 80.71C84.24 81.18 84.31 81.65 84.37 82.13ZM110.51 79.98C109.21 75.9 108.24 72.49 108.09 70.75C108 69.69 108.2 68.63 108.84 67.76C109.51 66.85 110.53 66.33 111.69 66.21C112.68 66.11 113.77 66.26 114.76 66.57L116.64 61.63C114.92 61.13 112.78 60.83 110.35 61.08C107.54 61.37 105.38 62.47 103.96 64.07C102.55 65.68 101.77 67.93 102.01 70.73C102.16 72.52 103.03 75.86 104.33 80.14C105.57 84.21 107.16 88.99 108.77 93.85L108.97 94.44C110.65 99.49 112.33 104.58 113.64 108.94C114.94 113.25 115.91 116.99 116.1 119.26C116.22 120.65 115.83 121.92 114.98 122.89C114.14 123.85 112.94 124.42 111.66 124.55C110.65 124.66 109.53 124.53 108.4 124.14L107.28 129.46C109.36 129.93 111.62 130.11 113.82 129.88C116.72 129.57 118.97 128.52 120.45 126.85C121.92 125.19 122.78 122.74 122.5 119.35C122.32 117.23 121.4 113.57 120.05 109.05C118.71 104.58 116.99 99.4 115.27 94.28C114.94 93.31 114.62 92.35 114.29 91.39C112.91 87.3 111.58 83.35 110.51 79.98ZM105.49 130.5C108.08 131.26 111.04 131.61 113.94 131.31C120.36 130.64 124.66 126.53 124.04 119.18C123.62 114.2 119.5 101.98 115.77 90.91C112.69 81.77 109.87 73.41 109.63 70.59C109.49 68.92 110.31 67.8 111.81 67.64C112.55 67.57 113.43 67.69 114.24 67.94C114.74 68.1 115.22 68.31 115.63 68.56L118.61 60.74C116.52 59.93 113.63 59.29 110.23 59.65C103.91 60.3 99.93 64.66 100.46 70.89C100.78 74.72 104 84.42 107.29 94.31C110.71 104.6 114.2 115.11 114.56 119.42C114.74 121.56 113.34 122.93 111.54 123.12C110.71 123.2 109.73 123.09 108.71 122.69C108.24 122.51 107.77 122.27 107.29 121.97L105.49 130.5Z" fill="#000000" fill-opacity="1.000000" fill-rule="evenodd"/>
    </g>
</svg>
