<svg width="243.419922" height="69.199951" viewBox="0 0 243.42 69.2" fill="none" xmlns="http://www.w3.org/2000/svg" xmlns:xlink="http://www.w3.org/1999/xlink">
    <defs>
        <clipPath id="clip1_718">
            <rect id="image" rx="-0.545924" width="170.328156" height="22.928791" transform="translate(36.545925 23.135523)" fill="white" fill-opacity="0"/>
        </clipPath>
        <clipPath id="clip1_717">
            <rect id="image fill" rx="-0.500000" width="170.419998" height="30.200001" transform="translate(36.500000 19.500000)" fill="white" fill-opacity="0"/>
        </clipPath>
        <clipPath id="clip1_714">
            <rect id="Container" rx="28.500000" width="242.419998" height="68.199997" transform="translate(0.500000 0.500000)" fill="white" fill-opacity="0"/>
        </clipPath>
    </defs>
    <rect id="Container" rx="28.500000" width="242.419998" height="68.199997" transform="translate(0.500000 0.500000)" fill="#242423" fill-opacity="1.000000"/>
    <g clip-path="url(#clip1_714)">
        <mask id="mask1_716" mask-type="alpha" maskUnits="userSpaceOnUse" x="36.000000" y="19.000000" width="171.419998" height="31.200001">
            <g clip-path="url(#clip1_717)">
                <g clip-path="url(#clip1_718)">
                    <path id="Vector" d="M137.86 23.43C134.32 23.43 130.86 26.5 130.46 30.92L130.46 23.8L125.37 23.8L125.37 45.28L130.52 45.28L130.52 34.88C130.52 31.97 132.68 27.86 137.86 27.86L137.86 23.43ZM191.89 41.84L191.89 27.12L194.87 27.12C198.84 27.12 202.07 29.5 202.07 34.36C202.07 39.23 198.84 41.84 194.87 41.84L191.89 41.84ZM186.79 45.28L195.49 45.28C200.83 45.28 207.42 41.96 207.42 34.36C207.42 26.89 200.83 23.8 195.49 23.8L186.79 23.8L186.79 45.28ZM167.26 34.6C167.26 30.69 169.37 27.48 172.85 27.48C176.21 27.48 178.07 30.69 178.07 34.6C178.07 38.52 176.21 41.72 172.85 41.72C169.37 41.72 167.26 38.52 167.26 34.6ZM162.04 34.84C162.04 41.25 165.52 45.76 170.99 45.76C174.96 45.76 177.32 43.26 178.57 39.23L178.57 45.28L183.66 45.28L183.66 23.8L178.57 23.8L178.57 29.5C177.45 25.7 175.09 23.45 171.36 23.45C165.77 23.45 162.04 28.31 162.04 34.84ZM46.06 45.76C39.72 45.76 36 40.89 36 34.84C36 28.55 40.1 23.45 47.92 23.45C56 23.45 58.73 28.67 58.85 31.64L53.01 31.64C52.89 29.97 51.4 27.48 47.8 27.48C43.95 27.48 41.46 30.69 41.46 34.6C41.46 38.52 43.95 41.72 47.8 41.72C51.28 41.72 52.77 39.11 53.39 36.5L47.8 36.5L47.8 34.36L59.53 34.36L59.53 45.28L54.38 45.28L54.38 38.4C54.01 40.89 52.39 45.76 46.06 45.76L46.06 45.76ZM69.96 45.75C65.12 45.75 62.13 42.67 62.13 36.5L62.13 23.8L67.35 23.8L67.35 36.5C67.35 39.7 68.97 41.25 71.7 41.25C77.04 41.25 79.03 34.96 79.03 30.57L79.03 23.8L84.25 23.8L84.25 45.28L79.15 45.28L79.15 37.33C78.16 41.72 75.43 45.75 69.96 45.75L69.96 45.75ZM115.42 23.43C110.97 23.43 108.16 27.54 107.24 31.34C107.08 26.25 104.46 23.43 100.27 23.43C96.65 23.43 93.29 26.52 92.42 31.4L92.42 23.8L87.33 23.8L87.33 45.28L92.48 45.28L92.48 37.58C92.48 35.67 93.31 27.84 98.5 27.84C101.86 27.84 102.21 30.73 102.21 34.69L102.21 45.28L107.36 45.28L107.36 37.58C107.36 35.67 108.23 27.84 113.41 27.84C116.77 27.84 117.12 30.73 117.12 34.69L117.12 45.28L122.27 45.28L122.27 32.58C122.3 26.48 120.04 23.44 115.42 23.44L115.42 23.43ZM148.91 23.43C142.24 23.43 137.72 28.43 137.72 34.6C137.72 41.39 142.02 45.75 148.91 45.75C155.58 45.75 160.18 40.76 160.18 34.6C160.18 27.8 155.8 23.43 148.91 23.43ZM148.91 41.95C145.03 41.95 142.51 38.81 142.51 34.6C142.51 30.38 145.03 27.24 148.91 27.24C152.78 27.24 155.2 30.38 155.2 34.6C155.2 38.81 152.78 41.95 148.91 41.95Z" fill="#000000" fill-opacity="1.000000" fill-rule="nonzero"/>
                </g>
            </g>
        </mask>
        <g mask="url(#mask1_716)">
            <rect id="Link" rx="-0.500000" width="170.419998" height="30.200001" transform="translate(36.500000 19.500000)" fill="#DDDDDD" fill-opacity="1.000000"/>
        </g>
    </g>
</svg>
