<svg width="319.511597" height="319.511108" viewBox="0 0 319.512 319.511" fill="none" xmlns="http://www.w3.org/2000/svg" xmlns:xlink="http://www.w3.org/1999/xlink">
	<defs/>
	<rect id="illustration" rx="-0.438889" width="318.633331" height="318.633331" transform="translate(0.438889 0.438889)" fill="#FFFFFF" fill-opacity="0"/>
	<path id="Vector" d="M319.51 159.75C319.51 179.93 315.76 199.24 308.94 217.01C300.84 238.1 288.41 257.03 272.72 272.72C270.82 274.62 268.87 276.47 266.87 278.28C238.54 303.9 200.97 319.51 159.75 319.51C135.33 319.51 112.19 314.03 91.49 304.23C72.15 295.08 54.95 282.16 40.83 266.42C15.43 238.14 0 200.75 0 159.75C0 115.64 17.88 75.7 46.78 46.78C75.7 17.88 115.64 0 159.75 0C203.87 0 243.81 17.88 272.72 46.78C301.63 75.7 319.51 115.64 319.51 159.75Z" fill="#23A094" fill-opacity="1.000000" fill-rule="nonzero"/>
	<path id="Vector" d="M319.51 159.75C319.51 179.93 315.76 199.24 308.94 217.01C300.84 238.1 288.41 257.03 272.72 272.72C270.82 274.62 268.87 276.47 266.87 278.28C238.54 303.9 200.97 319.51 159.75 319.51C135.33 319.51 112.19 314.03 91.49 304.23C72.15 295.08 54.95 282.16 40.83 266.42C15.43 238.14 0 200.75 0 159.75C0 115.64 17.88 75.7 46.78 46.78C75.7 17.88 115.64 0 159.75 0C203.87 0 243.81 17.88 272.72 46.78C301.63 75.7 319.51 115.64 319.51 159.75ZM314.41 192.32Q311.84 204.56 307.3 216.38Q301.66 231.07 293.42 244.11Q284.11 258.84 271.48 271.48Q268.62 274.33 265.69 276.97Q254.19 287.38 241.15 295.23Q229.89 302 217.5 306.87Q205.41 311.61 192.88 314.29Q176.69 317.75 159.75 317.75Q140.41 317.75 122.15 313.29Q106.81 309.54 92.24 302.64Q78.34 296.06 66.19 287.12Q53.16 277.54 42.14 265.25Q31.85 253.8 24.09 240.83Q17.36 229.59 12.52 217.22Q7.86 205.27 5.21 192.89Q1.75 176.69 1.75 159.75Q1.75 141.93 5.57 124.97Q8.63 111.34 14.17 98.25Q19.78 84.99 27.55 73.15Q36.39 59.67 48.03 48.03Q59.66 36.39 73.14 27.55Q84.98 19.78 98.25 14.17Q111.33 8.63 124.96 5.57Q141.93 1.75 159.75 1.75Q177.56 1.75 194.5 5.56Q208.15 8.63 221.25 14.17Q234.57 19.8 246.46 27.61Q259.88 36.43 271.48 48.03Q283.12 59.67 291.96 73.15Q299.73 84.99 305.34 98.25Q310.87 111.33 313.94 124.97Q317.75 141.93 317.75 159.75Q317.75 176.39 314.41 192.32Z" fill="#000000" fill-opacity="1.000000" fill-rule="evenodd"/>
	<path id="Vector" d="M210.48 126.66C209.85 128.24 207.53 136.76 201.32 144.34C197.67 148.77 187.25 164.42 177.34 179.08C170.35 189.4 163.61 199.24 159.67 204.3C150.75 215.78 98.28 294.09 91.49 304.23C72.15 295.08 54.95 282.16 40.83 266.42L130.82 152.92C130.82 152.92 118.69 147.41 120.34 138.47C122 129.52 133.03 113.94 137.29 110.9C140.77 108.42 147.12 110.56 148.81 114.18C149.3 115.2 149.41 116.35 148.98 117.55C148.34 119 147.13 120.91 145.78 123.04C144.32 125.34 142.67 127.89 141.36 130.39C139.76 133.45 138.66 136.43 138.97 138.79C139.8 144.88 153.58 151.44 155.65 149.02C157.7 146.61 151.08 137.73 151.08 137.73C151.08 137.73 161.1 143.4 163.19 139.01C164.58 136.09 160.56 131.95 160.34 131.73C160.63 131.86 169.03 135.67 170.8 132.35C172.23 129.68 167.32 123.97 167.32 123.97C167.32 123.97 176.5 126.98 178.61 124.42C180.95 121.58 170.49 109.16 165.22 106.38C172.56 98.41 183.02 100.2 182.12 107.74C193.2 103.7 194.33 110.03 192.7 113.8C197.92 112.03 201.52 112.63 202.8 116.21C202.54 117.34 202.58 118.23 202.58 118.23C202.58 118.23 202.85 118.45 203.29 118.81C205.32 120.5 211 125.36 210.48 126.66Z" fill="#FDC82E" fill-opacity="1.000000" fill-rule="nonzero"/>
	<path id="Vector" d="M201.32 144.34C197.67 148.77 187.25 164.42 177.34 179.08C170.35 189.4 163.61 199.24 159.67 204.3C150.75 215.78 98.28 294.09 91.49 304.23C72.15 295.08 54.95 282.16 40.83 266.42L130.82 152.92C130.82 152.92 118.69 147.41 120.34 138.47C122 129.52 133.03 113.94 137.29 110.9C140.77 108.42 147.12 110.56 148.81 114.18C149.3 115.2 149.41 116.35 148.98 117.55C148.34 119 147.13 120.91 145.78 123.04C144.32 125.34 142.67 127.89 141.36 130.39C139.76 133.45 138.66 136.43 138.97 138.79C139.8 144.88 153.58 151.44 155.65 149.02C157.7 146.61 151.08 137.73 151.08 137.73C151.08 137.73 161.1 143.4 163.19 139.01C164.58 136.09 160.56 131.95 160.34 131.73C160.63 131.86 169.03 135.67 170.8 132.35C172.23 129.68 167.32 123.97 167.32 123.97C167.32 123.97 176.5 126.98 178.61 124.42C180.95 121.58 170.49 109.16 165.22 106.38C172.56 98.41 183.02 100.2 182.12 107.74C193.2 103.7 194.33 110.03 192.7 113.8C197.92 112.03 201.52 112.63 202.8 116.21C202.54 117.34 202.58 118.23 202.58 118.23C202.58 118.23 202.85 118.45 203.29 118.81C205.32 120.5 211 125.36 210.48 126.66C209.85 128.24 207.53 136.76 201.32 144.34Z" stroke="#000000" stroke-opacity="1.000000" stroke-width="1.755556" stroke-linejoin="round"/>
	<path id="Vector" d="M308.94 217.01C300.84 238.1 288.41 257.03 272.72 272.72C270.82 274.62 268.87 276.47 266.87 278.27L177.34 179.08C187.25 164.42 197.67 148.77 201.32 144.34C207.53 136.76 209.85 128.24 210.48 126.66C211 125.36 205.32 120.5 203.29 118.81C203.23 117.81 203.06 116.94 202.8 116.21C203.18 114.54 204.22 112.35 207.03 111.65C211.76 110.47 217.99 114.56 223.04 120.79C228.09 127.02 226.44 129.69 225.01 132.83C223.12 137 219.65 143.61 219.65 143.61L308.94 217.01Z" fill="#98282A" fill-opacity="1.000000" fill-rule="nonzero"/>
	<path id="Vector" d="M272.72 272.72C270.82 274.62 268.87 276.47 266.87 278.27L177.34 179.08C187.25 164.42 197.67 148.77 201.32 144.34C207.53 136.76 209.85 128.24 210.48 126.66C211 125.36 205.32 120.5 203.29 118.81C203.23 117.81 203.06 116.94 202.8 116.21C203.18 114.54 204.22 112.35 207.03 111.65C211.76 110.47 217.99 114.56 223.04 120.79C228.09 127.02 226.44 129.69 225.01 132.83C223.12 137 219.65 143.61 219.65 143.61L308.94 217.01C300.84 238.1 288.41 257.03 272.72 272.72Z" stroke="#000000" stroke-opacity="1.000000" stroke-width="1.755556" stroke-linejoin="round"/>
	<path id="Vector" d="M178.61 124.42C176.5 126.98 167.32 123.97 167.32 123.97C167.32 123.97 160.02 116.13 155.26 113.69C152.73 108.36 160.01 103.91 165.22 106.38C170.49 109.16 180.95 121.58 178.61 124.42Z" fill="#98282A" fill-opacity="1.000000" fill-rule="nonzero"/>
	<path id="Vector" d="M167.32 123.97C167.32 123.97 160.02 116.13 155.26 113.69C152.73 108.36 160.01 103.91 165.22 106.38C170.49 109.16 180.95 121.58 178.61 124.42C176.5 126.98 167.32 123.97 167.32 123.97Z" stroke="#000000" stroke-opacity="1.000000" stroke-width="1.755556" stroke-linejoin="round"/>
	<path id="Vector" d="M170.8 132.35C169.03 135.67 160.63 131.86 160.34 131.73C160.33 131.72 160.33 131.72 160.33 131.72C155.43 126.25 148.99 123.91 145.78 123.04C147.13 120.91 148.34 118.99 148.98 117.54C149.41 116.35 149.3 115.2 148.81 114.18C149.9 113.26 151.53 112.51 153.74 113.08C154.21 113.2 154.72 113.41 155.26 113.69C160.02 116.13 167.32 123.97 167.32 123.97C167.32 123.97 172.23 129.68 170.8 132.35Z" fill="#98282A" fill-opacity="1.000000" fill-rule="nonzero"/>
	<path id="Vector" d="M160.34 131.73C160.33 131.72 160.33 131.72 160.33 131.72C155.43 126.25 148.99 123.91 145.78 123.04C147.13 120.91 148.34 118.99 148.98 117.54C149.41 116.35 149.3 115.2 148.81 114.18C149.9 113.26 151.53 112.51 153.74 113.08C154.21 113.2 154.72 113.41 155.26 113.69C160.02 116.13 167.32 123.97 167.32 123.97C167.32 123.97 172.23 129.68 170.8 132.35C169.03 135.67 160.63 131.86 160.34 131.73Z" stroke="#000000" stroke-opacity="1.000000" stroke-width="1.755556" stroke-linejoin="round"/>
	<path id="Vector" d="M155.65 149.02C153.58 151.44 139.8 144.88 138.97 138.79C138.66 136.43 139.75 133.45 141.36 130.39C145.66 133.34 151.08 137.73 151.08 137.73C151.08 137.73 157.7 146.61 155.65 149.02Z" fill="#98282A" fill-opacity="1.000000" fill-rule="nonzero"/>
	<path id="Vector" d="M138.97 138.79C138.66 136.43 139.75 133.45 141.36 130.39C145.66 133.34 151.08 137.73 151.08 137.73C151.08 137.73 157.7 146.61 155.65 149.02C153.58 151.44 139.8 144.88 138.97 138.79Z" stroke="#000000" stroke-opacity="1.000000" stroke-width="1.755556" stroke-linejoin="round"/>
	<path id="Vector" d="M163.19 139.01C161.1 143.4 151.08 137.73 151.08 137.73C151.08 137.73 145.66 133.34 141.36 130.39C142.67 127.89 144.32 125.34 145.78 123.04C148.99 123.91 155.43 126.25 160.33 131.72C160.33 131.72 160.33 131.72 160.34 131.73C160.56 131.95 164.58 136.09 163.19 139.01Z" fill="#98282A" fill-opacity="1.000000" fill-rule="nonzero"/>
	<path id="Vector" d="M151.08 137.73C151.08 137.73 145.66 133.34 141.36 130.39C142.67 127.89 144.32 125.34 145.78 123.04C148.99 123.91 155.43 126.25 160.33 131.72C160.33 131.72 160.33 131.72 160.34 131.73C160.56 131.95 164.58 136.09 163.19 139.01C161.1 143.4 151.08 137.73 151.08 137.73Z" stroke="#000000" stroke-opacity="1.000000" stroke-width="1.755556" stroke-linejoin="round"/>
</svg>
