<svg width="267.000000" height="36.000000" viewBox="0 0 267 36" fill="none" xmlns="http://www.w3.org/2000/svg" xmlns:xlink="http://www.w3.org/1999/xlink">
    <defs>
        <linearGradient x1="12.940605" y1="21.202202" x2="16.463608" y2="8.776705" id="paint_linear_31_738_0" gradientUnits="userSpaceOnUse">
            <stop stop-color="#292B70"/>
            <stop offset="1.000000" stop-color="#9A4D8E"/>
        </linearGradient>
        <linearGradient x1="10.055908" y1="34.369614" x2="19.662224" y2="-0.330056" id="paint_linear_31_740_0" gradientUnits="userSpaceOnUse">
            <stop stop-color="#FF90E8"/>
            <stop offset="1.000000" stop-color="#9A4D8E"/>
        </linearGradient>
    </defs>
    <mask id="mask31_733" mask-type="alpha" maskUnits="userSpaceOnUse" x="0.000000" y="3.000000" width="29.000000" height="30.000000">
        <path id="Vector" d="M0 3L29 3L29 33L0 33L0 3Z" fill="#000000" fill-opacity="1.000000" fill-rule="evenodd"/>
    </mask>
    <g mask="url(#mask31_733)">
        <mask id="mask31_737" mask-type="alpha" maskUnits="userSpaceOnUse" x="0.007812" y="3.015625" width="28.987793" height="29.965088">
            <path id="Vector" d="M17.48 3.24C21.98 3.92 25.98 6.14 28.95 9.35C28.98 9.82 28.99 10.29 28.99 10.77C28.99 20.73 23.02 29.28 14.5 32.98C13.42 32.51 12.38 31.96 11.39 31.35L11.39 31.35L20.63 13.89L14.16 17.25L17.48 3.24ZM14.5 3.01C15.34 3.01 16.18 3.06 17 3.17L5.95 24.28L10.94 22.21L9.46 30.01C3.71 25.59 0 18.62 0 10.77C0 10.29 0.02 9.82 0.04 9.35C3.65 5.45 8.79 3.01 14.5 3.01Z" fill="url(#paint_linear_31_738_0)" fill-opacity="1.000000" fill-rule="nonzero"/>
        </mask>
        <g mask="url(#mask31_737)">
            <path id="Vector" d="M-26.81 67.14L55.81 67.14L55.81 -16.25L-26.81 -16.25L-26.81 67.14Z" fill="url(#paint_linear_31_740_0)" fill-opacity="1.000000" fill-rule="evenodd"/>
        </g>
    </g>
    <path id="rusgumroad" d="M100.72 19.45L96.3 19.45C96.13 17.74 94.77 16.74 92.57 16.74C90.31 16.74 89.06 17.77 89.06 19.17C89.03 20.74 90.62 21.45 92.52 21.88L94.47 22.35C98.27 23.2 101.01 25.13 101.01 28.76C101.01 32.76 97.87 35.3 92.55 35.3C87.25 35.3 83.88 32.86 83.76 28.15L88.22 28.15C88.37 30.33 90.09 31.44 92.5 31.44C94.84 31.44 96.35 30.35 96.36 28.75C96.35 27.28 95.03 26.6 92.65 26.02L90.28 25.43C86.59 24.54 84.32 22.7 84.33 19.48C84.32 15.52 87.82 12.88 92.6 12.88C97.45 12.88 100.66 15.56 100.72 19.45ZM123.26 20.23L118.57 20.23C117.99 18.19 116.38 16.96 114 16.96C110.67 16.96 108.4 19.53 108.4 24.07C108.4 28.62 110.58 31.22 114.05 31.22C117.11 31.22 118.96 29.49 119.02 26.79L114.33 26.79L114.33 23.32L123.46 23.32L123.46 26.07C123.46 31.81 119.53 35.3 114.02 35.3C107.88 35.3 103.73 31.01 103.73 24.1C103.73 17.04 108.16 12.88 113.93 12.88C118.86 12.88 122.67 15.92 123.26 20.23ZM205.77 12.88C211.55 12.88 215.99 16.95 215.99 24.09C215.99 31.22 211.55 35.3 205.77 35.3C199.95 35.3 195.56 31.19 195.56 24.09C195.56 16.95 199.95 12.88 205.77 12.88ZM47.51 35L42.89 35L42.89 13.18L51.5 13.18C56.46 13.18 59.32 15.97 59.32 20.3C59.32 23.28 57.94 25.45 55.46 26.51L60.1 35L55.01 35L50.87 27.26L47.51 27.26L47.51 35ZM76.06 26.95L76.06 13.18L80.67 13.18L80.67 27.35C80.67 32.12 77.04 35.3 71.62 35.3C66.18 35.3 62.58 32.12 62.58 27.35L62.58 13.18L67.19 13.18L67.19 26.95C67.19 29.44 68.95 31.25 71.62 31.25C74.31 31.25 76.06 29.44 76.06 26.95ZM140.4 26.95L140.4 13.18L145.02 13.18L145.02 27.35C145.02 32.12 141.39 35.3 135.97 35.3C130.53 35.3 126.93 32.12 126.93 27.35L126.93 13.18L131.54 13.18L131.54 26.95C131.54 29.44 133.3 31.25 135.97 31.25C138.65 31.25 140.4 29.44 140.4 26.95ZM148.81 35L148.81 13.18L154.5 13.18L160.5 27.84L160.76 27.84L166.77 13.18L172.46 13.18L172.46 35L167.98 35L167.98 20.79L167.8 20.79L162.15 34.89L159.11 34.89L153.47 20.74L153.28 20.74L153.28 35L148.81 35ZM180.87 35L176.25 35L176.25 13.18L184.86 13.18C189.82 13.18 192.68 15.97 192.68 20.3C192.68 23.28 191.3 25.45 188.82 26.51L193.46 35L188.37 35L184.23 27.26L180.87 27.26L180.87 35ZM223.55 30.02L221.93 35L216.99 35L224.52 13.18L230.46 13.18L237.99 35L233.04 35L231.42 30.02L223.55 30.02ZM259.01 24.07C259.01 30.89 254.99 35 248.34 35L240.61 35L240.61 13.18L248.41 13.18C254.99 13.18 259.01 17.27 259.01 24.07ZM47.51 16.95L47.51 23.55L50.63 23.55C53.28 23.55 54.57 22.46 54.57 20.3C54.57 18.13 53.28 16.95 50.61 16.95L47.51 16.95ZM180.87 16.95L180.87 23.55L183.99 23.55C186.64 23.55 187.93 22.46 187.93 20.3C187.93 18.13 186.64 16.95 183.97 16.95L180.87 16.95ZM205.77 31.22C209.12 31.22 211.31 28.71 211.31 24.09C211.31 19.46 209.12 16.96 205.77 16.96C202.41 16.96 200.23 19.46 200.23 24.09C200.23 28.71 202.41 31.22 205.77 31.22ZM245.22 17.13L245.22 31.04L248.15 31.04C252.25 31.04 254.42 28.93 254.42 24.07C254.42 19.22 252.25 17.13 248.16 17.13L245.22 17.13ZM227.41 18.16L224.72 26.42L230.27 26.42L227.58 18.16L227.41 18.16Z" fill="#DDDDDD" fill-opacity="1.000000" fill-rule="evenodd"/>
</svg>
