<?xml version="1.0" standalone="no"?>
<!DOCTYPE svg PUBLIC "-//W3C//DTD SVG 1.1//EN" "http://www.w3.org/Graphics/SVG/1.1/DTD/svg11.dtd" >
<svg xmlns="http://www.w3.org/2000/svg" xmlns:xlink="http://www.w3.org/1999/xlink" version="1.1">
<metadata>
Created by FontForge 20201107 at Thu Nov 17 18:50:17 2022
 By 
Copyright (c) 2018 by Benjamin Critton &#38; Colophon Foundry. All rights reserved.
</metadata>
<defs>
<font id="MabryPro-Bold" horiz-adv-x="0" >
  <font-face 
    font-family="Mabry Pro"
    font-weight="700"
    font-stretch="normal"
    units-per-em="2048"
    panose-1="2 13 8 3 4 0 2 4 3 3"
    ascent="1622"
    descent="-426"
    x-height="971"
    cap-height="1434"
    bbox="-1694 -602 3830 2175"
    underline-thickness="126"
    underline-position="-454"
    unicode-range="U+000D-1F610"
  />
<missing-glyph horiz-adv-x="1208" 
d="M92 0v1434h1024v-1434h-1024zM604 852l277 448h-553zM225 1198v-962l295 481zM983 236v962l-297 -481zM328 133h553l-277 449z" />
    <glyph glyph-name="f_f" unicode="ff" horiz-adv-x="1363" 
d="M221 0v756h-205v215h205v135q0 159 104.5 253.5t272.5 94.5q191 0 270 -102q36 49 99.5 75.5t138.5 26.5q182 0 277.5 -84.5t95.5 -230.5q0 -42 -2 -54h-246q4 20 4 39q0 50 -31.5 80.5t-87.5 30.5q-55 0 -87 -34t-32 -93v-137h256v-215h-256v-756h-260v756h-254v-756
h-262zM483 971h254v139q0 60 -33.5 92.5t-93.5 32.5t-93.5 -34.5t-33.5 -94.5v-135z" />
    <glyph glyph-name="fi" unicode="fi" horiz-adv-x="1112" 
d="M997 971v-971h-262v756h-254v-756h-260v756h-205v215h205v135q0 160 101 254t268 94q182 0 277.5 -84.5t95.5 -230.5q0 -42 -2 -54h-246q4 20 4 39q0 50 -31.5 80.5t-87.5 30.5q-55 0 -87 -34t-32 -93v-137h516z" />
    <glyph glyph-name="fl" unicode="fl" horiz-adv-x="1122" 
d="M221 0v756h-205v215h205v141q0 156 102 249t287 93t286 -93t101 -249v-1112h-260v1102q0 61 -33.5 97t-93.5 36t-93.5 -36t-33.5 -97v-131h156v-215h-156v-756h-262z" />
    <glyph glyph-name="f_f_i" unicode="ffi" horiz-adv-x="1628" 
d="M221 0v756h-205v215h205v135q0 159 104.5 253.5t272.5 94.5q180 0 262 -102q82 102 246 102q182 0 277.5 -84.5t95.5 -230.5q0 -42 -2 -54h-246q4 20 4 39q0 50 -31.5 80.5t-87.5 30.5q-55 0 -87 -34t-32 -93v-137h516v-971h-262v756h-254v-756h-260v756h-254v-756h-262z
M483 971h254v139q0 60 -33.5 92.5t-93.5 32.5t-93.5 -34.5t-33.5 -94.5v-135z" />
    <glyph glyph-name="f_f_l" unicode="ffl" horiz-adv-x="1622" 
d="M221 0v756h-205v215h205v135q0 160 103 254t270 94q182 0 264 -102q38 49 105.5 75.5t148.5 26.5q185 0 285 -93t100 -249v-1112h-262v1102q0 62 -31.5 97.5t-91.5 35.5t-91.5 -35.5t-31.5 -97.5v-131h156v-215h-156v-756h-260v756h-246v-756h-262zM483 971h246v139
q0 60 -31.5 92.5t-91.5 32.5q-55 0 -89 -36t-34 -93v-135z" />
    <glyph glyph-name=".notdef" horiz-adv-x="1208" 
d="M92 0v1434h1024v-1434h-1024zM604 852l277 448h-553zM225 1198v-962l295 481zM983 236v962l-297 -481zM328 133h553l-277 449z" />
    <glyph glyph-name=".null" 
 />
    <glyph glyph-name="nonmarkingreturn" horiz-adv-x="682" 
 />
    <glyph glyph-name="CR" unicode="&#xd;" horiz-adv-x="481" 
 />
    <glyph glyph-name="space" unicode=" " horiz-adv-x="481" 
 />
    <glyph glyph-name="exclam" unicode="!" horiz-adv-x="528" 
d="M141 410v1024h246v-1024h-246zM121 0v287h287v-287h-287z" />
    <glyph glyph-name="quotedbl" unicode="&#x22;" horiz-adv-x="868" 
d="M166 881l-60 313v240h267v-240l-58 -313h-149zM555 881l-59 313v240h266v-240l-57 -313h-150z" />
    <glyph glyph-name="numbersign" unicode="#" horiz-adv-x="1638" 
d="M397 391h-303v232h350l37 188h-325v231h372l78 392h242l-78 -392h209l78 392h241l-77 -392h323v-231h-370l-37 -188h346v-232h-393l-78 -391h-242l78 391h-209l-78 -391h-242zM680 616h219l39 201h-219z" />
    <glyph glyph-name="dollar" unicode="$" horiz-adv-x="1325" 
d="M799 -16v-185h-221v189q-188 26 -327 130.5t-208 297.5l242 135q70 -253 293 -311v385q-416 92 -416 432q0 147 113.5 257t302.5 134v186h221v-190q149 -26 255.5 -114t155.5 -228l-229 -121q-52 166 -182 215v-365q241 -50 352 -148.5t111 -268.5q0 -174 -124 -290.5
t-339 -139.5zM578 885v325q-71 -13 -111.5 -55t-40.5 -100q0 -59 37.5 -99t114.5 -71zM995 397q0 69 -44.5 111.5t-151.5 71.5v-349q91 13 143.5 58.5t52.5 107.5z" />
    <glyph glyph-name="percent" unicode="%" horiz-adv-x="1757" 
d="M70 1092q0 157 102.5 259.5t263.5 102.5q162 0 264.5 -103t102.5 -259q0 -157 -103 -260t-264 -103t-263.5 103t-102.5 260zM606 1092q0 81 -47 130.5t-123 49.5q-75 0 -121.5 -49.5t-46.5 -130.5q0 -80 46.5 -130.5t121.5 -50.5t122.5 50.5t47.5 130.5zM426 158
l-127 129l1028 985l127 -129zM954 342q0 157 103 260t264 103t264 -103t103 -260q0 -156 -103 -259t-264 -103t-264 103t-103 259zM1491 342q0 81 -47 130.5t-123 49.5q-75 0 -121.5 -49.5t-46.5 -130.5q0 -80 46.5 -130t121.5 -50t122.5 50.5t47.5 129.5z" />
    <glyph glyph-name="ampersand" unicode="&#x26;" horiz-adv-x="1689" 
d="M1458 293l174 -152q-43 -78 -121 -119.5t-184 -41.5q-86 0 -148.5 24.5t-127.5 85.5q-177 -110 -428 -110q-239 0 -382 124t-143 324q0 295 291 424q-88 125 -88 248q0 161 108 257.5t287 96.5q180 0 284.5 -91t104.5 -239q0 -254 -307 -368l279 -312q99 164 108 424
l248 -20q-12 -365 -182 -592q51 -43 108 -43q83 0 119 80zM539 1102q0 -45 20.5 -84.5t67.5 -91.5q110 30 158.5 75.5t48.5 110.5q0 57 -38 95t-104 38q-65 0 -109 -39.5t-44 -103.5zM651 225q133 0 232 51l-346 402q-92 -42 -133.5 -99.5t-41.5 -136.5q0 -99 77.5 -158
t211.5 -59z" />
    <glyph glyph-name="quotesingle" unicode="'" horiz-adv-x="479" 
d="M166 881l-60 313v240h267v-240l-58 -313h-149z" />
    <glyph glyph-name="parenleft" unicode="(" horiz-adv-x="874" 
d="M82 717q0 355 173.5 612t487.5 402l97 -189q-270 -125 -403.5 -336t-133.5 -489q0 -277 133.5 -488t403.5 -338l-97 -188q-314 145 -487.5 402t-173.5 612z" />
    <glyph glyph-name="parenright" unicode=")" horiz-adv-x="874" 
d="M571 717q0 278 -133 489t-403 336l96 189q315 -145 488.5 -402t173.5 -612t-173.5 -612t-488.5 -402l-96 188q270 126 403 337.5t133 488.5z" />
    <glyph glyph-name="asterisk" unicode="*" horiz-adv-x="901" 
d="M354 1485h193v-152l-64 -178l154 119l145 47l60 -182l-144 -49h-188l152 -101l90 -123l-158 -114l-90 122l-53 183l-54 -183l-90 -122l-157 114l90 123l151 101h-186l-146 49l60 182l145 -47l154 -119l-64 178v152z" />
    <glyph glyph-name="plus" unicode="+" horiz-adv-x="1167" 
d="M109 721h368v369h213v-369h369v-213h-369v-369h-213v369h-368v213z" />
    <glyph glyph-name="comma" unicode="," horiz-adv-x="528" 
d="M70 -242l26 129q36 -20 92 -20q41 0 63.5 17t22.5 48t-20.5 49.5t-58.5 18.5h-74v287h287v-355q0 -198 -215 -198q-77 0 -123 24z" />
    <glyph glyph-name="hyphen" unicode="-" horiz-adv-x="786" 
d="M96 635h594v-236h-594v236z" />
    <glyph glyph-name="period" unicode="." horiz-adv-x="528" 
d="M121 287h287v-287h-287v287z" />
    <glyph glyph-name="slash" unicode="/" horiz-adv-x="1093" 
d="M791 1708l206 -76l-694 -1906l-207 75z" />
    <glyph glyph-name="zero" unicode="0" horiz-adv-x="1339" 
d="M76 717q0 337 161.5 537t432.5 200t432.5 -200t161.5 -537t-161.5 -537t-432.5 -200t-432.5 200t-161.5 537zM997 717q0 232 -85 367t-242 135t-242.5 -135t-85.5 -367t85.5 -367t242.5 -135t242 135t85 367z" />
    <glyph glyph-name="one" unicode="1" horiz-adv-x="864" 
d="M459 0v1069q-44 -99 -145 -162t-224 -71l-51 270q176 12 293.5 99t152.5 229h240v-1434h-266z" />
    <glyph glyph-name="two" unicode="2" horiz-adv-x="1222" 
d="M473 596q16 9 34.5 19t27.5 14.5t12 7.5q130 69 190 111q131 88 131 227q0 109 -74 176.5t-198 67.5q-115 0 -187.5 -68t-72.5 -172q0 -108 86 -191l-219 -147q-129 138 -129 332q0 98 39.5 186t108 153t169 103.5t215.5 38.5q243 0 382.5 -131t139.5 -342
q0 -171 -79 -272q-78 -100 -232 -191q-74 -42 -88 -49q-126 -70 -199 -125q-61 -46 -75 -102h678v-242h-1029q0 230 101 367q105 143 268 229z" />
    <glyph glyph-name="three" unicode="3" horiz-adv-x="1196" 
d="M39 430l246 109q7 -146 90 -230t215 -84q118 0 194 72t76 188t-75 188t-191 72q-124 0 -191 -79l-149 184l405 344h-553v240h947v-199l-379 -317q6 2 35 2q76 0 148.5 -30.5t130.5 -84.5t93 -137t35 -181q0 -225 -147 -366t-379 -141q-225 0 -369 121.5t-182 328.5z" />
    <glyph glyph-name="four" unicode="4" horiz-adv-x="1236" 
d="M719 0v328h-653v256q128 122 192 229q63 106 84 219q20 109 20 289v113h263v-113q0 -244 -58 -418q-59 -176 -215 -340h367v428h260v-428h229v-235h-229v-328h-260z" />
    <glyph glyph-name="five" unicode="5" horiz-adv-x="1253" 
d="M1106 1434v-246h-694q0 -147 -31 -316q52 52 133 83.5t168 31.5q213 0 352.5 -128t139.5 -351q0 -235 -146.5 -381.5t-398.5 -146.5q-216 0 -365 110q-151 112 -178 320l256 71q18 -120 92 -188t195 -68q129 0 206.5 72.5t77.5 189.5q0 118 -75.5 192.5t-202.5 74.5
q-90 0 -161.5 -45t-100.5 -119l-267 61q62 376 62 783h938z" />
    <glyph glyph-name="six" unicode="6" horiz-adv-x="1239" 
d="M76 682q0 166 36 305t106 244t183 164t258 59q209 0 336.5 -100t163.5 -285l-239 -74q-23 114 -89 169t-182 55q-138 0 -229.5 -118.5t-91.5 -340.5v-17q48 87 146 141t212 54q200 0 326.5 -131t126.5 -326q0 -226 -141 -363.5t-363 -137.5q-118 0 -220 48t-177.5 136.5
t-118.5 222t-43 295.5zM877 461q0 106 -69.5 176t-180.5 70q-102 0 -170 -69.5t-68 -170.5q0 -105 70 -175.5t178 -70.5q103 0 171.5 69.5t68.5 170.5z" />
    <glyph glyph-name="seven" unicode="7" horiz-adv-x="1105" 
d="M61 1434h983v-220q-228 -140 -340 -353.5t-112 -514.5q0 -152 31 -346h-289q-23 151 -23 285q0 581 396 903h-646v246z" />
    <glyph glyph-name="eight" unicode="8" horiz-adv-x="1234" 
d="M80 420q0 130 67 230t189 149q-85 44 -129.5 115.5t-44.5 160.5q0 163 125.5 271t330.5 108q203 0 329 -108t126 -271q0 -89 -44.5 -160.5t-129.5 -115.5q124 -49 190 -148t66 -231q0 -90 -36.5 -169.5t-103.5 -140t-169.5 -95.5t-227.5 -35q-126 0 -229 35t-169.5 95.5
t-103 140t-36.5 169.5zM827 1065q0 67 -59 113.5t-150 46.5q-93 0 -151.5 -46t-58.5 -114q0 -74 57 -121t153 -47q93 0 151 47t58 121zM895 451q0 99 -76.5 162t-200.5 63t-200 -63t-76 -162q0 -100 75 -163t201 -63t201.5 63t75.5 163z" />
    <glyph glyph-name="nine" unicode="9" horiz-adv-x="1234" 
d="M80 385l244 76q40 -240 280 -240q148 0 228.5 120t80.5 333v53q-42 -108 -132 -168.5t-218 -60.5q-137 0 -243 62.5t-162 167t-56 230.5q0 219 141 357.5t351 138.5q302 0 434 -209q131 -207 131 -540q0 -303 -129 -515q-128 -210 -436 -210q-207 0 -344 111t-170 294z
M850 973q0 106 -69 176t-177 70q-106 0 -176 -71t-70 -179q0 -105 68.5 -170.5t177.5 -65.5q112 0 179 65.5t67 174.5z" />
    <glyph glyph-name="colon" unicode=":" horiz-adv-x="528" 
d="M121 645v287h287v-287h-287zM121 0v287h287v-287h-287z" />
    <glyph glyph-name="semicolon" unicode=";" horiz-adv-x="528" 
d="M121 645v287h287v-287h-287zM70 -242l26 129q36 -20 92 -20q41 0 63.5 17t22.5 48t-20.5 49.5t-58.5 18.5h-74v287h287v-355q0 -198 -215 -198q-77 0 -123 24z" />
    <glyph glyph-name="less" unicode="&#x3c;" horiz-adv-x="1167" 
d="M1059 104l-950 404v213l950 403v-260l-637 -250l637 -247v-263z" />
    <glyph glyph-name="equal" unicode="=" horiz-adv-x="1167" 
d="M109 897h950v-213h-950v213zM109 547h950v-213h-950v213z" />
    <glyph glyph-name="greater" unicode="&#x3e;" horiz-adv-x="1167" 
d="M109 104v263l639 247l-639 250v260l950 -403v-213z" />
    <glyph glyph-name="question" unicode="?" horiz-adv-x="1011" 
d="M158 672q0 260 350 325q94 17 139 50.5t45 87.5q0 48 -47 78t-125 30q-88 0 -158 -53t-100 -152l-207 109q56 149 180 228t289 79q195 0 310.5 -85t115.5 -218q0 -134 -88.5 -214t-286.5 -124q-88 -21 -126.5 -51t-38.5 -82q0 -42 32 -69t82 -27q130 0 176 149l193 -106
q-57 -127 -150 -187.5t-229 -60.5q-159 0 -257.5 83.5t-98.5 209.5zM379 0v276h287v-276h-287z" />
    <glyph glyph-name="at" unicode="@" horiz-adv-x="1734" 
d="M1339 240q59 0 90 68.5t31 193.5q0 571 -592 571q-111 2 -217.5 -41t-187.5 -119.5t-129.5 -188.5t-46.5 -239q0 -139 46 -252t125 -185t181 -111t217 -39q184 0 342 110l88 -168q-97 -64 -197 -93.5t-237 -29.5q-153 -2 -292 48.5t-247 145t-171 243.5t-60 331
q-3 156 58 298.5t166 246.5t253 164.5t311 58.5q233 0 410 -85.5t275 -246.5t98 -376q0 -245 -83 -369.5t-229 -124.5q-83 0 -139.5 42.5t-77.5 113.5q-102 -156 -297 -156q-178 0 -289.5 121t-111.5 307q0 188 115 314.5t282 126.5q153 0 236 -99v74h209v-576
q0 -37 19.5 -58t51.5 -21zM852 733q-92 0 -153.5 -71.5t-61.5 -180.5t60.5 -175t154.5 -66q91 0 154 67t63 174q0 109 -65.5 180.5t-151.5 71.5z" />
    <glyph glyph-name="A" unicode="A" horiz-adv-x="1589" 
d="M23 0l577 1434h391l576 -1434h-305l-125 324h-684l-123 -324h-307zM549 573h493l-247 641z" />
    <glyph glyph-name="B" unicode="B" horiz-adv-x="1447" 
d="M139 0v1434h707q203 0 332 -104.5t129 -268.5q0 -110 -59.5 -193.5t-170.5 -130.5q131 -36 206 -125t75 -217q0 -179 -134.5 -287t-351.5 -108h-733zM416 860h420q97 0 148.5 42.5t51.5 121.5q0 71 -54.5 112.5t-145.5 41.5h-420v-318zM416 256h461q92 0 148 48t56 126
q0 79 -56 129.5t-148 50.5h-461v-354z" />
    <glyph glyph-name="C" unicode="C" horiz-adv-x="1617" 
d="M365 717q0 -221 130 -353.5t328 -132.5q196 0 319.5 114.5t160.5 307.5l251 -100q-59 -262 -249 -418q-189 -155 -484 -155q-165 0 -304 56t-234 154t-148 234t-53 293q-2 152 55 289.5t155.5 236.5t237 156.5t291.5 54.5q137 0 252 -37.5t196.5 -103.5t136 -151.5
t79.5 -186.5l-254 -113q-31 158 -140 250t-272 92q-195 0 -324.5 -134.5t-129.5 -352.5z" />
    <glyph glyph-name="D" unicode="D" horiz-adv-x="1517" 
d="M139 0v1434h553q233 0 402.5 -91.5t255.5 -254.5t86 -381q0 -153 -50.5 -282.5t-144 -224t-233.5 -147.5t-310 -53h-559zM416 1184v-932h276q224 0 345.5 127.5t121.5 327.5q0 223 -121.5 350t-349.5 127h-272z" />
    <glyph glyph-name="E" unicode="E" horiz-adv-x="1327" 
d="M139 1434h1078v-256h-801v-312h739v-256h-739v-354h821v-256h-1098v1434z" />
    <glyph glyph-name="F" unicode="F" horiz-adv-x="1298" 
d="M139 1434h1065v-256h-788v-349h727v-256h-727v-573h-277v1434z" />
    <glyph glyph-name="G" unicode="G" horiz-adv-x="1654" 
d="M795 -20q-197 -3 -361.5 91.5t-259.5 265t-92 380.5q-4 202 95 373.5t270 269.5t372 94q278 0 456.5 -134t237.5 -366l-270 -86q-32 158 -143 244t-277 86q-194 0 -326 -135.5t-132 -345.5q0 -214 126.5 -347.5t327.5 -133.5q82 0 151 27t113.5 70t72.5 90.5t38 94.5
h-580v240h930v-758h-239v297q-67 -152 -196 -234.5t-314 -82.5z" />
    <glyph glyph-name="H" unicode="H" horiz-adv-x="1538" 
d="M1122 580h-706v-580h-277v1434h277v-605h706v605h277v-1434h-277v580z" />
    <glyph glyph-name="I" unicode="I" horiz-adv-x="555" 
d="M139 0v1434h277v-1434h-277z" />
    <glyph glyph-name="J" unicode="J" horiz-adv-x="1251" 
d="M850 1434h276v-942q0 -81 -17 -153.5t-56 -139t-97 -114.5t-146 -76.5t-198 -28.5q-242 0 -381 137.5t-139 351.5q0 152 72 256l254 -100q-53 -71 -53 -168t67.5 -159t173.5 -62q124 0 184 75.5t60 214.5v908z" />
    <glyph glyph-name="K" unicode="K" horiz-adv-x="1431" 
d="M838 862l557 -862h-328l-416 653l-235 -254v-399h-277v1434h277v-646l594 646h354z" />
    <glyph glyph-name="L" unicode="L" horiz-adv-x="1327" 
d="M139 1434h277v-1178h833v-256h-1110v1434z" />
    <glyph glyph-name="M" unicode="M" horiz-adv-x="1998" 
d="M1860 0h-277v1286l-373 -1286h-419l-375 1286v-1286h-277v1434h508l352 -1229l355 1229h506v-1434z" />
    <glyph glyph-name="N" unicode="N" horiz-adv-x="1628" 
d="M416 1243v-1243h-277v1434h477l596 -1244v1244h277v-1434h-477z" />
    <glyph glyph-name="O" unicode="O" horiz-adv-x="1669" 
d="M836 1454q151 3 291 -56t241.5 -159t161.5 -237.5t57 -284.5q3 -148 -57 -285.5t-161.5 -237.5t-241.5 -158.5t-291 -55.5q-151 -4 -292 55t-243 159.5t-162 238t-57 284.5q-3 147 57 284t162 237.5t243 159.5t292 56zM836 242q129 0 236 58t171 167.5t64 249.5
q0 211 -135 344t-336 133t-336 -133t-135 -344q0 -140 64 -249.5t171 -167.5t236 -58z" />
    <glyph glyph-name="P" unicode="P" horiz-adv-x="1370" 
d="M416 553v-553h-277v1434h676q112 0 202.5 -35.5t148.5 -96t89 -139.5t31 -168q0 -117 -52.5 -216t-161.5 -162.5t-257 -63.5h-399zM416 809h379q95 0 153 49.5t58 134.5q0 86 -58 135.5t-153 49.5h-379v-369z" />
    <glyph glyph-name="Q" unicode="Q" horiz-adv-x="1669" 
d="M1030 6q-88 -26 -194 -26q-151 -4 -292 55t-243 159.5t-162 238t-57 284.5q-3 147 57 284t162 237.5t243 159.5t292 56q151 3 291 -56t241.5 -159t161.5 -237.5t57 -284.5q0 -188 -87 -349.5t-240 -261.5q50 -92 165 -92q92 0 152 54l88 -240q-101 -70 -252 -70
q-133 0 -235 64.5t-148 183.5zM522 403q3 144 96 228q95 86 230 86q144 0 236 -80t122 -225q101 131 101 305q0 211 -135 344t-336 133t-336 -133t-135 -344q0 -116 43 -210.5t122 -156.5q-8 19 -8 53zM991 266q-15 223 -164 223q-54 0 -89.5 -33.5t-35.5 -84.5
q0 -61 36 -95t98 -34q90 0 155 24z" />
    <glyph glyph-name="R" unicode="R" horiz-adv-x="1411" 
d="M1327 0h-323q-28 58 -37 123q-11 82 -11 205q0 126 -58.5 183.5t-174.5 57.5h-307v-569h-277v1434h703q216 0 343.5 -114t127.5 -290q0 -128 -76.5 -229.5t-206.5 -149.5q101 -33 159 -113.5t64 -205.5q6 -126 20.5 -188.5t53.5 -110.5v-33zM416 825h409q101 0 156 48
t55 131q0 82 -54.5 128t-156.5 46h-409v-353z" />
    <glyph glyph-name="S" unicode="S" horiz-adv-x="1335" 
d="M657 1208q-101 0 -163 -43t-62 -110q0 -82 85 -132t249 -81q267 -50 386.5 -148.5t119.5 -279.5q0 -190 -157 -312t-415 -122q-213 0 -393 98q-182 102 -264 338l246 153q42 -165 150.5 -251.5t267.5 -86.5q129 0 206.5 47t77.5 125q0 81 -73 128.5t-254 76.5
q-508 77 -508 449q0 167 145 282t373 115q193 0 335 -92t201 -260l-239 -139q-67 245 -314 245z" />
    <glyph glyph-name="T" unicode="T" horiz-adv-x="1392" 
d="M1341 1434v-256h-505v-1178h-277v1178h-508v256h1290z" />
    <glyph glyph-name="U" unicode="U" horiz-adv-x="1452" 
d="M125 1434h276v-848q0 -163 88 -256.5t238 -93.5t237 93t87 257v848h276v-854q0 -273 -162.5 -436.5t-437.5 -163.5q-277 0 -439.5 163.5t-162.5 436.5v854z" />
    <glyph glyph-name="V" unicode="V" horiz-adv-x="1548" 
d="M774 217l451 1217h305l-559 -1434h-393l-560 1434h306z" />
    <glyph glyph-name="W" unicode="W" horiz-adv-x="2093" 
d="M326 0l-303 1434h286l246 -1250l256 1250h471l256 -1250l246 1250h287l-302 -1434h-460l-262 1249l-261 -1249h-460z" />
    <glyph glyph-name="X" unicode="X" horiz-adv-x="1464" 
d="M31 0l542 778l-460 656h327l293 -445l291 445h328l-461 -656l543 -778h-328l-373 559l-375 -559h-327z" />
    <glyph glyph-name="Y" unicode="Y" horiz-adv-x="1417" 
d="M350 1434l359 -607l378 607h308l-547 -865v-569h-277v569l-548 865h327z" />
    <glyph glyph-name="Z" unicode="Z" horiz-adv-x="1462" 
d="M98 256l887 922h-876v256h1241v-256l-887 -922h897v-256h-1262v256z" />
    <glyph glyph-name="bracketleft" unicode="[" horiz-adv-x="669" 
d="M139 1708h443v-215h-207v-1626h207v-215h-443v2056z" />
    <glyph glyph-name="backslash" unicode="\" horiz-adv-x="1093" 
d="M997 -199l-206 -75l-695 1906l207 76z" />
    <glyph glyph-name="bracketright" unicode="]" horiz-adv-x="669" 
d="M88 -348v215h207v1626h-207v215h442v-2056h-442z" />
    <glyph glyph-name="asciicircum" unicode="^" horiz-adv-x="1155" 
d="M674 1454l389 -430v-33h-279l-190 264h-33l-188 -264h-281v33l391 430h191z" />
    <glyph glyph-name="underscore" unicode="_" horiz-adv-x="1185" 
d="M76 -51h1034v-225h-1034v225z" />
    <glyph glyph-name="grave" unicode="`" horiz-adv-x="741" 
d="M387 1137l-264 239v33h321l174 -272h-231z" />
    <glyph glyph-name="a" unicode="a" horiz-adv-x="1089" 
d="M84 281q0 152 101.5 231.5t277.5 79.5q87 0 166 -21l86 -20v61q0 81 -54 127.5t-145 46.5q-86 0 -139.5 -42.5t-71.5 -118.5l-227 61q39 144 152.5 224.5t287.5 80.5q220 0 333.5 -100.5t113.5 -292.5v-598h-240v150q-95 -170 -322 -170q-131 0 -225 83t-94 218zM715 358
v9l-60 18q-98 29 -151 29q-73 0 -113.5 -30.5t-40.5 -86.5q0 -55 40.5 -86t117.5 -31q93 0 150 47.5t57 130.5z" />
    <glyph glyph-name="b" unicode="b" horiz-adv-x="1224" 
d="M125 1434h262v-609q50 76 133 121t178 45q199 0 328 -141.5t129 -368.5q0 -226 -132 -363.5t-339 -137.5q-98 0 -178 38t-129 111v-129h-252v1434zM635 203q111 0 184.5 76.5t73.5 201.5q0 128 -73.5 206.5t-184.5 78.5q-109 0 -183.5 -79t-74.5 -206q0 -126 74.5 -202
t183.5 -76z" />
    <glyph glyph-name="c" unicode="c" horiz-adv-x="1146" 
d="M592 211q114 0 180 65.5t80 174.5l242 -84q-44 -189 -173.5 -288t-322.5 -99q-238 0 -383 141t-145 371q0 143 69 258t183 178t249 63q186 0 312.5 -93t158.5 -257l-231 -78q-13 92 -76.5 145.5t-156.5 53.5q-63 0 -119.5 -30.5t-94.5 -93.5t-38 -146q0 -126 79 -203.5
t187 -77.5z" />
    <glyph glyph-name="d" unicode="d" horiz-adv-x="1224" 
d="M70 481q0 227 129.5 368.5t330.5 141.5q101 0 182 -44.5t126 -121.5v609h262v-1434h-252v139q-48 -76 -128.5 -117.5t-182.5 -41.5q-207 0 -337 138t-130 363zM848 481q0 127 -74.5 206t-183.5 79q-111 0 -184.5 -78.5t-73.5 -206.5q0 -126 73.5 -202t184.5 -76
q109 0 183.5 76t74.5 202z" />
    <glyph glyph-name="e" unicode="e" horiz-adv-x="1093" 
d="M813 371l223 -88q-52 -143 -168 -223t-284 -80q-227 0 -370.5 141.5t-143.5 370.5q0 138 60 251.5t171.5 180.5t251.5 67q202 0 326.5 -119t124.5 -317q0 -59 -13 -119h-659q1 -107 74.5 -169t181.5 -62q179 0 225 166zM332 610h416l2 8q0 73 -54.5 117.5t-142.5 44.5
q-81 0 -142 -46t-79 -124z" />
    <glyph glyph-name="f" unicode="f" horiz-adv-x="847" 
d="M221 0v756h-205v215h205v135q0 160 101 254t268 94q182 0 277.5 -84.5t95.5 -230.5q0 -42 -2 -54h-246q4 20 4 39q0 50 -31.5 80.5t-87.5 30.5q-55 0 -87 -34t-32 -93v-137h256v-215h-256v-756h-260z" />
    <glyph glyph-name="g" unicode="g" horiz-adv-x="1208" 
d="M121 -133l231 102q23 -85 84 -130.5t152 -45.5q116 0 175.5 72t59.5 203v92q-89 -154 -311 -154q-190 0 -316 135t-126 346q0 112 36.5 207.5t99 160t146.5 100.5t178 36q198 0 293 -135v115h260v-883q0 -239 -129.5 -376.5t-371.5 -137.5q-359 0 -461 293zM831 494
q0 122 -70.5 197t-180.5 75q-108 0 -178 -76t-70 -203q0 -120 70.5 -191t181.5 -71q106 0 176.5 76t70.5 193z" />
    <glyph glyph-name="h" unicode="h" horiz-adv-x="1189" 
d="M387 0h-262v1434h262v-637q44 93 129.5 143.5t192.5 50.5q164 0 260 -100.5t96 -267.5v-623h-260v561q0 100 -52.5 156.5t-146.5 56.5q-95 0 -157 -74t-62 -196v-504z" />
    <glyph glyph-name="i" unicode="i" horiz-adv-x="512" 
d="M125 971h262v-971h-262v971zM117 1116v277h280v-277h-280z" />
    <glyph glyph-name="j" unicode="j" horiz-adv-x="512" 
d="M125 -406v1377h262v-1377h-262zM117 1116v277h280v-277h-280z" />
    <glyph glyph-name="k" unicode="k" horiz-adv-x="1095" 
d="M659 573l398 -573h-301l-269 389l-100 -104v-285h-262v1434h262v-824l328 361h321z" />
    <glyph glyph-name="l" unicode="l" horiz-adv-x="512" 
d="M125 0v1434h262v-1434h-262z" />
    <glyph glyph-name="m" unicode="m" horiz-adv-x="1607" 
d="M125 971h262v-119q74 139 240 139q90 0 156 -46.5t96 -135.5q42 91 114 136.5t166 45.5q150 0 237 -88.5t87 -247.5v-655h-262v606q0 78 -40 123t-104 45q-67 0 -105 -47t-38 -131v-596h-260v606q0 76 -39.5 119t-104.5 43q-64 0 -103.5 -48t-39.5 -134v-586h-262v971z
" />
    <glyph glyph-name="n" unicode="n" horiz-adv-x="1157" 
d="M387 0h-262v971h262v-127q46 72 123.5 109.5t171.5 37.5q160 0 255 -95t95 -261v-635h-262v563q0 100 -48.5 157.5t-133.5 57.5q-90 0 -145.5 -64t-55.5 -177v-537z" />
    <glyph glyph-name="o" unicode="o" horiz-adv-x="1155" 
d="M70 485q0 219 143.5 362.5t364.5 143.5t364 -143.5t143 -362.5q0 -217 -144 -361t-363 -144t-363.5 144t-144.5 361zM829 485q0 121 -70.5 196t-180.5 75t-181 -75.5t-71 -195.5t71 -195t181 -75t180.5 75t70.5 195z" />
    <glyph glyph-name="p" unicode="p" horiz-adv-x="1224" 
d="M125 971h252v-146q55 76 140.5 121t180.5 45q199 0 328 -141.5t129 -368.5q0 -226 -132 -363.5t-339 -137.5q-100 0 -179.5 39t-117.5 106v-531h-262v1377zM635 203q111 0 184.5 76.5t73.5 201.5q0 128 -73.5 206.5t-184.5 78.5q-109 0 -183.5 -79t-74.5 -206
q0 -126 74.5 -202t183.5 -76z" />
    <glyph glyph-name="q" unicode="q" horiz-adv-x="1224" 
d="M838 -406v549q-44 -77 -121.5 -120t-179.5 -43q-206 0 -336.5 138.5t-130.5 362.5q0 227 129.5 368.5t330.5 141.5q104 0 190 -45.5t128 -120.5v146h252v-1377h-262zM848 481q0 127 -74.5 206t-183.5 79q-111 0 -184.5 -78.5t-73.5 -206.5q0 -126 73.5 -202t184.5 -76
q109 0 183.5 76t74.5 202z" />
    <glyph glyph-name="r" unicode="r" horiz-adv-x="964" 
d="M125 971h262v-125q31 69 91 107t143 38q128 0 203 -79.5t75 -206.5q0 -66 -14 -121h-248q8 31 8 73q0 54 -34 87.5t-89 33.5q-62 0 -98.5 -40t-36.5 -113v-625h-262v971z" />
    <glyph glyph-name="s" unicode="s" horiz-adv-x="974" 
d="M53 240l205 108q68 -153 244 -153q74 0 115.5 26t41.5 68q0 52 -48.5 80.5t-176.5 46.5q-332 52 -332 291q0 123 109.5 203.5t261.5 80.5q147 0 235 -52t134 -153l-199 -108q-37 110 -164 110q-60 0 -98.5 -23t-38.5 -60q0 -43 46 -65.5t169 -41.5q184 -29 265 -102
t81 -203q0 -136 -116.5 -224.5t-292.5 -88.5q-166 0 -277.5 67t-163.5 193z" />
    <glyph glyph-name="t" unicode="t" horiz-adv-x="1009" 
d="M236 328v428h-201v215h201v319h260v-319h364v-215h-364v-428q0 -55 30 -86t80 -31q103 0 115 135l242 -45q-20 -153 -115 -237t-248 -84q-175 0 -269.5 93t-94.5 255z" />
    <glyph glyph-name="u" unicode="u" horiz-adv-x="1171" 
d="M786 971h261v-971h-261v143q-39 -76 -116 -119.5t-178 -43.5q-170 0 -268.5 96.5t-98.5 277.5v617h262v-551q0 -104 46 -159.5t132 -55.5q104 0 162.5 71t58.5 195v500z" />
    <glyph glyph-name="v" unicode="v" horiz-adv-x="1153" 
d="M311 971l267 -725l264 725h276l-383 -971h-317l-383 971h276z" />
    <glyph glyph-name="w" unicode="w" horiz-adv-x="1587" 
d="M293 971l178 -725l170 725h307l168 -725l180 725h260l-266 -971h-338l-157 631l-160 -631h-338l-266 971h262z" />
    <glyph glyph-name="x" unicode="x" horiz-adv-x="1034" 
d="M975 971l-316 -457l353 -514h-297l-199 309l-197 -309h-296l352 514l-316 457h297l160 -254l162 254h297z" />
    <glyph glyph-name="y" unicode="y" horiz-adv-x="1091" 
d="M803 971h266l-661 -1377h-267l260 543l-389 834h275l250 -553z" />
    <glyph glyph-name="z" unicode="z" horiz-adv-x="1040" 
d="M954 0h-876v225l532 520h-516v226h846v-215l-534 -520h548v-236z" />
    <glyph glyph-name="braceleft" unicode="{" horiz-adv-x="675" 
d="M174 -41v514q0 102 -94 102h-19v211h19q94 0 94 103v512q0 160 70 233.5t227 73.5h117v-215h-76q-48 0 -75 -26t-27 -76v-506q0 -95 -39 -141t-129 -64q90 -18 129 -64t39 -141v-506q0 -50 27 -76t75 -26h76v-215h-117q-157 0 -227 73.5t-70 233.5z" />
    <glyph glyph-name="bar" unicode="|" horiz-adv-x="509" 
d="M139 1700h232v-2007h-232v2007z" />
    <glyph glyph-name="braceright" unicode="}" horiz-adv-x="675" 
d="M88 -348v215h76q48 0 75 26t27 76v506q0 95 39 141t129 64q-90 18 -129 64t-39 141v506q0 50 -27 76t-75 26h-76v215h117q157 0 227 -73.5t70 -233.5v-512q0 -103 94 -103h18v-211h-18q-94 0 -94 -102v-514q0 -160 -70 -233.5t-227 -73.5h-117z" />
    <glyph glyph-name="asciitilde" unicode="~" horiz-adv-x="1099" 
d="M139 463l-2 31q0 124 78 196q79 70 186 70q68 0 109.5 -18.5t87.5 -61.5q28 -27 46.5 -37t43.5 -10q32 0 52 20t20 54q0 18 -6 36l207 -26l2 -31q0 -119 -76 -192.5t-189 -73.5q-67 0 -107 18.5t-81 59.5q-28 28 -48.5 39.5t-49.5 11.5q-32 0 -52 -21t-20 -57q0 -3 4 -35
z" />
    <glyph glyph-name="uni00A0" unicode="&#xa0;" horiz-adv-x="481" 
 />
    <glyph glyph-name="exclamdown" unicode="&#xa1;" horiz-adv-x="528" 
d="M121 1028h287v-287h-287v287zM141 618h246v-1024h-246v1024z" />
    <glyph glyph-name="cent" unicode="&#xa2;" horiz-adv-x="1146" 
d="M680 -16v-185h-213v193q-185 37 -291 170.5t-106 329.5q0 186 112.5 320.5t284.5 168.5v190h213v-188q144 -25 238.5 -113.5t123.5 -228.5l-231 -78q-22 131 -131 178v-518q75 22 118 82t54 146l242 -84q-41 -168 -147.5 -265.5t-266.5 -117.5zM467 242v493
q-65 -30 -103 -93.5t-38 -149.5t38 -151.5t103 -98.5z" />
    <glyph glyph-name="sterling" unicode="&#xa3;" horiz-adv-x="1310" 
d="M1032 346l230 -119q-94 -247 -373 -247q-89 0 -159 29t-140 87q-88 -116 -248 -116q-130 0 -200 66.5t-70 178.5q0 104 73 172t193 68q68 0 133 -27q-13 70 -51 125h-291v201h137q-84 132 -84 260q0 130 68 229.5t180.5 150t249.5 50.5q219 0 352 -108t158 -299l-262 -80
q-11 115 -76 182.5t-172 67.5t-172.5 -58.5t-65.5 -167.5q0 -59 21.5 -107.5t71.5 -119.5h350v-201h-232q27 -73 27 -157q0 -61 -10 -113q100 -78 198 -78q124 0 164 131zM449 223q-51 39 -105 39q-32 0 -52 -15t-20 -40t20 -40t52 -15q70 0 105 71z" />
    <glyph glyph-name="currency" unicode="&#xa4;" horiz-adv-x="1247" 
d="M1018 481l151 -151l-157 -158l-152 152q-111 -66 -235 -66q-125 0 -236 66l-151 -152l-160 158l151 151q-63 105 -63 236q0 130 63 235l-151 152l160 160l151 -154q114 66 236 66q128 0 235 -64l152 152l157 -160l-151 -152q65 -109 65 -235q0 -127 -65 -236zM625 481
q100 0 167.5 68t67.5 168t-67.5 167.5t-167.5 67.5t-168 -67.5t-68 -167.5t68 -168t168 -68z" />
    <glyph glyph-name="yen" unicode="&#xa5;" horiz-adv-x="1417" 
d="M1395 1434l-420 -660h227v-211h-358v-92h358v-209h-358v-262h-271v262h-358v209h358v92h-358v211h227l-419 660h317l369 -609l378 609h308z" />
    <glyph glyph-name="brokenbar" unicode="&#xa6;" horiz-adv-x="509" 
d="M139 809v891h232v-891h-232zM371 625v-932h-232v932h232z" />
    <glyph glyph-name="section" unicode="&#xa7;" horiz-adv-x="1114" 
d="M1001 141q0 -158 -127 -256t-321 -98q-190 0 -305.5 72.5t-147.5 212.5l207 100q20 -87 84 -131.5t164 -44.5t160.5 37.5t60.5 103.5q0 72 -81 113.5t-251 62.5q-401 52 -401 332q0 145 137 236q-86 83 -86 219q0 158 127 256t322 98q189 0 304.5 -73t147.5 -210
l-207 -100q-40 174 -247 174q-99 0 -160.5 -37t-61.5 -102q0 -73 79 -112.5t253 -63.5q400 -53 400 -334q0 -142 -138 -234q88 -82 88 -221zM578 496q100 -12 174 -39q69 48 69 118q0 72 -69 111t-234 59q-77 8 -176 39q-70 -49 -70 -116q0 -72 70.5 -112t235.5 -60z" />
    <glyph glyph-name="dieresis" unicode="&#xa8;" horiz-adv-x="817" 
d="M82 1145v264h260v-264h-260zM475 1145v264h260v-264h-260z" />
    <glyph glyph-name="copyright" unicode="&#xa9;" horiz-adv-x="1097" 
d="M80 995q0 196 136 332.5t333 136.5t333 -136.5t136 -332.5t-136 -332.5t-333 -136.5t-333 136.5t-136 332.5zM905 995q0 149 -102.5 254t-253.5 105t-253.5 -105t-102.5 -254t102.5 -253.5t253.5 -104.5t253.5 104.5t102.5 253.5zM287 997q0 117 75 189q76 76 185 76
q98 0 161 -48t83 -139l-109 -33q-8 51 -44.5 83t-90.5 32q-59 0 -100 -43.5t-41 -116.5q0 -72 41.5 -115.5t105.5 -43.5q65 0 103 36.5t49 100.5l106 -39q-26 -100 -93 -153.5t-165 -53.5q-119 0 -192.5 73.5t-73.5 194.5z" />
    <glyph glyph-name="ordfeminine" unicode="&#xaa;" horiz-adv-x="983" 
d="M74 811q0 134 91 206.5t249 72.5q72 0 153 -19l70 -18v57q0 73 -46 113.5t-126 40.5q-76 0 -124 -37.5t-62 -102.5l-209 58q39 129 141.5 200.5t255.5 71.5q199 0 302 -92.5t103 -265.5v-541h-223v129q-48 -76 -117 -111.5t-172 -35.5q-121 0 -203.5 76t-82.5 198z
M637 877v8l-49 18q-70 25 -135 25q-62 0 -98 -28t-36 -77q0 -50 36 -77t102 -27q81 0 130.5 42.5t49.5 115.5z" />
    <glyph glyph-name="guillemotleft" unicode="&#xab;" horiz-adv-x="1099" 
d="M545 158l-455 426v61l455 426h33v-258l-224 -182v-33l224 -180v-260h-33zM969 158l-455 426v61l455 426h32v-258l-223 -182v-33l223 -180v-260h-32z" />
    <glyph glyph-name="logicalnot" unicode="&#xac;" horiz-adv-x="1167" 
d="M846 449v235h-737v213h950v-448h-213z" />
    <glyph glyph-name="uni00AD" unicode="&#xad;" horiz-adv-x="786" 
d="M96 635h594v-236h-594v236z" />
    <glyph glyph-name="registered" unicode="&#xae;" horiz-adv-x="1097" 
d="M80 995q0 196 136 332.5t333 136.5t333 -136.5t136 -332.5t-136 -332.5t-333 -136.5t-333 136.5t-136 332.5zM905 995q0 149 -102.5 254t-253.5 105t-253.5 -105t-102.5 -254t102.5 -253.5t253.5 -104.5t253.5 104.5t102.5 253.5zM358 739v514h236q77 0 121.5 -38.5
t44.5 -100.5q0 -97 -98 -133q81 -29 81 -125q0 -45 5 -66t22 -38v-13h-121q-20 39 -20 117q0 48 -21 69t-65 21h-74v-207h-111zM469 1044h111q33 0 51 15.5t18 44.5q0 25 -18.5 39t-50.5 14h-111v-113z" />
    <glyph glyph-name="overscore" unicode="&#xaf;" horiz-adv-x="778" 
d="M117 1352h545v-185h-545v185z" />
    <glyph glyph-name="degree" unicode="&#xb0;" horiz-adv-x="831" 
d="M82 1120q0 136 99 235t235 99t235 -99t99 -235t-99 -235t-235 -99t-235 99t-99 235zM565 1120q0 63 -43 106.5t-106 43.5t-106.5 -43.5t-43.5 -106.5t43.5 -106t106.5 -43t106 43t43 106z" />
    <glyph glyph-name="plusminus" unicode="&#xb1;" horiz-adv-x="1167" 
d="M477 291v282h-368v213h368v289h215v-289h367v-213h-367v-282h-215zM109 0v213h950v-213h-950z" />
    <glyph glyph-name="uni00B2" unicode="&#xb2;" horiz-adv-x="618" 
d="M47 1212q0 105 72 167.5t188 62.5q122 0 190 -58t68 -159q-3 -54 -15 -92t-38.5 -68.5t-51.5 -49t-73 -48.5q-34 -20 -46.5 -28.5t-28.5 -22.5t-25 -29h272v-150h-506q0 54 10.5 98t27 74.5t44.5 59t55 47.5t68 43q80 45 110.5 77.5t30.5 75.5q0 37 -26 58.5t-70 21.5
q-42 0 -67 -21.5t-25 -56.5t27 -65l-132 -88q-59 59 -59 151z" />
    <glyph glyph-name="uni00B3" unicode="&#xb3;" horiz-adv-x="638" 
d="M51 930l150 69q8 -55 37.5 -84.5t78.5 -29.5q43 0 70 24.5t27 65.5q0 38 -25.5 65t-62.5 27q-40 0 -68 -25l-90 109l166 135h-250v148h465v-123l-156 -117q78 -5 132.5 -63.5t54.5 -157.5q0 -109 -72.5 -176.5t-188.5 -67.5q-110 0 -179.5 54t-88.5 147z" />
    <glyph glyph-name="acute" unicode="&#xb4;" horiz-adv-x="741" 
d="M123 1137l174 272h321v-33l-264 -239h-231z" />
    <glyph glyph-name="uni00B5" unicode="&#xb5;" horiz-adv-x="1171" 
d="M125 -406v1377h262v-551q0 -215 191 -215q97 0 152.5 71t55.5 195v500h261v-971h-261v143q-33 -79 -92.5 -121t-140.5 -42q-115 0 -166 57v-443h-262z" />
    <glyph glyph-name="paragraph" unicode="&#xb6;" horiz-adv-x="1175" 
d="M481 0v715h-55q-166 0 -268.5 99.5t-102.5 260.5q0 160 102.5 259.5t268.5 99.5h690v-168h-86v-1266h-186v1266h-176v-1266h-187zM426 885h55v381h-55q-79 0 -132.5 -49.5t-53.5 -141.5t53.5 -141t132.5 -49z" />
    <glyph glyph-name="middot" unicode="&#xb7;" horiz-adv-x="528" 
d="M121 860h287v-287h-287v287z" />
    <glyph glyph-name="cedilla" unicode="&#xb8;" horiz-adv-x="573" 
d="M215 -98q40 37 92 37q73 0 118.5 -42.5t45.5 -115.5q0 -74 -49.5 -120t-128.5 -46q-77 0 -126 33.5t-61 99.5l123 31q2 -23 19 -38t43 -15t42.5 15t16.5 40t-15 40t-44 15q-18 0 -35 -9t-25 -22l-120 23q28 109 41 205h122q-25 -77 -59 -131z" />
    <glyph glyph-name="uni00B9" unicode="&#xb9;" horiz-adv-x="452" 
d="M217 737v475q-24 -42 -71 -69.5t-99 -32.5l-20 172q173 15 200 152h156v-697h-166z" />
    <glyph glyph-name="ordmasculine" unicode="&#xba;" horiz-adv-x="1030" 
d="M516 1454q202 0 327.5 -127.5t125.5 -331.5t-125.5 -331t-327.5 -127q-203 0 -329 127t-126 331t125.5 331.5t329.5 127.5zM516 750q99 0 160 67.5t61 177.5t-61.5 178t-159.5 68t-159.5 -68t-61.5 -178t61 -177.5t160 -67.5z" />
    <glyph glyph-name="guillemotright" unicode="&#xbb;" horiz-adv-x="1099" 
d="M100 158v260l224 180v33l-224 182v258h33l455 -426v-61l-455 -426h-33zM524 158v260l224 180v33l-224 182v258h33l455 -426v-61l-455 -426h-33z" />
    <glyph glyph-name="onequarter" unicode="&#xbc;" horiz-adv-x="1404" 
d="M217 737v475q-24 -42 -71 -69.5t-99 -32.5l-20 172q173 15 200 152h156v-697h-166zM1057 1247l119 -119l-1022 -976l-119 118zM1135 0v141h-330v160q71 68 103 150t32 192v53h158v-49q0 -119 -27.5 -204.5t-89.5 -153.5h154v192h157v-192h92v-148h-92v-141h-157z" />
    <glyph glyph-name="onehalf" unicode="&#xbd;" horiz-adv-x="1376" 
d="M217 737v475q-24 -42 -71 -69.5t-99 -32.5l-20 172q173 15 200 152h156v-697h-166zM1057 1247l119 -119l-1022 -976l-119 118zM805 475q0 105 72 167.5t188 62.5q122 0 190 -58.5t68 -159.5q-3 -54 -15 -92t-38.5 -68.5t-51.5 -49t-73 -48.5q-4 -3 -17.5 -11t-17.5 -10.5
t-14.5 -9t-14 -9.5t-11 -8.5t-11 -9.5t-8 -9.5t-7.5 -11.5h273v-150h-506q0 54 10.5 98t27 74.5t44.5 59t55 47.5t68 43q80 45 110.5 77.5t30.5 75.5q0 37 -26 58.5t-70 21.5q-42 0 -67 -21.5t-25 -56.5q0 -36 26 -65l-131 -88q-59 59 -59 151z" />
    <glyph glyph-name="threequarters" unicode="&#xbe;" horiz-adv-x="1591" 
d="M51 930l150 69q8 -55 37.5 -84.5t78.5 -29.5q43 0 70 24.5t27 65.5q0 38 -25.5 65t-62.5 27q-40 0 -68 -25l-90 109l166 135h-250v148h465v-123l-156 -117q78 -5 132.5 -63.5t54.5 -157.5q0 -109 -72.5 -176.5t-188.5 -67.5q-110 0 -179.5 54t-88.5 147zM1243 1247
l119 -119l-1022 -976l-119 118zM1321 0v141h-330v160q71 68 103 150t32 192v53h158v-49q0 -119 -27.5 -204.5t-89.5 -153.5h154v192h158v-192h92v-148h-92v-141h-158z" />
    <glyph glyph-name="questiondown" unicode="&#xbf;" horiz-adv-x="1011" 
d="M633 1028v-276h-287v276h287zM854 356q0 -260 -350 -325q-95 -17 -140 -50t-45 -87q0 -48 47.5 -78.5t125.5 -30.5q88 0 158 53t100 152l206 -109q-56 -149 -180 -228t-289 -79q-195 0 -310.5 85t-115.5 218q0 134 88.5 214t286.5 124q88 21 127 51t39 82q0 42 -32.5 69
t-82.5 27q-130 0 -176 -149l-192 106q57 127 150 187.5t229 60.5q159 0 257.5 -83.5t98.5 -209.5z" />
    <glyph glyph-name="Agrave" unicode="&#xc0;" horiz-adv-x="1589" 
d="M23 0l577 1434h391l576 -1434h-305l-125 324h-684l-123 -324h-307zM549 573h493l-247 641zM680 1599l-264 240v33h321l174 -273h-231z" />
    <glyph glyph-name="Aacute" unicode="&#xc1;" horiz-adv-x="1589" 
d="M23 0l577 1434h391l576 -1434h-305l-125 324h-684l-123 -324h-307zM549 573h493l-247 641zM680 1599l174 273h322v-33l-265 -240h-231z" />
    <glyph glyph-name="Acircumflex" unicode="&#xc2;" horiz-adv-x="1589" 
d="M23 0l577 1434h391l576 -1434h-305l-125 324h-684l-123 -324h-307zM549 573h493l-247 641zM453 1599v33l266 232h151l269 -232v-33h-254l-90 121l-90 -121h-252z" />
    <glyph glyph-name="Atilde" unicode="&#xc3;" horiz-adv-x="1589" 
d="M23 0l577 1434h391l576 -1434h-305l-125 324h-684l-123 -324h-307zM549 573h493l-247 641zM758 1653q-39 39 -72 39q-27 0 -42 -17t-15 -47q0 -6 4 -26l-172 22l-2 14l-1.5 10.5t-0.5 4.5q0 92 58 151.5t151 59.5q57 0 91 -15.5t74 -50.5q40 -37 72 -37q27 0 43.5 16.5
t16.5 45.5q0 3 -5 28l172 -24q3 -9 3 -29q0 -93 -58 -152t-151 -59q-57 0 -91.5 15.5t-74.5 50.5z" />
    <glyph glyph-name="Adieresis" unicode="&#xc4;" horiz-adv-x="1589" 
d="M23 0l577 1434h391l576 -1434h-305l-125 324h-684l-123 -324h-307zM549 573h493l-247 641zM469 1608v264h260v-264h-260zM862 1608v264h260v-264h-260z" />
    <glyph glyph-name="Aring" unicode="&#xc5;" horiz-adv-x="1589" 
d="M23 0l577 1434h391l576 -1434h-305l-125 324h-684l-123 -324h-307zM549 573h493l-247 641zM594 1747q0 85 58 143t143 58t142.5 -58t57.5 -143t-57.5 -143t-142.5 -58q-84 0 -142.5 59.5t-58.5 141.5zM860 1747q0 26 -19.5 45.5t-45.5 19.5t-46 -19.5t-20 -45.5t20 -46
t46 -20t45.5 20t19.5 46z" />
    <glyph glyph-name="AE" unicode="&#xc6;" horiz-adv-x="2025" 
d="M1214 256h721v-256h-997v324h-440l-168 -324h-307l747 1434h1145v-260h-701v-308h639v-256h-639v-354zM938 573v601l-311 -601h311z" />
    <glyph glyph-name="Ccedilla" unicode="&#xc7;" horiz-adv-x="1617" 
d="M365 717q0 -221 130 -353.5t328 -132.5q196 0 319.5 114.5t160.5 307.5l251 -100q-59 -262 -249 -418q-189 -155 -484 -155q-165 0 -304 56t-234 154t-148 234t-53 293q-2 152 55 289.5t155.5 236.5t237 156.5t291.5 54.5q137 0 252 -37.5t196.5 -103.5t136 -151.5
t79.5 -186.5l-254 -113q-31 158 -140 250t-272 92q-195 0 -324.5 -134.5t-129.5 -352.5zM766 -98q40 37 92 37q73 0 118.5 -42.5t45.5 -115.5q0 -74 -49.5 -120t-128.5 -46q-77 0 -126 33.5t-61 99.5l123 31q2 -23 19 -38t43 -15t42.5 15t16.5 40t-15 40t-44 15
q-18 0 -35 -9t-25 -22l-120 23q25 100 40 205h123q-25 -77 -59 -131z" />
    <glyph glyph-name="Egrave" unicode="&#xc8;" horiz-adv-x="1327" 
d="M139 1434h1078v-256h-801v-312h739v-256h-739v-354h821v-256h-1098v1434zM563 1599l-264 240v33h322l174 -273h-232z" />
    <glyph glyph-name="Eacute" unicode="&#xc9;" horiz-adv-x="1327" 
d="M139 1434h1078v-256h-801v-312h739v-256h-739v-354h821v-256h-1098v1434zM563 1599l174 273h322v-33l-264 -240h-232z" />
    <glyph glyph-name="Ecircumflex" unicode="&#xca;" horiz-adv-x="1327" 
d="M139 1434h1078v-256h-801v-312h739v-256h-739v-354h821v-256h-1098v1434zM336 1599v33l266 232h152l268 -232v-33h-254l-90 121l-90 -121h-252z" />
    <glyph glyph-name="Edieresis" unicode="&#xcb;" horiz-adv-x="1327" 
d="M139 1434h1078v-256h-801v-312h739v-256h-739v-354h821v-256h-1098v1434zM352 1608v264h260v-264h-260zM745 1608v264h261v-264h-261z" />
    <glyph glyph-name="Igrave" unicode="&#xcc;" horiz-adv-x="555" 
d="M139 0v1434h277v-1434h-277zM164 1599l-264 240v33h321l174 -273h-231z" />
    <glyph glyph-name="Iacute" unicode="&#xcd;" horiz-adv-x="555" 
d="M139 0v1434h277v-1434h-277zM164 1599l174 273h321v-33l-264 -240h-231z" />
    <glyph glyph-name="Icircumflex" unicode="&#xce;" horiz-adv-x="555" 
d="M139 0v1434h277v-1434h-277zM-63 1599v33l266 232h151l269 -232v-33h-254l-90 121l-91 -121h-251z" />
    <glyph glyph-name="Idieresis" unicode="&#xcf;" horiz-adv-x="555" 
d="M139 0v1434h277v-1434h-277zM-49 1608v264h260v-264h-260zM344 1608v264h260v-264h-260z" />
    <glyph glyph-name="Eth" unicode="&#xd0;" horiz-adv-x="1517" 
d="M139 0v1434h553q233 0 402.5 -91.5t255.5 -254.5t86 -381q0 -153 -50.5 -282.5t-144 -224t-233.5 -147.5t-310 -53h-559zM416 1184v-932h276q224 0 345.5 127.5t121.5 327.5q0 223 -121.5 350t-349.5 127h-272zM-12 827h848v-221h-848v221z" />
    <glyph glyph-name="Ntilde" unicode="&#xd1;" horiz-adv-x="1628" 
d="M416 1243v-1243h-277v1434h477l596 -1244v1244h277v-1434h-477zM778 1653q-39 39 -71 39q-27 0 -42.5 -17t-15.5 -47q0 -6 4 -26l-172 22l-2 14l-1.5 10.5t-0.5 4.5q0 92 58 151.5t151 59.5q57 0 91.5 -15.5t74.5 -50.5q40 -37 72 -37q27 0 43 16.5t16 45.5q0 8 -4 28
l172 -24q2 -6 2 -29q0 -93 -58 -152t-151 -59q-57 0 -91.5 15.5t-74.5 50.5z" />
    <glyph glyph-name="Ograve" unicode="&#xd2;" horiz-adv-x="1669" 
d="M836 1454q151 3 291 -56t241.5 -159t161.5 -237.5t57 -284.5q3 -148 -57 -285.5t-161.5 -237.5t-241.5 -158.5t-291 -55.5q-151 -4 -292 55t-243 159.5t-162 238t-57 284.5q-3 147 57 284t162 237.5t243 159.5t292 56zM836 242q129 0 236 58t171 167.5t64 249.5
q0 211 -135 344t-336 133t-336 -133t-135 -344q0 -140 64 -249.5t171 -167.5t236 -58zM721 1599l-264 240v33h321l174 -273h-231z" />
    <glyph glyph-name="Oacute" unicode="&#xd3;" horiz-adv-x="1669" 
d="M836 1454q151 3 291 -56t241.5 -159t161.5 -237.5t57 -284.5q3 -148 -57 -285.5t-161.5 -237.5t-241.5 -158.5t-291 -55.5q-151 -4 -292 55t-243 159.5t-162 238t-57 284.5q-3 147 57 284t162 237.5t243 159.5t292 56zM836 242q129 0 236 58t171 167.5t64 249.5
q0 211 -135 344t-336 133t-336 -133t-135 -344q0 -140 64 -249.5t171 -167.5t236 -58zM721 1599l174 273h322v-33l-265 -240h-231z" />
    <glyph glyph-name="Ocircumflex" unicode="&#xd4;" horiz-adv-x="1669" 
d="M836 1454q151 3 291 -56t241.5 -159t161.5 -237.5t57 -284.5q3 -148 -57 -285.5t-161.5 -237.5t-241.5 -158.5t-291 -55.5q-151 -4 -292 55t-243 159.5t-162 238t-57 284.5q-3 147 57 284t162 237.5t243 159.5t292 56zM836 242q129 0 236 58t171 167.5t64 249.5
q0 211 -135 344t-336 133t-336 -133t-135 -344q0 -140 64 -249.5t171 -167.5t236 -58zM494 1599v33l266 232h151l269 -232v-33h-254l-90 121l-91 -121h-251z" />
    <glyph glyph-name="Otilde" unicode="&#xd5;" horiz-adv-x="1669" 
d="M836 1454q151 3 291 -56t241.5 -159t161.5 -237.5t57 -284.5q3 -148 -57 -285.5t-161.5 -237.5t-241.5 -158.5t-291 -55.5q-151 -4 -292 55t-243 159.5t-162 238t-57 284.5q-3 147 57 284t162 237.5t243 159.5t292 56zM836 242q129 0 236 58t171 167.5t64 249.5
q0 211 -135 344t-336 133t-336 -133t-135 -344q0 -140 64 -249.5t171 -167.5t236 -58zM799 1653q-39 39 -72 39q-27 0 -42 -17t-15 -47q0 -6 4 -26l-172 22l-2 14l-1.5 10.5t-0.5 4.5q0 92 58 151.5t151 59.5q57 0 91 -15.5t74 -50.5q40 -37 72 -37q27 0 43.5 16.5
t16.5 45.5q0 3 -5 28l172 -24q3 -9 3 -29q0 -93 -58 -152t-151 -59q-57 0 -91.5 15.5t-74.5 50.5z" />
    <glyph glyph-name="Odieresis" unicode="&#xd6;" horiz-adv-x="1669" 
d="M836 1454q151 3 291 -56t241.5 -159t161.5 -237.5t57 -284.5q3 -148 -57 -285.5t-161.5 -237.5t-241.5 -158.5t-291 -55.5q-151 -4 -292 55t-243 159.5t-162 238t-57 284.5q-3 147 57 284t162 237.5t243 159.5t292 56zM836 242q129 0 236 58t171 167.5t64 249.5
q0 211 -135 344t-336 133t-336 -133t-135 -344q0 -140 64 -249.5t171 -167.5t236 -58zM510 1608v264h260v-264h-260zM903 1608v264h260v-264h-260z" />
    <glyph glyph-name="multiply" unicode="&#xd7;" horiz-adv-x="1097" 
d="M289 203l-152 151l262 260l-262 260l152 152l260 -260l260 260l152 -152l-261 -260l261 -260l-152 -151l-260 262z" />
    <glyph glyph-name="Oslash" unicode="&#xd8;" horiz-adv-x="1669" 
d="M836 1454q151 3 291 -56t241.5 -159t161.5 -237.5t57 -284.5q3 -148 -57 -285.5t-161.5 -237.5t-241.5 -158.5t-291 -55.5q-151 -4 -292 55t-243 159.5t-162 238t-57 284.5q-3 147 57 284t162 237.5t243 159.5t292 56zM836 242q129 0 236 58t171 167.5t64 249.5
q0 211 -135 344t-336 133t-336 -133t-135 -344q0 -140 64 -249.5t171 -167.5t236 -58zM387 -88l-178 131l1075 1481l178 -131z" />
    <glyph glyph-name="Ugrave" unicode="&#xd9;" horiz-adv-x="1452" 
d="M125 1434h276v-848q0 -163 88 -256.5t238 -93.5t237 93t87 257v848h276v-854q0 -273 -162.5 -436.5t-437.5 -163.5q-277 0 -439.5 163.5t-162.5 436.5v854zM612 1599l-264 240v33h322l174 -273h-232z" />
    <glyph glyph-name="Uacute" unicode="&#xda;" horiz-adv-x="1452" 
d="M125 1434h276v-848q0 -163 88 -256.5t238 -93.5t237 93t87 257v848h276v-854q0 -273 -162.5 -436.5t-437.5 -163.5q-277 0 -439.5 163.5t-162.5 436.5v854zM612 1599l174 273h322v-33l-264 -240h-232z" />
    <glyph glyph-name="Ucircumflex" unicode="&#xdb;" horiz-adv-x="1452" 
d="M125 1434h276v-848q0 -163 88 -256.5t238 -93.5t237 93t87 257v848h276v-854q0 -273 -162.5 -436.5t-437.5 -163.5q-277 0 -439.5 163.5t-162.5 436.5v854zM385 1599v33l266 232h152l268 -232v-33h-254l-90 121l-90 -121h-252z" />
    <glyph glyph-name="Udieresis" unicode="&#xdc;" horiz-adv-x="1452" 
d="M125 1434h276v-848q0 -163 88 -256.5t238 -93.5t237 93t87 257v848h276v-854q0 -273 -162.5 -436.5t-437.5 -163.5q-277 0 -439.5 163.5t-162.5 436.5v854zM401 1608v264h261v-264h-261zM795 1608v264h260v-264h-260z" />
    <glyph glyph-name="Yacute" unicode="&#xdd;" horiz-adv-x="1417" 
d="M350 1434l359 -607l378 607h308l-547 -865v-569h-277v569l-548 865h327zM594 1599l174 273h322v-33l-265 -240h-231z" />
    <glyph glyph-name="Thorn" unicode="&#xde;" horiz-adv-x="1370" 
d="M416 281v-281h-277v1434h277v-273h399q112 0 202.5 -35t148.5 -95.5t89 -139.5t31 -168q0 -117 -52.5 -216t-161.5 -162.5t-257 -63.5h-399zM416 537h379q95 0 153 49.5t58 134.5q0 86 -58 135t-153 49h-379v-368z" />
    <glyph glyph-name="germandbls" unicode="&#xdf;" horiz-adv-x="1228" 
d="M705 207q83 0 134.5 63.5t51.5 180.5q0 126 -94.5 197t-247.5 71v205q85 8 139.5 53.5t54.5 118.5q0 62 -38.5 97.5t-102.5 35.5q-72 0 -109.5 -44t-37.5 -126v-1059h-262v719h-162v205h162v139q0 184 114.5 287.5t290.5 103.5t281.5 -87.5t105.5 -221.5
q0 -201 -176 -287q148 -32 241 -140.5t93 -273.5q0 -205 -117.5 -334.5t-302.5 -129.5q-120 0 -209 47l43 223q61 -43 148 -43z" />
    <glyph glyph-name="agrave" unicode="&#xe0;" horiz-adv-x="1089" 
d="M84 281q0 152 101.5 231.5t277.5 79.5q87 0 166 -21l86 -20v61q0 81 -54 127.5t-145 46.5q-86 0 -139.5 -42.5t-71.5 -118.5l-227 61q39 144 152.5 224.5t287.5 80.5q220 0 333.5 -100.5t113.5 -292.5v-598h-240v150q-95 -170 -322 -170q-131 0 -225 83t-94 218zM715 358
v9l-60 18q-98 29 -151 29q-73 0 -113.5 -30.5t-40.5 -86.5q0 -55 40.5 -86t117.5 -31q93 0 150 47.5t57 130.5zM406 1137l-265 239v33h322l174 -272h-231z" />
    <glyph glyph-name="aacute" unicode="&#xe1;" horiz-adv-x="1089" 
d="M84 281q0 152 101.5 231.5t277.5 79.5q87 0 166 -21l86 -20v61q0 81 -54 127.5t-145 46.5q-86 0 -139.5 -42.5t-71.5 -118.5l-227 61q39 144 152.5 224.5t287.5 80.5q220 0 333.5 -100.5t113.5 -292.5v-598h-240v150q-95 -170 -322 -170q-131 0 -225 83t-94 218zM715 358
v9l-60 18q-98 29 -151 29q-73 0 -113.5 -30.5t-40.5 -86.5q0 -55 40.5 -86t117.5 -31q93 0 150 47.5t57 130.5zM406 1137l174 272h321v-33l-264 -239h-231z" />
    <glyph glyph-name="acircumflex" unicode="&#xe2;" horiz-adv-x="1089" 
d="M84 281q0 152 101.5 231.5t277.5 79.5q87 0 166 -21l86 -20v61q0 81 -54 127.5t-145 46.5q-86 0 -139.5 -42.5t-71.5 -118.5l-227 61q39 144 152.5 224.5t287.5 80.5q220 0 333.5 -100.5t113.5 -292.5v-598h-240v150q-95 -170 -322 -170q-131 0 -225 83t-94 218zM715 358
v9l-60 18q-98 29 -151 29q-73 0 -113.5 -30.5t-40.5 -86.5q0 -55 40.5 -86t117.5 -31q93 0 150 47.5t57 130.5zM178 1137v32l266 232h152l268 -232v-32h-254l-90 120l-90 -120h-252z" />
    <glyph glyph-name="atilde" unicode="&#xe3;" horiz-adv-x="1089" 
d="M84 281q0 152 101.5 231.5t277.5 79.5q87 0 166 -21l86 -20v61q0 81 -54 127.5t-145 46.5q-86 0 -139.5 -42.5t-71.5 -118.5l-227 61q39 144 152.5 224.5t287.5 80.5q220 0 333.5 -100.5t113.5 -292.5v-598h-240v150q-95 -170 -322 -170q-131 0 -225 83t-94 218zM715 358
v9l-60 18q-98 29 -151 29q-73 0 -113.5 -30.5t-40.5 -86.5q0 -55 40.5 -86t117.5 -31q93 0 150 47.5t57 130.5zM483 1190q-39 39 -71 39q-27 0 -42.5 -17t-15.5 -47q0 -6 4 -26l-172 22l-2 14l-1.5 10.5t-0.5 4.5q0 92 58 151.5t151 59.5q57 0 91.5 -15.5t74.5 -50.5
q40 -37 72 -37q27 0 43 16.5t16 45.5q0 9 -4 29l172 -25q2 -6 2 -29q0 -93 -58 -152t-151 -59q-57 0 -91.5 15.5t-74.5 50.5z" />
    <glyph glyph-name="adieresis" unicode="&#xe4;" horiz-adv-x="1089" 
d="M84 281q0 152 101.5 231.5t277.5 79.5q87 0 166 -21l86 -20v61q0 81 -54 127.5t-145 46.5q-86 0 -139.5 -42.5t-71.5 -118.5l-227 61q39 144 152.5 224.5t287.5 80.5q220 0 333.5 -100.5t113.5 -292.5v-598h-240v150q-95 -170 -322 -170q-131 0 -225 83t-94 218zM715 358
v9l-60 18q-98 29 -151 29q-73 0 -113.5 -30.5t-40.5 -86.5q0 -55 40.5 -86t117.5 -31q93 0 150 47.5t57 130.5zM195 1145v264h260v-264h-260zM588 1145v264h260v-264h-260z" />
    <glyph glyph-name="aring" unicode="&#xe5;" horiz-adv-x="1089" 
d="M84 281q0 152 101.5 231.5t277.5 79.5q87 0 166 -21l86 -20v61q0 81 -54 127.5t-145 46.5q-86 0 -139.5 -42.5t-71.5 -118.5l-227 61q39 144 152.5 224.5t287.5 80.5q220 0 333.5 -100.5t113.5 -292.5v-598h-240v150q-95 -170 -322 -170q-131 0 -225 83t-94 218zM715 358
v9l-60 18q-98 29 -151 29q-73 0 -113.5 -30.5t-40.5 -86.5q0 -55 40.5 -86t117.5 -31q93 0 150 47.5t57 130.5zM319 1284q0 85 58 143t143 58t143 -58t58 -143t-58 -143t-143 -58q-84 0 -142.5 59.5t-58.5 141.5zM586 1284q0 26 -20 46t-46 20t-45.5 -20t-19.5 -46
t19.5 -45.5t45.5 -19.5t46 19.5t20 45.5z" />
    <glyph glyph-name="ae" unicode="&#xe6;" horiz-adv-x="1746" 
d="M84 281q0 150 100 228.5t277 78.5h264v20q0 82 -57.5 130t-155.5 48q-89 0 -145 -42t-70 -115l-217 59q36 148 148.5 225.5t285.5 77.5q252 0 365 -149q57 72 142 110.5t185 38.5q202 0 326.5 -119t124.5 -317q0 -63 -12 -119h-660q1 -107 74.5 -170t181.5 -63
q176 0 225 168l224 -88q-52 -143 -168.5 -223t-284.5 -80q-137 0 -238.5 58.5t-146.5 158.5q-133 -217 -422 -217q-148 0 -247 85.5t-99 215.5zM985 610h416l2 8q0 73 -54.5 117.5t-142.5 44.5q-81 0 -142 -46t-79 -124zM725 375v49h-213q-76 0 -121 -32t-45 -91
q0 -56 39.5 -86.5t112.5 -30.5q104 0 165.5 54t61.5 137z" />
    <glyph glyph-name="ccedilla" unicode="&#xe7;" horiz-adv-x="1146" 
d="M592 211q114 0 180 65.5t80 174.5l242 -84q-44 -189 -173.5 -288t-322.5 -99q-238 0 -383 141t-145 371q0 143 69 258t183 178t249 63q186 0 312.5 -93t158.5 -257l-231 -78q-13 92 -76.5 145.5t-156.5 53.5q-63 0 -119.5 -30.5t-94.5 -93.5t-38 -146q0 -126 79 -203.5
t187 -77.5zM532 -98q40 37 93 37q73 0 118 -42.5t45 -115.5q0 -74 -49.5 -120t-128.5 -46q-77 0 -125.5 33.5t-60.5 99.5l123 31q2 -23 18.5 -38t42.5 -15t43 15t17 40t-15.5 40t-44.5 15q-18 0 -34.5 -9t-24.5 -22l-121 23q28 109 41 205h123q-24 -74 -60 -131z" />
    <glyph glyph-name="egrave" unicode="&#xe8;" horiz-adv-x="1093" 
d="M813 371l223 -88q-52 -143 -168 -223t-284 -80q-227 0 -370.5 141.5t-143.5 370.5q0 138 60 251.5t171.5 180.5t251.5 67q202 0 326.5 -119t124.5 -317q0 -59 -13 -119h-659q1 -107 74.5 -169t181.5 -62q179 0 225 166zM332 610h416l2 8q0 73 -54.5 117.5t-142.5 44.5
q-81 0 -142 -46t-79 -124zM438 1137l-264 239v33h322l174 -272h-232z" />
    <glyph glyph-name="eacute" unicode="&#xe9;" horiz-adv-x="1093" 
d="M813 371l223 -88q-52 -143 -168 -223t-284 -80q-227 0 -370.5 141.5t-143.5 370.5q0 138 60 251.5t171.5 180.5t251.5 67q202 0 326.5 -119t124.5 -317q0 -59 -13 -119h-659q1 -107 74.5 -169t181.5 -62q179 0 225 166zM332 610h416l2 8q0 73 -54.5 117.5t-142.5 44.5
q-81 0 -142 -46t-79 -124zM438 1137l174 272h322v-33l-264 -239h-232z" />
    <glyph glyph-name="ecircumflex" unicode="&#xea;" horiz-adv-x="1093" 
d="M813 371l223 -88q-52 -143 -168 -223t-284 -80q-227 0 -370.5 141.5t-143.5 370.5q0 138 60 251.5t171.5 180.5t251.5 67q202 0 326.5 -119t124.5 -317q0 -59 -13 -119h-659q1 -107 74.5 -169t181.5 -62q179 0 225 166zM332 610h416l2 8q0 73 -54.5 117.5t-142.5 44.5
q-81 0 -142 -46t-79 -124zM211 1137v32l266 232h152l268 -232v-32h-254l-90 120l-90 -120h-252z" />
    <glyph glyph-name="edieresis" unicode="&#xeb;" horiz-adv-x="1093" 
d="M813 371l223 -88q-52 -143 -168 -223t-284 -80q-227 0 -370.5 141.5t-143.5 370.5q0 138 60 251.5t171.5 180.5t251.5 67q202 0 326.5 -119t124.5 -317q0 -59 -13 -119h-659q1 -107 74.5 -169t181.5 -62q179 0 225 166zM332 610h416l2 8q0 73 -54.5 117.5t-142.5 44.5
q-81 0 -142 -46t-79 -124zM227 1145v264h260v-264h-260zM621 1145v264h260v-264h-260z" />
    <glyph glyph-name="igrave" unicode="&#xec;" horiz-adv-x="512" 
d="M125 971h262v-971h-262v971zM141 1137l-264 239v33h322l174 -272h-232z" />
    <glyph glyph-name="iacute" unicode="&#xed;" horiz-adv-x="512" 
d="M125 971h262v-971h-262v971zM141 1137l174 272h322v-33l-264 -239h-232z" />
    <glyph glyph-name="icircumflex" unicode="&#xee;" horiz-adv-x="512" 
d="M125 971h262v-971h-262v971zM-86 1137v32l266 232h152l268 -232v-32h-254l-90 120l-90 -120h-252z" />
    <glyph glyph-name="idieresis" unicode="&#xef;" horiz-adv-x="512" 
d="M125 971h262v-971h-262v971zM-72 1145v264h260v-264h-260zM322 1145v264h260v-264h-260z" />
    <glyph glyph-name="eth" unicode="&#xf0;" horiz-adv-x="1144" 
d="M70 481q0 141 61 257.5t171.5 184.5t248.5 68q144 0 227 -80q-53 115 -131 199l-55 -63l-131 112l57 66q-20 16 -55 39l-41 30l137 168l100 -73l70 77l131 -112l-72 -82q287 -304 287 -733q0 -256 -135 -407.5t-369 -151.5q-145 0 -260 65.5t-178 180t-63 255.5zM817 481
q0 122 -68.5 198.5t-177.5 76.5t-177 -76.5t-68 -198.5q0 -118 68 -192t177 -74t177.5 74t68.5 192z" />
    <glyph glyph-name="ntilde" unicode="&#xf1;" horiz-adv-x="1157" 
d="M387 0h-262v971h262v-127q46 72 123.5 109.5t171.5 37.5q160 0 255 -95t95 -261v-635h-262v563q0 100 -48.5 157.5t-133.5 57.5q-90 0 -145.5 -64t-55.5 -177v-537zM584 1190q-39 39 -72 39q-27 0 -42 -17t-15 -47q0 -6 4 -26l-172 22l-2 14l-1.5 10.5t-0.5 4.5
q0 92 58 151.5t151 59.5q57 0 91 -15.5t74 -50.5q40 -37 72 -37q27 0 43 16.5t16 45.5q0 9 -4 29l172 -25q2 -6 2 -29q0 -93 -57.5 -152t-150.5 -59q-57 0 -91.5 15.5t-74.5 50.5z" />
    <glyph glyph-name="ograve" unicode="&#xf2;" horiz-adv-x="1155" 
d="M70 485q0 219 143.5 362.5t364.5 143.5t364 -143.5t143 -362.5q0 -217 -144 -361t-363 -144t-363.5 144t-144.5 361zM829 485q0 121 -70.5 196t-180.5 75t-181 -75.5t-71 -195.5t71 -195t181 -75t180.5 75t70.5 195zM463 1137l-264 239v33h321l174 -272h-231z" />
    <glyph glyph-name="oacute" unicode="&#xf3;" horiz-adv-x="1155" 
d="M70 485q0 219 143.5 362.5t364.5 143.5t364 -143.5t143 -362.5q0 -217 -144 -361t-363 -144t-363.5 144t-144.5 361zM829 485q0 121 -70.5 196t-180.5 75t-181 -75.5t-71 -195.5t71 -195t181 -75t180.5 75t70.5 195zM463 1137l174 272h321v-33l-264 -239h-231z" />
    <glyph glyph-name="ocircumflex" unicode="&#xf4;" horiz-adv-x="1155" 
d="M70 485q0 219 143.5 362.5t364.5 143.5t364 -143.5t143 -362.5q0 -217 -144 -361t-363 -144t-363.5 144t-144.5 361zM829 485q0 121 -70.5 196t-180.5 75t-181 -75.5t-71 -195.5t71 -195t181 -75t180.5 75t70.5 195zM236 1137v32l266 232h151l269 -232v-32h-254l-90 120
l-91 -120h-251z" />
    <glyph glyph-name="otilde" unicode="&#xf5;" horiz-adv-x="1155" 
d="M70 485q0 219 143.5 362.5t364.5 143.5t364 -143.5t143 -362.5q0 -217 -144 -361t-363 -144t-363.5 144t-144.5 361zM829 485q0 121 -70.5 196t-180.5 75t-181 -75.5t-71 -195.5t71 -195t181 -75t180.5 75t70.5 195zM541 1190q-39 39 -72 39q-27 0 -42 -17t-15 -47
q0 -6 4 -26l-172 22l-2 14l-1.5 10.5t-0.5 4.5q0 92 58 151.5t151 59.5q57 0 91 -15.5t74 -50.5q40 -37 72 -37q27 0 43 16.5t16 45.5q0 9 -4 29l172 -25q2 -6 2 -29q0 -93 -57.5 -152t-150.5 -59q-57 0 -91.5 15.5t-74.5 50.5z" />
    <glyph glyph-name="odieresis" unicode="&#xf6;" horiz-adv-x="1155" 
d="M70 485q0 219 143.5 362.5t364.5 143.5t364 -143.5t143 -362.5q0 -217 -144 -361t-363 -144t-363.5 144t-144.5 361zM829 485q0 121 -70.5 196t-180.5 75t-181 -75.5t-71 -195.5t71 -195t181 -75t180.5 75t70.5 195zM252 1145v264h260v-264h-260zM645 1145v264h260v-264
h-260z" />
    <glyph glyph-name="divide" unicode="&#xf7;" horiz-adv-x="1167" 
d="M471 829v224h225v-224h-225zM109 508v213h950v-213h-950zM471 176v223h225v-223h-225z" />
    <glyph glyph-name="oslash" unicode="&#xf8;" horiz-adv-x="1155" 
d="M1085 485q0 -217 -144 -361t-363 -144q-12 0 -66 4l-43 -117l-207 74l41 112q-110 66 -171.5 179.5t-61.5 252.5q0 219 143.5 362.5t364.5 143.5q5 0 67 -4l43 117l207 -74l-41 -112q109 -66 170 -179.5t61 -253.5zM389 285l176 481q-109 -5 -178.5 -82.5t-69.5 -198.5
q0 -122 72 -200zM840 485q0 123 -72 201l-176 -481q110 6 179 83t69 197z" />
    <glyph glyph-name="ugrave" unicode="&#xf9;" horiz-adv-x="1171" 
d="M786 971h261v-971h-261v143q-39 -76 -116 -119.5t-178 -43.5q-170 0 -268.5 96.5t-98.5 277.5v617h262v-551q0 -104 46 -159.5t132 -55.5q104 0 162.5 71t58.5 195v500zM473 1137l-264 239v33h321l175 -272h-232z" />
    <glyph glyph-name="uacute" unicode="&#xfa;" horiz-adv-x="1171" 
d="M786 971h261v-971h-261v143q-39 -76 -116 -119.5t-178 -43.5q-170 0 -268.5 96.5t-98.5 277.5v617h262v-551q0 -104 46 -159.5t132 -55.5q104 0 162.5 71t58.5 195v500zM473 1137l174 272h322v-33l-264 -239h-232z" />
    <glyph glyph-name="ucircumflex" unicode="&#xfb;" horiz-adv-x="1171" 
d="M786 971h261v-971h-261v143q-39 -76 -116 -119.5t-178 -43.5q-170 0 -268.5 96.5t-98.5 277.5v617h262v-551q0 -104 46 -159.5t132 -55.5q104 0 162.5 71t58.5 195v500zM246 1137v32l266 232h152l268 -232v-32h-254l-90 120l-90 -120h-252z" />
    <glyph glyph-name="udieresis" unicode="&#xfc;" horiz-adv-x="1171" 
d="M786 971h261v-971h-261v143q-39 -76 -116 -119.5t-178 -43.5q-170 0 -268.5 96.5t-98.5 277.5v617h262v-551q0 -104 46 -159.5t132 -55.5q104 0 162.5 71t58.5 195v500zM262 1145v264h260v-264h-260zM655 1145v264h260v-264h-260z" />
    <glyph glyph-name="yacute" unicode="&#xfd;" horiz-adv-x="1091" 
d="M803 971h266l-661 -1377h-267l260 543l-389 834h275l250 -553zM428 1137l174 272h322v-33l-265 -239h-231z" />
    <glyph glyph-name="thorn" unicode="&#xfe;" horiz-adv-x="1224" 
d="M125 1434h262v-609q50 76 132 121t179 45q199 0 328 -141.5t129 -368.5q0 -226 -132 -363.5t-339 -137.5q-99 0 -179.5 38.5t-123.5 106.5v-531h-256v1840zM635 203q111 0 184.5 76.5t73.5 201.5q0 128 -73.5 206.5t-184.5 78.5q-109 0 -183.5 -79t-74.5 -206
q0 -126 74.5 -202t183.5 -76z" />
    <glyph glyph-name="ydieresis" unicode="&#xff;" horiz-adv-x="1091" 
d="M803 971h266l-661 -1377h-267l260 543l-389 834h275l250 -553zM217 1145v264h260v-264h-260zM610 1145v264h260v-264h-260z" />
    <glyph glyph-name="Amacron" unicode="&#x100;" horiz-adv-x="1589" 
d="M23 0l577 1434h391l576 -1434h-305l-125 324h-684l-123 -324h-307zM549 573h493l-247 641zM522 1815h545v-185h-545v185z" />
    <glyph glyph-name="amacron" unicode="&#x101;" horiz-adv-x="1089" 
d="M84 281q0 152 101.5 231.5t277.5 79.5q87 0 166 -21l86 -20v61q0 81 -54 127.5t-145 46.5q-86 0 -139.5 -42.5t-71.5 -118.5l-227 61q39 144 152.5 224.5t287.5 80.5q220 0 333.5 -100.5t113.5 -292.5v-598h-240v150q-95 -170 -322 -170q-131 0 -225 83t-94 218zM715 358
v9l-60 18q-98 29 -151 29q-73 0 -113.5 -30.5t-40.5 -86.5q0 -55 40.5 -86t117.5 -31q93 0 150 47.5t57 130.5zM248 1352h545v-185h-545v185z" />
    <glyph glyph-name="Abreve" unicode="&#x102;" horiz-adv-x="1589" 
d="M23 0l577 1434h391l576 -1434h-305l-125 324h-684l-123 -324h-307zM549 573h493l-247 641zM1061 1827q0 -110 -75 -173t-191 -63t-190.5 63t-74.5 173q0 22 2 28h177l-2 -18q0 -35 25 -58.5t63 -23.5q40 0 64 23t24 59l-2 18h178q2 -6 2 -28z" />
    <glyph glyph-name="abreve" unicode="&#x103;" horiz-adv-x="1089" 
d="M84 281q0 152 101.5 231.5t277.5 79.5q87 0 166 -21l86 -20v61q0 81 -54 127.5t-145 46.5q-86 0 -139.5 -42.5t-71.5 -118.5l-227 61q39 144 152.5 224.5t287.5 80.5q220 0 333.5 -100.5t113.5 -292.5v-598h-240v150q-95 -170 -322 -170q-131 0 -225 83t-94 218zM715 358
v9l-60 18q-98 29 -151 29q-73 0 -113.5 -30.5t-40.5 -86.5q0 -55 40.5 -86t117.5 -31q93 0 150 47.5t57 130.5zM786 1364q0 -110 -75 -173t-191 -63t-190 63t-74 173q0 23 2 29h176l-2 -19q0 -35 25 -58.5t63 -23.5q40 0 64 23t24 59l-2 19h178q2 -6 2 -29z" />
    <glyph glyph-name="Aogonek" unicode="&#x104;" horiz-adv-x="1589" 
d="M23 0l577 1434h391l576 -1434h-305l-125 324h-684l-123 -324h-307zM549 573h493l-247 641zM1475 -395q-87 0 -141 50.5t-54 129.5q0 61 37 118t108 97h142q-57 -43 -82 -75t-25 -68q0 -29 17.5 -45.5t46.5 -16.5q25 0 63 23l74 -160q-89 -53 -186 -53z" />
    <glyph glyph-name="aogonek" unicode="&#x105;" horiz-adv-x="1089" 
d="M84 281q0 152 101.5 231.5t277.5 79.5q87 0 166 -21l86 -20v61q0 81 -54 127.5t-145 46.5q-86 0 -139.5 -42.5t-71.5 -118.5l-227 61q39 144 152.5 224.5t287.5 80.5q220 0 333.5 -100.5t113.5 -292.5v-598h-240v150q-95 -170 -322 -170q-131 0 -225 83t-94 218zM715 358
v9l-60 18q-98 29 -151 29q-73 0 -113.5 -30.5t-40.5 -86.5q0 -55 40.5 -86t117.5 -31q93 0 150 47.5t57 130.5zM872 -395q-87 0 -140.5 50.5t-53.5 129.5q0 61 37 118t108 97h142q-57 -43 -82 -75t-25 -68q0 -29 17.5 -45.5t46.5 -16.5q25 0 63 23l74 -160q-89 -53 -187 -53
z" />
    <glyph glyph-name="Cacute" unicode="&#x106;" horiz-adv-x="1617" 
d="M365 717q0 -221 130 -353.5t328 -132.5q196 0 319.5 114.5t160.5 307.5l251 -100q-59 -262 -249 -418q-189 -155 -484 -155q-165 0 -304 56t-234 154t-148 234t-53 293q-2 152 55 289.5t155.5 236.5t237 156.5t291.5 54.5q137 0 252 -37.5t196.5 -103.5t136 -151.5
t79.5 -186.5l-254 -113q-31 158 -140 250t-272 92q-195 0 -324.5 -134.5t-129.5 -352.5zM694 1599l174 273h322v-33l-264 -240h-232z" />
    <glyph glyph-name="cacute" unicode="&#x107;" horiz-adv-x="1146" 
d="M592 211q114 0 180 65.5t80 174.5l242 -84q-44 -189 -173.5 -288t-322.5 -99q-238 0 -383 141t-145 371q0 143 69 258t183 178t249 63q186 0 312.5 -93t158.5 -257l-231 -78q-13 92 -76.5 145.5t-156.5 53.5q-63 0 -119.5 -30.5t-94.5 -93.5t-38 -146q0 -126 79 -203.5
t187 -77.5zM457 1137l174 272h321v-33l-264 -239h-231z" />
    <glyph glyph-name="Ccircumflex" unicode="&#x108;" horiz-adv-x="1617" 
d="M365 717q0 -221 130 -353.5t328 -132.5q196 0 319.5 114.5t160.5 307.5l251 -100q-59 -262 -249 -418q-189 -155 -484 -155q-165 0 -304 56t-234 154t-148 234t-53 293q-2 152 55 289.5t155.5 236.5t237 156.5t291.5 54.5q137 0 252 -37.5t196.5 -103.5t136 -151.5
t79.5 -186.5l-254 -113q-31 158 -140 250t-272 92q-195 0 -324.5 -134.5t-129.5 -352.5zM467 1599v33l266 232h152l268 -232v-33h-254l-90 121l-90 -121h-252z" />
    <glyph glyph-name="ccircumflex" unicode="&#x109;" horiz-adv-x="1146" 
d="M592 211q114 0 180 65.5t80 174.5l242 -84q-44 -189 -173.5 -288t-322.5 -99q-238 0 -383 141t-145 371q0 143 69 258t183 178t249 63q186 0 312.5 -93t158.5 -257l-231 -78q-13 92 -76.5 145.5t-156.5 53.5q-63 0 -119.5 -30.5t-94.5 -93.5t-38 -146q0 -126 79 -203.5
t187 -77.5zM229 1137v32l267 232h151l268 -232v-32h-253l-91 120l-90 -120h-252z" />
    <glyph glyph-name="Cdotaccent" unicode="&#x10a;" horiz-adv-x="1617" 
d="M365 717q0 -221 130 -353.5t328 -132.5q196 0 319.5 114.5t160.5 307.5l251 -100q-59 -262 -249 -418q-189 -155 -484 -155q-165 0 -304 56t-234 154t-148 234t-53 293q-2 152 55 289.5t155.5 236.5t237 156.5t291.5 54.5q137 0 252 -37.5t196.5 -103.5t136 -151.5
t79.5 -186.5l-254 -113q-31 158 -140 250t-272 92q-195 0 -324.5 -134.5t-129.5 -352.5zM678 1876h264v-266h-264v266z" />
    <glyph glyph-name="cdotaccent" unicode="&#x10b;" horiz-adv-x="1146" 
d="M592 211q114 0 180 65.5t80 174.5l242 -84q-44 -189 -173.5 -288t-322.5 -99q-238 0 -383 141t-145 371q0 143 69 258t183 178t249 63q186 0 312.5 -93t158.5 -257l-231 -78q-13 92 -76.5 145.5t-156.5 53.5q-63 0 -119.5 -30.5t-94.5 -93.5t-38 -146q0 -126 79 -203.5
t187 -77.5zM432 1116v277h281v-277h-281z" />
    <glyph glyph-name="Ccaron" unicode="&#x10c;" horiz-adv-x="1617" 
d="M365 717q0 -221 130 -353.5t328 -132.5q196 0 319.5 114.5t160.5 307.5l251 -100q-59 -262 -249 -418q-189 -155 -484 -155q-165 0 -304 56t-234 154t-148 234t-53 293q-2 152 55 289.5t155.5 236.5t237 156.5t291.5 54.5q137 0 252 -37.5t196.5 -103.5t136 -151.5
t79.5 -186.5l-254 -113q-31 158 -140 250t-272 92q-195 0 -324.5 -134.5t-129.5 -352.5zM733 1599l-266 232v33h252l90 -121l90 121h254v-33l-268 -232h-152z" />
    <glyph glyph-name="ccaron" unicode="&#x10d;" horiz-adv-x="1146" 
d="M592 211q114 0 180 65.5t80 174.5l242 -84q-44 -189 -173.5 -288t-322.5 -99q-238 0 -383 141t-145 371q0 143 69 258t183 178t249 63q186 0 312.5 -93t158.5 -257l-231 -78q-13 92 -76.5 145.5t-156.5 53.5q-63 0 -119.5 -30.5t-94.5 -93.5t-38 -146q0 -126 79 -203.5
t187 -77.5zM496 1137l-267 231v33h252l90 -121l91 121h253v-33l-268 -231h-151z" />
    <glyph glyph-name="Dcaron" unicode="&#x10e;" horiz-adv-x="1517" 
d="M139 0v1434h553q233 0 402.5 -91.5t255.5 -254.5t86 -381q0 -153 -50.5 -282.5t-144 -224t-233.5 -147.5t-310 -53h-559zM416 1184v-932h276q224 0 345.5 127.5t121.5 327.5q0 223 -121.5 350t-349.5 127h-272zM526 1599l-266 232v33h252l90 -121l90 121h254v-33
l-268 -232h-152z" />
    <glyph glyph-name="dcaron" unicode="&#x10f;" horiz-adv-x="1509" 
d="M70 481q0 227 129.5 368.5t330.5 141.5q101 0 182 -44.5t126 -121.5v609h262v-1434h-252v139q-48 -76 -128.5 -117.5t-182.5 -41.5q-207 0 -337 138t-130 363zM848 481q0 127 -74.5 206t-183.5 79q-111 0 -184.5 -78.5t-73.5 -206.5q0 -126 73.5 -202t184.5 -76
q109 0 183.5 76t74.5 202zM1208 938v127h78q43 0 66.5 18.5t23.5 49.5t-21.5 48t-58.5 17h-73v236h286v-291q0 -100 -63 -152.5t-162 -52.5h-76z" />
    <glyph glyph-name="Dcroat" unicode="&#x110;" horiz-adv-x="1517" 
d="M139 0v1434h553q233 0 402.5 -91.5t255.5 -254.5t86 -381q0 -153 -50.5 -282.5t-144 -224t-233.5 -147.5t-310 -53h-559zM416 1184v-932h276q224 0 345.5 127.5t121.5 327.5q0 223 -121.5 350t-349.5 127h-272zM-12 827h848v-221h-848v221z" />
    <glyph glyph-name="dslash" unicode="&#x111;" horiz-adv-x="1224" 
d="M70 481q0 227 129.5 368.5t330.5 141.5q101 0 182 -44.5t126 -121.5v609h262v-1434h-252v139q-48 -76 -128.5 -117.5t-182.5 -41.5q-207 0 -337 138t-130 363zM848 481q0 127 -74.5 206t-183.5 79q-111 0 -184.5 -78.5t-73.5 -206.5q0 -126 73.5 -202t184.5 -76
q109 0 183.5 76t74.5 202zM563 1321h662v-197h-662v197z" />
    <glyph glyph-name="Emacron" unicode="&#x112;" horiz-adv-x="1327" 
d="M139 1434h1078v-256h-801v-312h739v-256h-739v-354h821v-256h-1098v1434zM406 1815h544v-185h-544v185z" />
    <glyph glyph-name="emacron" unicode="&#x113;" horiz-adv-x="1093" 
d="M813 371l223 -88q-52 -143 -168 -223t-284 -80q-227 0 -370.5 141.5t-143.5 370.5q0 138 60 251.5t171.5 180.5t251.5 67q202 0 326.5 -119t124.5 -317q0 -59 -13 -119h-659q1 -107 74.5 -169t181.5 -62q179 0 225 166zM332 610h416l2 8q0 73 -54.5 117.5t-142.5 44.5
q-81 0 -142 -46t-79 -124zM281 1352h544v-185h-544v185z" />
    <glyph glyph-name="Ebreve" unicode="&#x114;" horiz-adv-x="1327" 
d="M139 1434h1078v-256h-801v-312h739v-256h-739v-354h821v-256h-1098v1434zM944 1827q0 -110 -75 -173t-191 -63t-190 63t-74 173q0 22 2 28h176l-2 -18q0 -35 25 -58.5t63 -23.5q40 0 64 23t24 59l-2 18h178q2 -6 2 -28z" />
    <glyph glyph-name="ebreve" unicode="&#x115;" horiz-adv-x="1093" 
d="M813 371l223 -88q-52 -143 -168 -223t-284 -80q-227 0 -370.5 141.5t-143.5 370.5q0 138 60 251.5t171.5 180.5t251.5 67q202 0 326.5 -119t124.5 -317q0 -59 -13 -119h-659q1 -107 74.5 -169t181.5 -62q179 0 225 166zM332 610h416l2 8q0 73 -54.5 117.5t-142.5 44.5
q-81 0 -142 -46t-79 -124zM819 1364q0 -110 -75 -173t-191 -63t-190 63t-74 173q0 23 2 29h176l-2 -19q0 -35 25 -58.5t63 -23.5q40 0 64 23t24 59l-2 19h178q2 -6 2 -29z" />
    <glyph glyph-name="Edotaccent" unicode="&#x116;" horiz-adv-x="1327" 
d="M139 1434h1078v-256h-801v-312h739v-256h-739v-354h821v-256h-1098v1434zM547 1876h264v-266h-264v266z" />
    <glyph glyph-name="edotaccent" unicode="&#x117;" horiz-adv-x="1093" 
d="M813 371l223 -88q-52 -143 -168 -223t-284 -80q-227 0 -370.5 141.5t-143.5 370.5q0 138 60 251.5t171.5 180.5t251.5 67q202 0 326.5 -119t124.5 -317q0 -59 -13 -119h-659q1 -107 74.5 -169t181.5 -62q179 0 225 166zM332 610h416l2 8q0 73 -54.5 117.5t-142.5 44.5
q-81 0 -142 -46t-79 -124zM414 1116v277h280v-277h-280z" />
    <glyph glyph-name="Eogonek" unicode="&#x118;" horiz-adv-x="1327" 
d="M139 1434h1078v-256h-801v-312h739v-256h-739v-354h821v-256h-1098v1434zM1145 -395q-87 0 -141 50.5t-54 129.5q0 61 37.5 117.5t108.5 97.5h141q-57 -43 -82 -75t-25 -68q0 -29 17.5 -45.5t46.5 -16.5q25 0 63 23l74 -160q-89 -53 -186 -53z" />
    <glyph glyph-name="eogonek" unicode="&#x119;" horiz-adv-x="1093" 
d="M813 371l223 -88q-52 -143 -168 -223t-284 -80q-227 0 -370.5 141.5t-143.5 370.5q0 138 60 251.5t171.5 180.5t251.5 67q202 0 326.5 -119t124.5 -317q0 -59 -13 -119h-659q1 -107 74.5 -169t181.5 -62q179 0 225 166zM332 610h416l2 8q0 73 -54.5 117.5t-142.5 44.5
q-81 0 -142 -46t-79 -124zM621 -395q-87 0 -141 50.5t-54 129.5q0 61 37 118t108 97h142q-57 -43 -82 -75t-25 -68q0 -29 17.5 -45.5t46.5 -16.5q25 0 63 23l74 -160q-89 -53 -186 -53z" />
    <glyph glyph-name="Ecaron" unicode="&#x11a;" horiz-adv-x="1327" 
d="M139 1434h1078v-256h-801v-312h739v-256h-739v-354h821v-256h-1098v1434zM602 1599l-266 232v33h252l90 -121l90 121h254v-33l-268 -232h-152z" />
    <glyph glyph-name="ecaron" unicode="&#x11b;" horiz-adv-x="1093" 
d="M813 371l223 -88q-52 -143 -168 -223t-284 -80q-227 0 -370.5 141.5t-143.5 370.5q0 138 60 251.5t171.5 180.5t251.5 67q202 0 326.5 -119t124.5 -317q0 -59 -13 -119h-659q1 -107 74.5 -169t181.5 -62q179 0 225 166zM332 610h416l2 8q0 73 -54.5 117.5t-142.5 44.5
q-81 0 -142 -46t-79 -124zM477 1137l-266 231v33h252l90 -121l90 121h254v-33l-268 -231h-152z" />
    <glyph glyph-name="Gcircumflex" unicode="&#x11c;" horiz-adv-x="1654" 
d="M795 -20q-197 -3 -361.5 91.5t-259.5 265t-92 380.5q-4 202 95 373.5t270 269.5t372 94q278 0 456.5 -134t237.5 -366l-270 -86q-32 158 -143 244t-277 86q-194 0 -326 -135.5t-132 -345.5q0 -214 126.5 -347.5t327.5 -133.5q82 0 151 27t113.5 70t72.5 90.5t38 94.5
h-580v240h930v-758h-239v297q-67 -152 -196 -234.5t-314 -82.5zM477 1599v33l266 232h152l268 -232v-33h-254l-90 121l-90 -121h-252z" />
    <glyph glyph-name="gcircumflex" unicode="&#x11d;" horiz-adv-x="1208" 
d="M121 -133l231 102q23 -85 84 -130.5t152 -45.5q116 0 175.5 72t59.5 203v92q-89 -154 -311 -154q-190 0 -316 135t-126 346q0 112 36.5 207.5t99 160t146.5 100.5t178 36q198 0 293 -135v115h260v-883q0 -239 -129.5 -376.5t-371.5 -137.5q-359 0 -461 293zM831 494
q0 122 -70.5 197t-180.5 75q-108 0 -178 -76t-70 -203q0 -120 70.5 -191t181.5 -71q106 0 176.5 76t70.5 193zM260 1137v32l266 232h152l268 -232v-32h-254l-90 120l-90 -120h-252z" />
    <glyph glyph-name="Gbreve" unicode="&#x11e;" horiz-adv-x="1654" 
d="M795 -20q-197 -3 -361.5 91.5t-259.5 265t-92 380.5q-4 202 95 373.5t270 269.5t372 94q278 0 456.5 -134t237.5 -366l-270 -86q-32 158 -143 244t-277 86q-194 0 -326 -135.5t-132 -345.5q0 -214 126.5 -347.5t327.5 -133.5q82 0 151 27t113.5 70t72.5 90.5t38 94.5
h-580v240h930v-758h-239v297q-67 -152 -196 -234.5t-314 -82.5zM1085 1827q0 -110 -75 -173t-191 -63t-190 63t-74 173q0 22 2 28h176l-2 -18q0 -35 25 -58.5t63 -23.5q40 0 64 23t24 59l-2 18h178q2 -6 2 -28z" />
    <glyph glyph-name="gbreve" unicode="&#x11f;" horiz-adv-x="1208" 
d="M121 -133l231 102q23 -85 84 -130.5t152 -45.5q116 0 175.5 72t59.5 203v92q-89 -154 -311 -154q-190 0 -316 135t-126 346q0 112 36.5 207.5t99 160t146.5 100.5t178 36q198 0 293 -135v115h260v-883q0 -239 -129.5 -376.5t-371.5 -137.5q-359 0 -461 293zM831 494
q0 122 -70.5 197t-180.5 75q-108 0 -178 -76t-70 -203q0 -120 70.5 -191t181.5 -71q106 0 176.5 76t70.5 193zM868 1364q0 -110 -75 -173t-191 -63t-190 63t-74 173q0 23 2 29h176l-2 -19q0 -35 25 -58.5t63 -23.5q40 0 64 23t24 59l-2 19h178q2 -6 2 -29z" />
    <glyph glyph-name="Gdotaccent" unicode="&#x120;" horiz-adv-x="1654" 
d="M795 -20q-197 -3 -361.5 91.5t-259.5 265t-92 380.5q-4 202 95 373.5t270 269.5t372 94q278 0 456.5 -134t237.5 -366l-270 -86q-32 158 -143 244t-277 86q-194 0 -326 -135.5t-132 -345.5q0 -214 126.5 -347.5t327.5 -133.5q82 0 151 27t113.5 70t72.5 90.5t38 94.5
h-580v240h930v-758h-239v297q-67 -152 -196 -234.5t-314 -82.5zM688 1876h264v-266h-264v266z" />
    <glyph glyph-name="gdotaccent" unicode="&#x121;" horiz-adv-x="1208" 
d="M121 -133l231 102q23 -85 84 -130.5t152 -45.5q116 0 175.5 72t59.5 203v92q-89 -154 -311 -154q-190 0 -316 135t-126 346q0 112 36.5 207.5t99 160t146.5 100.5t178 36q198 0 293 -135v115h260v-883q0 -239 -129.5 -376.5t-371.5 -137.5q-359 0 -461 293zM831 494
q0 122 -70.5 197t-180.5 75q-108 0 -178 -76t-70 -203q0 -120 70.5 -191t181.5 -71q106 0 176.5 76t70.5 193zM463 1116v277h280v-277h-280z" />
    <glyph glyph-name="Gcommaaccent" unicode="&#x122;" horiz-adv-x="1654" 
d="M795 -20q-197 -3 -361.5 91.5t-259.5 265t-92 380.5q-4 202 95 373.5t270 269.5t372 94q278 0 456.5 -134t237.5 -366l-270 -86q-32 158 -143 244t-277 86q-194 0 -326 -135.5t-132 -345.5q0 -214 126.5 -347.5t327.5 -133.5q82 0 151 27t113.5 70t72.5 90.5t38 94.5
h-580v240h930v-758h-239v297q-67 -152 -196 -234.5t-314 -82.5zM600 -580l29 129q47 -18 100 -18q84 0 84 66q0 65 -80 65h-74v232h285v-297q0 -98 -57.5 -148.5t-147.5 -50.5q-68 0 -139 22z" />
    <glyph glyph-name="gcommaaccent" unicode="&#x123;" horiz-adv-x="1208" 
d="M121 -133l231 102q23 -85 84 -130.5t152 -45.5q116 0 175.5 72t59.5 203v92q-89 -154 -311 -154q-190 0 -316 135t-126 346q0 112 36.5 207.5t99 160t146.5 100.5t178 36q198 0 293 -135v115h260v-883q0 -239 -129.5 -376.5t-371.5 -137.5q-359 0 -461 293zM831 494
q0 122 -70.5 197t-180.5 75q-108 0 -178 -76t-70 -203q0 -120 70.5 -191t181.5 -71q106 0 176.5 76t70.5 193zM711 1110h-287v354q0 104 60 151.5t165 47.5h103v-133h-103q-44 0 -68 -17.5t-24 -48.5t22 -49t60 -18h72v-287z" />
    <glyph glyph-name="Hcircumflex" unicode="&#x124;" horiz-adv-x="1538" 
d="M1122 580h-706v-580h-277v1434h277v-605h706v605h277v-1434h-277v580zM428 1599v33l266 232h152l268 -232v-33h-254l-90 121l-90 -121h-252z" />
    <glyph glyph-name="hcircumflex" unicode="&#x125;" horiz-adv-x="1189" 
d="M387 0h-262v1434h262v-637q44 93 129.5 143.5t192.5 50.5q164 0 260 -100.5t96 -267.5v-623h-260v561q0 100 -52.5 156.5t-146.5 56.5q-95 0 -157 -74t-62 -196v-504zM-86 1599v33l266 232h152l268 -232v-33h-254l-90 121l-90 -121h-252z" />
    <glyph glyph-name="Hbar" unicode="&#x126;" horiz-adv-x="1538" 
d="M1122 580h-706v-580h-277v1434h277v-605h706v605h277v-1434h-277v580zM-16 1014v215h1570v-215h-1570z" />
    <glyph glyph-name="hbar" unicode="&#x127;" horiz-adv-x="1189" 
d="M387 0h-262v1434h262v-637q44 93 129.5 143.5t192.5 50.5q164 0 260 -100.5t96 -267.5v-623h-260v561q0 100 -52.5 156.5t-146.5 56.5q-95 0 -157 -74t-62 -196v-504zM0 1321h662v-197h-662v197z" />
    <glyph glyph-name="Itilde" unicode="&#x128;" horiz-adv-x="555" 
d="M139 0v1434h277v-1434h-277zM242 1653q-39 39 -72 39q-27 0 -42 -17t-15 -47q0 -6 4 -26l-172 22l-2 14l-1.5 10.5t-0.5 4.5q0 92 58 151.5t151 59.5q57 0 91 -15.5t74 -50.5q40 -37 72 -37q27 0 43 16.5t16 45.5q0 8 -4 28l172 -24q2 -6 2 -29q0 -93 -57.5 -152
t-150.5 -59q-57 0 -91.5 15.5t-74.5 50.5z" />
    <glyph glyph-name="itilde" unicode="&#x129;" horiz-adv-x="512" 
d="M125 971h262v-971h-262v971zM219 1190q-39 39 -72 39q-27 0 -42 -17t-15 -47q0 -6 4 -26l-172 22l-2 14l-1.5 10.5t-0.5 4.5q0 92 58 151.5t151 59.5q57 0 91.5 -15.5t74.5 -50.5q40 -37 72 -37q27 0 43 16.5t16 45.5q0 9 -4 29l172 -25q2 -6 2 -29q0 -93 -58 -152
t-151 -59q-57 0 -91.5 15.5t-74.5 50.5z" />
    <glyph glyph-name="Imacron" unicode="&#x12a;" horiz-adv-x="555" 
d="M139 0v1434h277v-1434h-277zM6 1815h545v-185h-545v185z" />
    <glyph glyph-name="imacron" unicode="&#x12b;" horiz-adv-x="512" 
d="M125 971h262v-971h-262v971zM-16 1352h544v-185h-544v185z" />
    <glyph glyph-name="Ibreve" unicode="&#x12c;" horiz-adv-x="555" 
d="M139 0v1434h277v-1434h-277zM545 1827q0 -110 -75 -173t-191 -63t-190.5 63t-74.5 173q0 22 2 28h177l-3 -18q0 -35 25.5 -58.5t63.5 -23.5q40 0 64 23t24 59l-2 18h178q2 -6 2 -28z" />
    <glyph glyph-name="ibreve" unicode="&#x12d;" horiz-adv-x="512" 
d="M125 971h262v-971h-262v971zM522 1364q0 -110 -75 -173t-191 -63t-190 63t-74 173q0 23 2 29h176l-2 -19q0 -35 25 -58.5t63 -23.5q40 0 64 23t24 59l-2 19h178q2 -6 2 -29z" />
    <glyph glyph-name="Iogonek" unicode="&#x12e;" horiz-adv-x="555" 
d="M139 0v1434h277v-1434h-277zM324 -395q-87 0 -141 50.5t-54 129.5q0 61 37 118t108 97h142q-57 -43 -82 -75t-25 -68q0 -29 17.5 -45.5t46.5 -16.5q25 0 63 23l74 -160q-89 -53 -186 -53z" />
    <glyph glyph-name="iogonek" unicode="&#x12f;" horiz-adv-x="512" 
d="M125 971h262v-971h-262v971zM117 1116v277h280v-277h-280zM295 -395q-87 0 -141 50.5t-54 129.5q0 61 37.5 117.5t108.5 97.5h141q-57 -42 -81.5 -74.5t-24.5 -68.5q0 -29 17 -45.5t46 -16.5q26 0 64 23l73 -160q-89 -53 -186 -53z" />
    <glyph glyph-name="Idot" unicode="&#x130;" horiz-adv-x="555" 
d="M139 0v1434h277v-1434h-277zM147 1876h265v-266h-265v266z" />
    <glyph glyph-name="dotlessi" unicode="&#x131;" horiz-adv-x="512" 
d="M125 971h262v-971h-262v971z" />
    <glyph glyph-name="IJ" unicode="&#x132;" horiz-adv-x="1806" 
d="M139 0v1434h277v-1434h-277zM1405 1434h276v-942q0 -81 -17 -153.5t-56 -139t-97 -114.5t-146 -76.5t-198 -28.5q-242 0 -381 137.5t-139 351.5q0 152 72 256l254 -100q-53 -71 -53 -168t67.5 -159t173.5 -62q124 0 184 75.5t60 214.5v908z" />
    <glyph glyph-name="ij" unicode="&#x133;" horiz-adv-x="1024" 
d="M125 971h262v-971h-262v971zM117 1116v277h280v-277h-280zM637 -406v1377h262v-1377h-262zM629 1116v277h280v-277h-280z" />
    <glyph glyph-name="Jcircumflex" unicode="&#x134;" horiz-adv-x="1251" 
d="M850 1434h276v-942q0 -81 -17 -153.5t-56 -139t-97 -114.5t-146 -76.5t-198 -28.5q-242 0 -381 137.5t-139 351.5q0 152 72 256l254 -100q-53 -71 -53 -168t67.5 -159t173.5 -62q124 0 184 75.5t60 214.5v908zM647 1599v33l266 232h152l268 -232v-33h-254l-90 121
l-90 -121h-252z" />
    <glyph glyph-name="jcircumflex" unicode="&#x135;" horiz-adv-x="512" 
d="M125 -406v1377h262v-1377h-262zM-86 1137v32l266 232h152l268 -232v-32h-254l-90 120l-90 -120h-252z" />
    <glyph glyph-name="Kcommaaccent" unicode="&#x136;" horiz-adv-x="1431" 
d="M838 862l557 -862h-328l-416 653l-235 -254v-399h-277v1434h277v-646l594 646h354zM539 -580l28 129q47 -18 101 -18q84 0 84 66q0 65 -80 65h-74v232h285v-297q0 -98 -57.5 -148.5t-147.5 -50.5q-68 0 -139 22z" />
    <glyph glyph-name="kcommaaccent" unicode="&#x137;" horiz-adv-x="1095" 
d="M659 573l398 -573h-301l-269 389l-100 -104v-285h-262v1434h262v-824l328 361h321zM360 -580l29 129q46 -18 100 -18q84 0 84 66q0 65 -79 65h-74v232h285v-297q0 -98 -57.5 -148.5t-147.5 -50.5q-69 0 -140 22z" />
    <glyph glyph-name="kgreenlandic" unicode="&#x138;" horiz-adv-x="1060" 
d="M125 0v971h256v-344l297 344h323l-419 -459l440 -512h-315l-326 391v-391h-256z" />
    <glyph glyph-name="Lacute" unicode="&#x139;" horiz-adv-x="1327" 
d="M139 1434h277v-1178h833v-256h-1110v1434zM164 1599l174 273h321v-33l-264 -240h-231z" />
    <glyph glyph-name="lacute" unicode="&#x13a;" horiz-adv-x="512" 
d="M125 0v1434h262v-1434h-262zM141 1599l174 273h322v-33l-264 -240h-232z" />
    <glyph glyph-name="Lcommaaccent" unicode="&#x13b;" horiz-adv-x="1327" 
d="M139 1434h277v-1178h833v-256h-1110v1434zM467 -580l29 129q46 -18 100 -18q84 0 84 66q0 65 -80 65h-74v232h285v-297q0 -98 -57.5 -148.5t-147.5 -50.5q-68 0 -139 22z" />
    <glyph glyph-name="lcommaaccent" unicode="&#x13c;" horiz-adv-x="512" 
d="M125 0v1434h262v-1434h-262zM53 -580l29 129q47 -18 100 -18q84 0 84 66q0 65 -80 65h-73v232h284v-297q0 -98 -57 -148.5t-147 -50.5q-69 0 -140 22z" />
    <glyph glyph-name="Lcaron" unicode="&#x13d;" horiz-adv-x="1327" 
d="M139 1434h277v-1178h833v-256h-1110v1434zM948 938v127h78q43 0 66.5 18.5t23.5 49.5t-21.5 48t-58.5 17h-73v236h286v-291q0 -100 -63 -152.5t-162 -52.5h-76z" />
    <glyph glyph-name="lcaron" unicode="&#x13e;" horiz-adv-x="796" 
d="M125 0v1434h262v-1434h-262zM496 938v127h77q44 0 67.5 18.5t23.5 49.5t-21.5 48t-58.5 17h-74v236h287v-291q0 -100 -63.5 -152.5t-162.5 -52.5h-75z" />
    <glyph glyph-name="Ldot" unicode="&#x13f;" horiz-adv-x="1228" 
d="M139 1434h277v-1178h833v-256h-1110v1434zM774 860h287v-287h-287v287z" />
    <glyph glyph-name="ldot" unicode="&#x140;" horiz-adv-x="923" 
d="M125 0v1434h262v-1434h-262zM573 860h287v-287h-287v287z" />
    <glyph glyph-name="Lslash" unicode="&#x141;" horiz-adv-x="1327" 
d="M139 1434h277v-1178h833v-256h-1110v1434zM29 481l-101 199l686 354l101 -196z" />
    <glyph glyph-name="lslash" unicode="&#x142;" horiz-adv-x="512" 
d="M125 0v1434h262v-1434h-262zM20 485l-100 197l572 297l100 -197z" />
    <glyph glyph-name="Nacute" unicode="&#x143;" horiz-adv-x="1628" 
d="M416 1243v-1243h-277v1434h477l596 -1244v1244h277v-1434h-477zM700 1599l174 273h322v-33l-264 -240h-232z" />
    <glyph glyph-name="nacute" unicode="&#x144;" horiz-adv-x="1157" 
d="M387 0h-262v971h262v-127q46 72 123.5 109.5t171.5 37.5q160 0 255 -95t95 -261v-635h-262v563q0 100 -48.5 157.5t-133.5 57.5q-90 0 -145.5 -64t-55.5 -177v-537zM506 1137l174 272h321v-33l-264 -239h-231z" />
    <glyph glyph-name="Ncommaaccent" unicode="&#x145;" horiz-adv-x="1628" 
d="M416 1243v-1243h-277v1434h477l596 -1244v1244h277v-1434h-477zM612 -580l29 129q47 -18 100 -18q84 0 84 66q0 65 -80 65h-73v232h284v-297q0 -98 -57 -148.5t-147 -50.5q-69 0 -140 22z" />
    <glyph glyph-name="ncommaaccent" unicode="&#x146;" horiz-adv-x="1157" 
d="M387 0h-262v971h262v-127q46 72 123.5 109.5t171.5 37.5q160 0 255 -95t95 -261v-635h-262v563q0 100 -48.5 157.5t-133.5 57.5q-90 0 -145.5 -64t-55.5 -177v-537zM375 -580l28 129q47 -18 101 -18q84 0 84 66q0 65 -80 65h-74v232h285v-297q0 -98 -57.5 -148.5
t-147.5 -50.5q-68 0 -139 22z" />
    <glyph glyph-name="Ncaron" unicode="&#x147;" horiz-adv-x="1628" 
d="M416 1243v-1243h-277v1434h477l596 -1244v1244h277v-1434h-477zM739 1599l-266 232v33h252l90 -121l90 121h254v-33l-268 -232h-152z" />
    <glyph glyph-name="ncaron" unicode="&#x148;" horiz-adv-x="1157" 
d="M387 0h-262v971h262v-127q46 72 123.5 109.5t171.5 37.5q160 0 255 -95t95 -261v-635h-262v563q0 100 -48.5 157.5t-133.5 57.5q-90 0 -145.5 -64t-55.5 -177v-537zM545 1137l-266 231v33h251l91 -121l90 121h254v-33l-269 -231h-151z" />
    <glyph glyph-name="Eng" unicode="&#x14a;" horiz-adv-x="1628" 
d="M604 -135l242 82q39 -144 194 -144q82 0 127 51.5t45 145.5h-200l-596 1243v-1243h-277v1434h477l596 -1244v1244h277v-1371q0 -236 -111.5 -362.5t-328.5 -126.5q-180 0 -294 76t-151 215z" />
    <glyph glyph-name="eng" unicode="&#x14b;" horiz-adv-x="1157" 
d="M399 -207l228 72q5 -36 24 -57t51 -21q31 0 49.5 23t18.5 65v688q0 100 -48.5 157.5t-133.5 57.5q-89 0 -145 -64t-56 -175v-539h-262v971h262v-127q46 72 123.5 109.5t171.5 37.5q160 0 255 -95t95 -261v-741q0 -151 -84 -235.5t-248 -84.5q-122 0 -201.5 57.5
t-99.5 161.5z" />
    <glyph glyph-name="Omacron" unicode="&#x14c;" horiz-adv-x="1669" 
d="M836 1454q151 3 291 -56t241.5 -159t161.5 -237.5t57 -284.5q3 -148 -57 -285.5t-161.5 -237.5t-241.5 -158.5t-291 -55.5q-151 -4 -292 55t-243 159.5t-162 238t-57 284.5q-3 147 57 284t162 237.5t243 159.5t292 56zM836 242q129 0 236 58t171 167.5t64 249.5
q0 211 -135 344t-336 133t-336 -133t-135 -344q0 -140 64 -249.5t171 -167.5t236 -58zM563 1815h545v-185h-545v185z" />
    <glyph glyph-name="omacron" unicode="&#x14d;" horiz-adv-x="1155" 
d="M70 485q0 219 143.5 362.5t364.5 143.5t364 -143.5t143 -362.5q0 -217 -144 -361t-363 -144t-363.5 144t-144.5 361zM829 485q0 121 -70.5 196t-180.5 75t-181 -75.5t-71 -195.5t71 -195t181 -75t180.5 75t70.5 195zM305 1352h545v-185h-545v185z" />
    <glyph glyph-name="Obreve" unicode="&#x14e;" horiz-adv-x="1669" 
d="M836 1454q151 3 291 -56t241.5 -159t161.5 -237.5t57 -284.5q3 -148 -57 -285.5t-161.5 -237.5t-241.5 -158.5t-291 -55.5q-151 -4 -292 55t-243 159.5t-162 238t-57 284.5q-3 147 57 284t162 237.5t243 159.5t292 56zM836 242q129 0 236 58t171 167.5t64 249.5
q0 211 -135 344t-336 133t-336 -133t-135 -344q0 -140 64 -249.5t171 -167.5t236 -58zM1102 1827q0 -110 -75 -173t-191 -63t-190.5 63t-74.5 173q0 22 2 28h177l-2 -18q0 -35 25 -58.5t63 -23.5q40 0 64 23t24 59l-2 18h178q2 -6 2 -28z" />
    <glyph glyph-name="obreve" unicode="&#x14f;" horiz-adv-x="1155" 
d="M70 485q0 219 143.5 362.5t364.5 143.5t364 -143.5t143 -362.5q0 -217 -144 -361t-363 -144t-363.5 144t-144.5 361zM829 485q0 121 -70.5 196t-180.5 75t-181 -75.5t-71 -195.5t71 -195t181 -75t180.5 75t70.5 195zM844 1364q0 -110 -75 -173t-191 -63t-190.5 63
t-74.5 173q0 23 2 29h177l-3 -19q0 -35 25.5 -58.5t63.5 -23.5q40 0 64 23t24 59l-2 19h178q2 -6 2 -29z" />
    <glyph glyph-name="Ohungarumlaut" unicode="&#x150;" horiz-adv-x="1669" 
d="M836 1454q151 3 291 -56t241.5 -159t161.5 -237.5t57 -284.5q3 -148 -57 -285.5t-161.5 -237.5t-241.5 -158.5t-291 -55.5q-151 -4 -292 55t-243 159.5t-162 238t-57 284.5q-3 147 57 284t162 237.5t243 159.5t292 56zM836 242q129 0 236 58t171 167.5t64 249.5
q0 211 -135 344t-336 133t-336 -133t-135 -344q0 -140 64 -249.5t171 -167.5t236 -58zM506 1599l174 273h321v-33l-264 -240h-231zM938 1599l174 273h322v-33l-265 -240h-231z" />
    <glyph glyph-name="ohungarumlaut" unicode="&#x151;" horiz-adv-x="1155" 
d="M70 485q0 219 143.5 362.5t364.5 143.5t364 -143.5t143 -362.5q0 -217 -144 -361t-363 -144t-363.5 144t-144.5 361zM829 485q0 121 -70.5 196t-180.5 75t-181 -75.5t-71 -195.5t71 -195t181 -75t180.5 75t70.5 195zM248 1137l174 272h321v-33l-264 -239h-231zM680 1137
l174 272h322v-33l-265 -239h-231z" />
    <glyph glyph-name="OE" unicode="&#x152;" horiz-adv-x="2492" 
d="M82 717q-3 147 57 284.5t161 237.5t241 159t290 56q298 0 476 -199v179h1075v-260h-799v-308h737v-256h-737v-354h819v-256h-1095v180q-176 -200 -476 -200q-150 -4 -290 55t-241 159.5t-161 238t-57 284.5zM1307 717q0 211 -135 344t-336 133t-336 -133t-135 -344
q0 -140 64 -249.5t171 -167.5t236 -58q132 0 239 58t169.5 167.5t62.5 249.5z" />
    <glyph glyph-name="oe" unicode="&#x153;" horiz-adv-x="1849" 
d="M70 483q0 220 142 364t363 144q247 0 375 -184q138 184 361 184q203 0 325 -119q123 -117 123 -317q0 -63 -12 -119h-662q1 -106 75.5 -169.5t182.5 -63.5q180 0 226 168l223 -88q-52 -145 -167.5 -224t-283.5 -79q-259 0 -385 184q-138 -184 -381 -184
q-220 0 -362.5 142.5t-142.5 360.5zM1085 610h418l2 8q0 73 -54 117.5t-142 44.5q-81 0 -143.5 -46t-80.5 -124zM825 483q0 121 -70.5 197t-179.5 76t-179 -76t-70 -197q0 -120 69.5 -194t179.5 -74t180 74t70 194z" />
    <glyph glyph-name="Racute" unicode="&#x154;" horiz-adv-x="1411" 
d="M1327 0h-323q-28 58 -37 123q-11 82 -11 205q0 126 -58.5 183.5t-174.5 57.5h-307v-569h-277v1434h703q216 0 343.5 -114t127.5 -290q0 -128 -76.5 -229.5t-206.5 -149.5q101 -33 159 -113.5t64 -205.5q6 -126 20.5 -188.5t53.5 -110.5v-33zM416 825h409q101 0 156 48
t55 131q0 82 -54.5 128t-156.5 46h-409v-353zM516 1599l174 273h322v-33l-264 -240h-232z" />
    <glyph glyph-name="racute" unicode="&#x155;" horiz-adv-x="964" 
d="M125 971h262v-125q31 69 91 107t143 38q128 0 203 -79.5t75 -206.5q0 -66 -14 -121h-248q8 31 8 73q0 54 -34 87.5t-89 33.5q-62 0 -98.5 -40t-36.5 -113v-625h-262v971zM440 1137l174 272h322v-33l-264 -239h-232z" />
    <glyph glyph-name="Rcommaaccent" unicode="&#x156;" horiz-adv-x="1411" 
d="M1327 0h-323q-28 58 -37 123q-11 82 -11 205q0 126 -58.5 183.5t-174.5 57.5h-307v-569h-277v1434h703q216 0 343.5 -114t127.5 -290q0 -128 -76.5 -229.5t-206.5 -149.5q101 -33 159 -113.5t64 -205.5q6 -126 20.5 -188.5t53.5 -110.5v-33zM416 825h409q101 0 156 48
t55 131q0 82 -54.5 128t-156.5 46h-409v-353zM510 -580l29 129q47 -18 100 -18q84 0 84 66q0 65 -80 65h-74v232h285v-297q0 -98 -57.5 -148.5t-147.5 -50.5q-68 0 -139 22z" />
    <glyph glyph-name="rcommaaccent" unicode="&#x157;" horiz-adv-x="964" 
d="M125 971h262v-125q31 69 91 107t143 38q128 0 203 -79.5t75 -206.5q0 -66 -14 -121h-248q8 31 8 73q0 54 -34 87.5t-89 33.5q-62 0 -98.5 -40t-36.5 -113v-625h-262v971zM53 -580l29 129q47 -18 100 -18q84 0 84 66q0 65 -80 65h-73v232h284v-297q0 -98 -57 -148.5
t-147 -50.5q-69 0 -140 22z" />
    <glyph glyph-name="Rcaron" unicode="&#x158;" horiz-adv-x="1411" 
d="M1327 0h-323q-28 58 -37 123q-11 82 -11 205q0 126 -58.5 183.5t-174.5 57.5h-307v-569h-277v1434h703q216 0 343.5 -114t127.5 -290q0 -128 -76.5 -229.5t-206.5 -149.5q101 -33 159 -113.5t64 -205.5q6 -126 20.5 -188.5t53.5 -110.5v-33zM416 825h409q101 0 156 48
t55 131q0 82 -54.5 128t-156.5 46h-409v-353zM555 1599l-266 232v33h252l90 -121l90 121h254v-33l-268 -232h-152z" />
    <glyph glyph-name="rcaron" unicode="&#x159;" horiz-adv-x="964" 
d="M125 971h262v-125q31 69 91 107t143 38q128 0 203 -79.5t75 -206.5q0 -66 -14 -121h-248q8 31 8 73q0 54 -34 87.5t-89 33.5q-62 0 -98.5 -40t-36.5 -113v-625h-262v971zM479 1137l-266 231v33h252l90 -121l90 121h254v-33l-268 -231h-152z" />
    <glyph glyph-name="Sacute" unicode="&#x15a;" horiz-adv-x="1335" 
d="M657 1208q-101 0 -163 -43t-62 -110q0 -82 85 -132t249 -81q267 -50 386.5 -148.5t119.5 -279.5q0 -190 -157 -312t-415 -122q-213 0 -393 98q-182 102 -264 338l246 153q42 -165 150.5 -251.5t267.5 -86.5q129 0 206.5 47t77.5 125q0 81 -73 128.5t-254 76.5
q-508 77 -508 449q0 167 145 282t373 115q193 0 335 -92t201 -260l-239 -139q-67 245 -314 245zM553 1599l174 273h322v-33l-265 -240h-231z" />
    <glyph glyph-name="sacute" unicode="&#x15b;" horiz-adv-x="974" 
d="M53 240l205 108q68 -153 244 -153q74 0 115.5 26t41.5 68q0 52 -48.5 80.5t-176.5 46.5q-332 52 -332 291q0 123 109.5 203.5t261.5 80.5q147 0 235 -52t134 -153l-199 -108q-37 110 -164 110q-60 0 -98.5 -23t-38.5 -60q0 -43 46 -65.5t169 -41.5q184 -29 265 -102
t81 -203q0 -136 -116.5 -224.5t-292.5 -88.5q-166 0 -277.5 67t-163.5 193zM358 1137l174 272h322v-33l-264 -239h-232z" />
    <glyph glyph-name="Scircumflex" unicode="&#x15c;" horiz-adv-x="1335" 
d="M657 1208q-101 0 -163 -43t-62 -110q0 -82 85 -132t249 -81q267 -50 386.5 -148.5t119.5 -279.5q0 -190 -157 -312t-415 -122q-213 0 -393 98q-182 102 -264 338l246 153q42 -165 150.5 -251.5t267.5 -86.5q129 0 206.5 47t77.5 125q0 81 -73 128.5t-254 76.5
q-508 77 -508 449q0 167 145 282t373 115q193 0 335 -92t201 -260l-239 -139q-67 245 -314 245zM326 1599v33l266 232h151l269 -232v-33h-254l-90 121l-90 -121h-252z" />
    <glyph glyph-name="scircumflex" unicode="&#x15d;" horiz-adv-x="974" 
d="M53 240l205 108q68 -153 244 -153q74 0 115.5 26t41.5 68q0 52 -48.5 80.5t-176.5 46.5q-332 52 -332 291q0 123 109.5 203.5t261.5 80.5q147 0 235 -52t134 -153l-199 -108q-37 110 -164 110q-60 0 -98.5 -23t-38.5 -60q0 -43 46 -65.5t169 -41.5q184 -29 265 -102
t81 -203q0 -136 -116.5 -224.5t-292.5 -88.5q-166 0 -277.5 67t-163.5 193zM131 1137v32l266 232h152l268 -232v-32h-254l-90 120l-90 -120h-252z" />
    <glyph glyph-name="Scedilla" unicode="&#x15e;" horiz-adv-x="1335" 
d="M657 1208q-101 0 -163 -43t-62 -110q0 -82 85 -132t249 -81q267 -50 386.5 -148.5t119.5 -279.5q0 -190 -157 -312t-415 -122q-213 0 -393 98q-182 102 -264 338l246 153q42 -165 150.5 -251.5t267.5 -86.5q129 0 206.5 47t77.5 125q0 81 -73 128.5t-254 76.5
q-508 77 -508 449q0 167 145 282t373 115q193 0 335 -92t201 -260l-239 -139q-67 245 -314 245zM700 -98q40 37 93 37q73 0 118 -42.5t45 -115.5q0 -74 -49.5 -120t-128.5 -46q-77 0 -125.5 33.5t-60.5 99.5l123 31q2 -23 18.5 -38t42.5 -15t43 15t17 40t-15.5 40t-44.5 15
q-18 0 -34.5 -9t-24.5 -22l-121 23q28 109 41 205h123q-24 -74 -60 -131z" />
    <glyph glyph-name="scedilla" unicode="&#x15f;" horiz-adv-x="974" 
d="M53 240l205 108q68 -153 244 -153q74 0 115.5 26t41.5 68q0 52 -48.5 80.5t-176.5 46.5q-332 52 -332 291q0 123 109.5 203.5t261.5 80.5q147 0 235 -52t134 -153l-199 -108q-37 110 -164 110q-60 0 -98.5 -23t-38.5 -60q0 -43 46 -65.5t169 -41.5q184 -29 265 -102
t81 -203q0 -136 -116.5 -224.5t-292.5 -88.5q-166 0 -277.5 67t-163.5 193zM444 -98q40 37 93 37q73 0 118 -42.5t45 -115.5q0 -74 -49.5 -120t-128.5 -46q-77 0 -125.5 33.5t-60.5 99.5l123 31q2 -23 18.5 -38t42.5 -15t43 15t17 40t-15.5 40t-44.5 15q-18 0 -34.5 -9
t-24.5 -22l-121 23q28 109 41 205h123q-24 -74 -60 -131z" />
    <glyph glyph-name="Scaron" unicode="&#x160;" horiz-adv-x="1335" 
d="M657 1208q-101 0 -163 -43t-62 -110q0 -82 85 -132t249 -81q267 -50 386.5 -148.5t119.5 -279.5q0 -190 -157 -312t-415 -122q-213 0 -393 98q-182 102 -264 338l246 153q42 -165 150.5 -251.5t267.5 -86.5q129 0 206.5 47t77.5 125q0 81 -73 128.5t-254 76.5
q-508 77 -508 449q0 167 145 282t373 115q193 0 335 -92t201 -260l-239 -139q-67 245 -314 245zM592 1599l-266 232v33h252l90 -121l90 121h254v-33l-269 -232h-151z" />
    <glyph glyph-name="scaron" unicode="&#x161;" horiz-adv-x="974" 
d="M53 240l205 108q68 -153 244 -153q74 0 115.5 26t41.5 68q0 52 -48.5 80.5t-176.5 46.5q-332 52 -332 291q0 123 109.5 203.5t261.5 80.5q147 0 235 -52t134 -153l-199 -108q-37 110 -164 110q-60 0 -98.5 -23t-38.5 -60q0 -43 46 -65.5t169 -41.5q184 -29 265 -102
t81 -203q0 -136 -116.5 -224.5t-292.5 -88.5q-166 0 -277.5 67t-163.5 193zM397 1137l-266 231v33h252l90 -121l90 121h254v-33l-268 -231h-152z" />
    <glyph glyph-name="uni0162" unicode="&#x162;" horiz-adv-x="1392" 
d="M1341 1434v-256h-505v-1178h-277v1178h-508v256h1290zM707 -98q40 37 92 37q73 0 118.5 -42.5t45.5 -115.5q0 -74 -50 -120t-129 -46q-77 0 -125.5 33.5t-60.5 99.5l123 31q2 -23 18.5 -38t42.5 -15t43 15t17 40t-15.5 40t-44.5 15q-18 0 -34.5 -9t-24.5 -22l-121 23
q28 109 41 205h123q-25 -77 -59 -131z" />
    <glyph glyph-name="uni0163" unicode="&#x163;" horiz-adv-x="1009" 
d="M236 328v428h-201v215h201v319h260v-319h364v-215h-364v-428q0 -55 30 -86t80 -31q103 0 115 135l242 -45q-20 -153 -115 -237t-248 -84q-175 0 -269.5 93t-94.5 255zM539 -98q40 37 92 37q73 0 118.5 -42.5t45.5 -115.5q0 -74 -50 -120t-129 -46q-77 0 -125.5 33.5
t-60.5 99.5l123 31q2 -23 18.5 -38t42.5 -15t43 15t17 40t-15.5 40t-44.5 15q-18 0 -34.5 -9t-24.5 -22l-121 23q28 109 41 205h123q-25 -77 -59 -131z" />
    <glyph glyph-name="Tcaron" unicode="&#x164;" horiz-adv-x="1392" 
d="M1341 1434v-256h-505v-1178h-277v1178h-508v256h1290zM621 1599l-267 232v33h252l90 -121l90 121h254v-33l-268 -232h-151z" />
    <glyph glyph-name="tcaron" unicode="&#x165;" horiz-adv-x="1009" 
d="M236 328v428h-201v215h201v319h260v-319h364v-215h-364v-428q0 -55 30 -86t80 -31q103 0 115 135l242 -45q-20 -153 -115 -237t-248 -84q-175 0 -269.5 93t-94.5 255zM582 1055v127h77q44 0 67.5 18t23.5 49t-21.5 48.5t-58.5 17.5h-74v235h287v-290q0 -100 -63.5 -152.5
t-162.5 -52.5h-75z" />
    <glyph glyph-name="Tbar" unicode="&#x166;" horiz-adv-x="1392" 
d="M1341 1434v-256h-505v-1178h-277v1178h-508v256h1290zM272 827h848v-221h-848v221z" />
    <glyph glyph-name="tbar" unicode="&#x167;" horiz-adv-x="1009" 
d="M236 328v428h-201v215h201v319h260v-319h364v-215h-364v-428q0 -55 30 -86t80 -31q103 0 115 135l242 -45q-20 -153 -115 -237t-248 -84q-175 0 -269.5 93t-94.5 255zM68 633h661v-197h-661v197z" />
    <glyph glyph-name="Utilde" unicode="&#x168;" horiz-adv-x="1452" 
d="M125 1434h276v-848q0 -163 88 -256.5t238 -93.5t237 93t87 257v848h276v-854q0 -273 -162.5 -436.5t-437.5 -163.5q-277 0 -439.5 163.5t-162.5 436.5v854zM690 1653q-39 39 -72 39q-27 0 -42 -17t-15 -47q0 -6 4 -26l-172 22l-2 14l-1.5 10.5t-0.5 4.5q0 92 58 151.5
t151 59.5q57 0 91.5 -15.5t74.5 -50.5q40 -37 72 -37q27 0 43 16.5t16 45.5q0 8 -4 28l172 -24q2 -6 2 -29q0 -93 -58 -152t-151 -59q-57 0 -91.5 15.5t-74.5 50.5z" />
    <glyph glyph-name="utilde" unicode="&#x169;" horiz-adv-x="1171" 
d="M786 971h261v-971h-261v143q-39 -76 -116 -119.5t-178 -43.5q-170 0 -268.5 96.5t-98.5 277.5v617h262v-551q0 -104 46 -159.5t132 -55.5q104 0 162.5 71t58.5 195v500zM551 1190q-39 39 -72 39q-27 0 -42 -17t-15 -47q0 -6 4 -26l-172 22l-2 14l-1.5 10.5t-0.5 4.5
q0 92 58 151.5t151 59.5q57 0 91.5 -15.5t74.5 -50.5q40 -37 71 -37q27 0 43.5 16.5t16.5 45.5q0 9 -4 29l172 -25q2 -6 2 -29q0 -93 -58 -152t-151 -59q-57 0 -91.5 15.5t-74.5 50.5z" />
    <glyph glyph-name="Umacron" unicode="&#x16a;" horiz-adv-x="1452" 
d="M125 1434h276v-848q0 -163 88 -256.5t238 -93.5t237 93t87 257v848h276v-854q0 -273 -162.5 -436.5t-437.5 -163.5q-277 0 -439.5 163.5t-162.5 436.5v854zM455 1815h544v-185h-544v185z" />
    <glyph glyph-name="umacron" unicode="&#x16b;" horiz-adv-x="1171" 
d="M786 971h261v-971h-261v143q-39 -76 -116 -119.5t-178 -43.5q-170 0 -268.5 96.5t-98.5 277.5v617h262v-551q0 -104 46 -159.5t132 -55.5q104 0 162.5 71t58.5 195v500zM315 1352h545v-185h-545v185z" />
    <glyph glyph-name="Ubreve" unicode="&#x16c;" horiz-adv-x="1452" 
d="M125 1434h276v-848q0 -163 88 -256.5t238 -93.5t237 93t87 257v848h276v-854q0 -273 -162.5 -436.5t-437.5 -163.5q-277 0 -439.5 163.5t-162.5 436.5v854zM993 1827q0 -110 -75 -173t-191 -63t-190 63t-74 173q0 22 2 28h176l-2 -18q0 -35 25 -58.5t63 -23.5q40 0 64 23
t24 59l-2 18h178q2 -6 2 -28z" />
    <glyph glyph-name="ubreve" unicode="&#x16d;" horiz-adv-x="1171" 
d="M786 971h261v-971h-261v143q-39 -76 -116 -119.5t-178 -43.5q-170 0 -268.5 96.5t-98.5 277.5v617h262v-551q0 -104 46 -159.5t132 -55.5q104 0 162.5 71t58.5 195v500zM854 1364q0 -110 -75 -173t-191 -63t-190 63t-74 173q0 23 2 29h176l-2 -19q0 -35 25 -58.5
t63 -23.5q40 0 64 23t24 59l-2 19h178q2 -6 2 -29z" />
    <glyph glyph-name="Uring" unicode="&#x16e;" horiz-adv-x="1452" 
d="M125 1434h276v-848q0 -163 88 -256.5t238 -93.5t237 93t87 257v848h276v-854q0 -273 -162.5 -436.5t-437.5 -163.5q-277 0 -439.5 163.5t-162.5 436.5v854zM526 1747q0 85 58 143t143 58t143 -58t58 -143t-58 -143t-143 -58q-84 0 -142.5 59.5t-58.5 141.5zM793 1747
q0 26 -20 45.5t-46 19.5t-45.5 -19.5t-19.5 -45.5t19.5 -46t45.5 -20t46 20t20 46z" />
    <glyph glyph-name="uring" unicode="&#x16f;" horiz-adv-x="1171" 
d="M786 971h261v-971h-261v143q-39 -76 -116 -119.5t-178 -43.5q-170 0 -268.5 96.5t-98.5 277.5v617h262v-551q0 -104 46 -159.5t132 -55.5q104 0 162.5 71t58.5 195v500zM387 1284q0 85 58 143t143 58t142.5 -58t57.5 -143t-57.5 -143t-142.5 -58q-84 0 -142.5 59.5
t-58.5 141.5zM653 1284q0 26 -19.5 46t-45.5 20t-46 -20t-20 -46t20 -45.5t46 -19.5t45.5 19.5t19.5 45.5z" />
    <glyph glyph-name="Uhungarumlaut" unicode="&#x170;" horiz-adv-x="1452" 
d="M125 1434h276v-848q0 -163 88 -256.5t238 -93.5t237 93t87 257v848h276v-854q0 -273 -162.5 -436.5t-437.5 -163.5q-277 0 -439.5 163.5t-162.5 436.5v854zM397 1599l174 273h322v-33l-264 -240h-232zM829 1599l175 273h321v-33l-264 -240h-232z" />
    <glyph glyph-name="uhungarumlaut" unicode="&#x171;" horiz-adv-x="1171" 
d="M786 971h261v-971h-261v143q-39 -76 -116 -119.5t-178 -43.5q-170 0 -268.5 96.5t-98.5 277.5v617h262v-551q0 -104 46 -159.5t132 -55.5q104 0 162.5 71t58.5 195v500zM258 1137l174 272h322v-33l-265 -239h-231zM690 1137l174 272h322v-33l-264 -239h-232z" />
    <glyph glyph-name="Uogonek" unicode="&#x172;" horiz-adv-x="1452" 
d="M125 1434h276v-848q0 -163 88 -256.5t238 -93.5t237 93t87 257v848h276v-854q0 -273 -162.5 -436.5t-437.5 -163.5q-277 0 -439.5 163.5t-162.5 436.5v854zM764 -395q-87 0 -141 50.5t-54 129.5q0 61 37.5 117.5t108.5 97.5h141q-57 -42 -81.5 -74.5t-24.5 -68.5
q0 -29 17 -45.5t46 -16.5q26 0 64 23l73 -160q-89 -53 -186 -53z" />
    <glyph glyph-name="uogonek" unicode="&#x173;" horiz-adv-x="1171" 
d="M786 971h261v-971h-261v143q-39 -76 -116 -119.5t-178 -43.5q-170 0 -268.5 96.5t-98.5 277.5v617h262v-551q0 -104 46 -159.5t132 -55.5q104 0 162.5 71t58.5 195v500zM954 -395q-87 0 -140.5 50.5t-53.5 129.5q0 61 37 118t108 97h142q-57 -43 -82 -75t-25 -68
q0 -29 17.5 -45.5t46.5 -16.5q25 0 63 23l74 -160q-89 -53 -187 -53z" />
    <glyph glyph-name="Wcircumflex" unicode="&#x174;" horiz-adv-x="2093" 
d="M326 0l-303 1434h286l246 -1250l256 1250h471l256 -1250l246 1250h287l-302 -1434h-460l-262 1249l-261 -1249h-460zM705 1599v33l266 232h151l269 -232v-33h-254l-90 121l-91 -121h-251z" />
    <glyph glyph-name="wcircumflex" unicode="&#x175;" horiz-adv-x="1587" 
d="M293 971l178 -725l170 725h307l168 -725l180 725h260l-266 -971h-338l-157 631l-160 -631h-338l-266 971h262zM453 1137v32l266 232h151l269 -232v-32h-254l-90 120l-90 -120h-252z" />
    <glyph glyph-name="Ycircumflex" unicode="&#x176;" horiz-adv-x="1417" 
d="M350 1434l359 -607l378 607h308l-547 -865v-569h-277v569l-548 865h327zM367 1599v33l266 232h151l269 -232v-33h-254l-90 121l-91 -121h-251z" />
    <glyph glyph-name="ycircumflex" unicode="&#x177;" horiz-adv-x="1091" 
d="M803 971h266l-661 -1377h-267l260 543l-389 834h275l250 -553zM201 1137v32l266 232h151l269 -232v-32h-254l-90 120l-90 -120h-252z" />
    <glyph glyph-name="Ydieresis" unicode="&#x178;" horiz-adv-x="1417" 
d="M350 1434l359 -607l378 607h308l-547 -865v-569h-277v569l-548 865h327zM383 1608v264h260v-264h-260zM776 1608v264h260v-264h-260z" />
    <glyph glyph-name="Zacute" unicode="&#x179;" horiz-adv-x="1462" 
d="M98 256l887 922h-876v256h1241v-256l-887 -922h897v-256h-1262v256zM612 1599l174 273h322v-33l-264 -240h-232z" />
    <glyph glyph-name="zacute" unicode="&#x17a;" horiz-adv-x="1040" 
d="M954 0h-876v225l532 520h-516v226h846v-215l-534 -520h548v-236zM401 1137l174 272h322v-33l-264 -239h-232z" />
    <glyph glyph-name="Zdotaccent" unicode="&#x17b;" horiz-adv-x="1462" 
d="M98 256l887 922h-876v256h1241v-256l-887 -922h897v-256h-1262v256zM596 1876h264v-266h-264v266z" />
    <glyph glyph-name="zdotaccent" unicode="&#x17c;" horiz-adv-x="1040" 
d="M954 0h-876v225l532 520h-516v226h846v-215l-534 -520h548v-236zM377 1116v277h280v-277h-280z" />
    <glyph glyph-name="Zcaron" unicode="&#x17d;" horiz-adv-x="1462" 
d="M98 256l887 922h-876v256h1241v-256l-887 -922h897v-256h-1262v256zM651 1599l-266 232v33h252l90 -121l90 121h254v-33l-268 -232h-152z" />
    <glyph glyph-name="zcaron" unicode="&#x17e;" horiz-adv-x="1040" 
d="M954 0h-876v225l532 520h-516v226h846v-215l-534 -520h548v-236zM440 1137l-266 231v33h252l90 -121l90 121h254v-33l-268 -231h-152z" />
    <glyph glyph-name="florin" unicode="&#x192;" horiz-adv-x="1069" 
d="M68 147l213 132q21 -68 84 -68q77 0 77 98v447h-225v215h225v135q0 160 101 254t268 94q182 0 277.5 -84.5t95.5 -230.5q0 -42 -2 -54h-246q4 20 4 39q0 50 -31.5 80.5t-87.5 30.5q-55 0 -87 -34t-32 -93v-137h256v-215h-256v-449q0 -155 -88 -241t-231 -86
q-120 0 -194 38.5t-121 128.5z" />
    <glyph glyph-name="uni01B5" unicode="&#x1b5;" horiz-adv-x="1228" 
d="M463 256h897v-256h-1262v256l340 354h-295v215h502l340 353h-876v256h1241v-256l-340 -353h243v-215h-450z" />
    <glyph glyph-name="uni01B6" unicode="&#x1b6;" horiz-adv-x="1040" 
d="M78 0v225l182 178h-98v177h280l168 165h-516v226h846v-215l-180 -176h84v-177h-266l-172 -167h548v-236h-876z" />
    <glyph glyph-name="Aringacute" unicode="&#x1fa;" horiz-adv-x="1589" 
d="M23 0l577 1434h391l576 -1434h-305l-125 324h-684l-123 -324h-307zM549 573h493l-247 641zM594 1747q0 85 58 143t143 58t142.5 -58t57.5 -143t-57.5 -143t-142.5 -58q-84 0 -142.5 59.5t-58.5 141.5zM860 1747q0 26 -19.5 45.5t-45.5 19.5t-46 -19.5t-20 -45.5t20 -46
t46 -20t45.5 20t19.5 46zM680 1903l174 272h322v-33l-265 -239h-231z" />
    <glyph glyph-name="aringacute" unicode="&#x1fb;" horiz-adv-x="1089" 
d="M84 281q0 152 101.5 231.5t277.5 79.5q87 0 166 -21l86 -20v61q0 81 -54 127.5t-145 46.5q-86 0 -139.5 -42.5t-71.5 -118.5l-227 61q39 144 152.5 224.5t287.5 80.5q220 0 333.5 -100.5t113.5 -292.5v-598h-240v150q-95 -170 -322 -170q-131 0 -225 83t-94 218zM715 358
v9l-60 18q-98 29 -151 29q-73 0 -113.5 -30.5t-40.5 -86.5q0 -55 40.5 -86t117.5 -31q93 0 150 47.5t57 130.5zM319 1284q0 85 58 143t143 58t143 -58t58 -143t-58 -143t-143 -58q-84 0 -142.5 59.5t-58.5 141.5zM586 1284q0 26 -20 46t-46 20t-45.5 -20t-19.5 -46
t19.5 -45.5t45.5 -19.5t46 19.5t20 45.5zM397 1415l174 273h322v-33l-264 -240h-232z" />
    <glyph glyph-name="AEacute" unicode="&#x1fc;" horiz-adv-x="2025" 
d="M1214 256h721v-256h-997v324h-440l-168 -324h-307l747 1434h1145v-260h-701v-308h639v-256h-639v-354zM938 573v601l-311 -601h311zM1225 1599l174 273h321v-33l-264 -240h-231z" />
    <glyph glyph-name="aeacute" unicode="&#x1fd;" horiz-adv-x="1746" 
d="M84 281q0 150 100 228.5t277 78.5h264v20q0 82 -57.5 130t-155.5 48q-89 0 -145 -42t-70 -115l-217 59q36 148 148.5 225.5t285.5 77.5q252 0 365 -149q57 72 142 110.5t185 38.5q202 0 326.5 -119t124.5 -317q0 -63 -12 -119h-660q1 -107 74.5 -170t181.5 -63
q176 0 225 168l224 -88q-52 -143 -168.5 -223t-284.5 -80q-137 0 -238.5 58.5t-146.5 158.5q-133 -217 -422 -217q-148 0 -247 85.5t-99 215.5zM985 610h416l2 8q0 73 -54.5 117.5t-142.5 44.5q-81 0 -142 -46t-79 -124zM725 375v49h-213q-76 0 -121 -32t-45 -91
q0 -56 39.5 -86.5t112.5 -30.5q104 0 165.5 54t61.5 137zM764 1137l174 272h322v-33l-265 -239h-231z" />
    <glyph glyph-name="Scommaaccent" unicode="&#x218;" horiz-adv-x="1335" 
d="M657 1208q-101 0 -163 -43t-62 -110q0 -82 85 -132t249 -81q267 -50 386.5 -148.5t119.5 -279.5q0 -190 -157 -312t-415 -122q-213 0 -393 98q-182 102 -264 338l246 153q42 -165 150.5 -251.5t267.5 -86.5q129 0 206.5 47t77.5 125q0 81 -73 128.5t-254 76.5
q-508 77 -508 449q0 167 145 282t373 115q193 0 335 -92t201 -260l-239 -139q-67 245 -314 245zM487 -580l29 129q46 -18 100 -18q84 0 84 66q0 65 -79 65h-74v232h284v-297q0 -98 -57 -148.5t-147 -50.5q-69 0 -140 22z" />
    <glyph glyph-name="scommaaccent" unicode="&#x219;" horiz-adv-x="974" 
d="M53 240l205 108q68 -153 244 -153q74 0 115.5 26t41.5 68q0 52 -48.5 80.5t-176.5 46.5q-332 52 -332 291q0 123 109.5 203.5t261.5 80.5q147 0 235 -52t134 -153l-199 -108q-37 110 -164 110q-60 0 -98.5 -23t-38.5 -60q0 -43 46 -65.5t169 -41.5q184 -29 265 -102
t81 -203q0 -136 -116.5 -224.5t-292.5 -88.5q-166 0 -277.5 67t-163.5 193zM289 -580l28 129q46 -18 101 -18q84 0 84 66q0 65 -80 65h-74v232h285v-297q0 -98 -57.5 -148.5t-147.5 -50.5q-68 0 -139 22z" />
    <glyph glyph-name="uni021A" unicode="&#x21a;" horiz-adv-x="1392" 
d="M1341 1434v-256h-505v-1178h-277v1178h-508v256h1290zM494 -580l28 129q46 -18 101 -18q84 0 84 66q0 65 -80 65h-74v232h285v-297q0 -98 -57.5 -148.5t-147.5 -50.5q-68 0 -139 22z" />
    <glyph glyph-name="uni021B" unicode="&#x21b;" horiz-adv-x="1009" 
d="M236 328v428h-201v215h201v319h260v-319h364v-215h-364v-428q0 -55 30 -86t80 -31q103 0 115 135l242 -45q-20 -153 -115 -237t-248 -84q-175 0 -269.5 93t-94.5 255zM393 -580l29 129q47 -18 100 -18q84 0 84 66q0 65 -80 65h-73v232h284v-297q0 -98 -57.5 -148.5
t-147.5 -50.5q-68 0 -139 22z" />
    <glyph glyph-name="uni0237" unicode="&#x237;" horiz-adv-x="512" 
d="M125 -406v1377h262v-1377h-262z" />
    <glyph glyph-name="circumflex" unicode="&#x2c6;" horiz-adv-x="860" 
d="M88 1137v32l266 232h152l268 -232v-32h-254l-90 120l-90 -120h-252z" />
    <glyph glyph-name="caron" unicode="&#x2c7;" horiz-adv-x="860" 
d="M354 1137l-266 231v33h252l90 -121l90 121h254v-33l-268 -231h-152z" />
    <glyph glyph-name="uni02C9" unicode="&#x2c9;" horiz-adv-x="778" 
d="M117 1352h545v-185h-545v185z" />
    <glyph glyph-name="breve" unicode="&#x2d8;" horiz-adv-x="733" 
d="M633 1364q0 -110 -75 -173t-191 -63t-190.5 63t-74.5 173q0 23 2 29h177l-2 -19q0 -35 25 -58.5t63 -23.5q40 0 64 23t24 59l-2 19h178q2 -6 2 -29z" />
    <glyph glyph-name="dotaccent" unicode="&#x2d9;" horiz-adv-x="501" 
d="M111 1116v277h280v-277h-280z" />
    <glyph glyph-name="ring" unicode="&#x2da;" horiz-adv-x="583" 
d="M291 1475q79 0 134.5 -55.5t55.5 -135.5q0 -78 -55.5 -133t-134.5 -55q-75 0 -132 56.5t-57 131.5q0 79 55.5 135t133.5 56zM291 1229q25 0 41 16t16 39q0 25 -16 41t-41 16q-23 0 -39 -16t-16 -41q0 -23 16 -39t39 -16z" />
    <glyph glyph-name="ogonek" unicode="&#x2db;" horiz-adv-x="649" 
d="M326 -358q-86 0 -140.5 49.5t-54.5 124.5q0 59 37 116.5t108 98.5h140q-103 -77 -103 -140q0 -61 62 -61q25 0 63 23l74 -158q-86 -53 -186 -53z" />
    <glyph glyph-name="tilde" unicode="&#x2dc;" horiz-adv-x="864" 
d="M395 1190q-23 23 -36 31t-35 8q-27 0 -43.5 -17.5t-16.5 -48.5q0 -10 4 -26l-172 22l-2 27q0 96 60 155.5t153 59.5q53 0 86.5 -16t73.5 -52q26 -22 40.5 -30.5t33.5 -8.5q27 0 43 18t16 48q0 9 -4 29l172 -25l2 -27q0 -93 -58 -153t-151 -60q-58 0 -91 15t-75 51z" />
    <glyph glyph-name="hungarumlaut" unicode="&#x2dd;" horiz-adv-x="1077" 
d="M76 1137l174 272h321v-33l-264 -239h-231zM508 1137l174 272h322v-33l-265 -239h-231z" />
    <glyph glyph-name="gravecomb" unicode="&#x300;" 
d="M-354 1137l-264 239v33h321l174 -272h-231z" />
    <glyph glyph-name="acutecomb" unicode="&#x301;" 
d="M-618 1137l174 272h321v-33l-264 -239h-231z" />
    <glyph glyph-name="uni0302" unicode="&#x302;" 
d="M-772 1137v32l266 232h152l268 -232v-32h-254l-90 120l-90 -120h-252z" />
    <glyph glyph-name="tildecomb" unicode="&#x303;" 
d="M-469 1190q-39 39 -72 39q-27 0 -42 -17t-15 -47q0 -6 4 -26l-172 22l-2 14l-1.5 10.5t-0.5 4.5q0 92 58 151.5t151 59.5q57 0 91.5 -15.5t74.5 -50.5q40 -37 71 -37q27 0 43.5 16.5t16.5 45.5q0 9 -4 29l172 -25q2 -6 2 -29q0 -93 -58 -152t-151 -59q-57 0 -91.5 15.5
t-74.5 50.5z" />
    <glyph glyph-name="uni0304" unicode="&#x304;" 
d="M-662 1352h545v-185h-545v185z" />
    <glyph glyph-name="uni0306" unicode="&#x306;" 
d="M-100 1364q0 -109 -75.5 -172.5t-191.5 -63.5t-190 63t-74 173q0 23 2 29h176l-2 -19q0 -35 25 -58.5t63 -23.5q40 0 64 23t24 59l-2 19h179q2 -6 2 -29z" />
    <glyph glyph-name="uni0307" unicode="&#x307;" 
d="M-391 1116v277h280v-277h-280z" />
    <glyph glyph-name="uni0308" unicode="&#x308;" 
d="M-735 1145v264h260v-264h-260zM-342 1145v264h260v-264h-260z" />
    <glyph glyph-name="uni030A" unicode="&#x30a;" 
d="M-494 1284q0 85 58 143t143 58t143 -58t58 -143t-58 -143t-143 -58q-84 0 -142.5 59.5t-58.5 141.5zM-227 1284q0 26 -20 46t-46 20t-45.5 -20t-19.5 -46t19.5 -45.5t45.5 -19.5t46 19.5t20 45.5z" />
    <glyph glyph-name="uni030B" unicode="&#x30b;" 
d="M-1001 1137l174 272h321v-33l-264 -239h-231zM-569 1137l174 272h321v-33l-264 -239h-231z" />
    <glyph glyph-name="uni030C" unicode="&#x30c;" 
d="M-506 1137l-266 231v33h252l90 -121l90 121h254v-33l-268 -231h-152z" />
    <glyph glyph-name="uni0312" unicode="&#x312;" 
d="M-158 1110h-286v354q0 104 60 151.5t165 47.5h102v-133h-102q-44 0 -68 -17.5t-24 -48.5t22 -49t60 -18h71v-287z" />
    <glyph glyph-name="uni0326" unicode="&#x326;" 
d="M-467 -580l29 129q47 -18 100 -18q84 0 84 66q0 65 -80 65h-74v232h285v-297q0 -98 -57.5 -148.5t-147.5 -50.5q-68 0 -139 22z" />
    <glyph glyph-name="uni0327" unicode="&#x327;" 
d="M-358 -98q40 37 92 37q73 0 118.5 -42.5t45.5 -115.5q0 -74 -50 -120t-129 -46q-77 0 -125.5 33.5t-60.5 99.5l123 31q2 -23 18.5 -38t42.5 -15t43 15t17 40t-15.5 40t-44.5 15q-18 0 -34.5 -9t-24.5 -22l-121 23q28 109 41 205h123q-25 -77 -59 -131z" />
    <glyph glyph-name="uni0328" unicode="&#x328;" 
d="M-324 -365q-87 0 -140.5 51t-53.5 130q0 61 37 118t108 97h142q-57 -42 -82 -75t-25 -69q0 -29 17 -45t47 -16q27 0 63 22l74 -159q-91 -54 -187 -54z" />
    <glyph glyph-name="uni0335" unicode="&#x335;" 
d="M-764 788h662v-196h-662v196z" />
    <glyph glyph-name="uni0336" unicode="&#x336;" 
d="M-1694 610v215h1571v-215h-1571z" />
    <glyph glyph-name="uni0337" unicode="&#x337;" 
d="M-760 492l-100 196l571 297l101 -197z" />
    <glyph glyph-name="uni0338" unicode="&#x338;" 
d="M-750 -133l-206 74l426 1163l206 -74z" />
    <glyph glyph-name="uni037E" unicode="&#x37e;" horiz-adv-x="528" 
d="M121 645v287h287v-287h-287zM70 -242l26 129q36 -20 92 -20q41 0 63.5 17t22.5 48t-20.5 49.5t-58.5 18.5h-74v287h287v-355q0 -198 -215 -198q-77 0 -123 24z" />
    <glyph glyph-name="tonos" unicode="&#x384;" horiz-adv-x="694" 
d="M127 1137l72 272h309v-33l-162 -239h-219z" />
    <glyph glyph-name="dieresistonos" unicode="&#x385;" horiz-adv-x="1085" 
d="M395 1124l39 306h275v-33l-129 -273h-185zM96 1145v264h260v-264h-260zM745 1145v264h261v-264h-261z" />
    <glyph glyph-name="Alphatonos" unicode="&#x386;" horiz-adv-x="1589" 
d="M23 0l577 1434h391l576 -1434h-305l-125 324h-684l-123 -324h-307zM549 573h493l-247 641zM31 1161l71 273h310v-33l-162 -240h-219z" />
    <glyph glyph-name="anoteleia" unicode="&#x387;" horiz-adv-x="528" 
d="M121 860h287v-287h-287v287z" />
    <glyph glyph-name="Epsilontonos" unicode="&#x388;" horiz-adv-x="1327" 
d="M139 1434h1078v-256h-801v-312h739v-256h-739v-354h821v-256h-1098v1434zM-371 1161l72 273h309v-33l-162 -240h-219z" />
    <glyph glyph-name="Etatonos" unicode="&#x389;" horiz-adv-x="1538" 
d="M1122 580h-706v-580h-277v1434h277v-605h706v605h277v-1434h-277v580zM-371 1161l72 273h309v-33l-162 -240h-219z" />
    <glyph glyph-name="Iotatonos" unicode="&#x38a;" horiz-adv-x="555" 
d="M139 0v1434h277v-1434h-277zM-371 1161l72 273h309v-33l-162 -240h-219z" />
    <glyph glyph-name="Omicrontonos" unicode="&#x38c;" horiz-adv-x="1669" 
d="M836 1454q151 3 291 -56t241.5 -159t161.5 -237.5t57 -284.5q3 -148 -57 -285.5t-161.5 -237.5t-241.5 -158.5t-291 -55.5q-151 -4 -292 55t-243 159.5t-162 238t-57 284.5q-3 147 57 284t162 237.5t243 159.5t292 56zM836 242q129 0 236 58t171 167.5t64 249.5
q0 211 -135 344t-336 133t-336 -133t-135 -344q0 -140 64 -249.5t171 -167.5t236 -58zM-168 1161l72 273h309v-33l-162 -240h-219z" />
    <glyph glyph-name="Upsilontonos" unicode="&#x38e;" horiz-adv-x="1417" 
d="M350 1434l359 -607l378 607h308l-547 -865v-569h-277v569l-548 865h327zM-420 1161l72 273h309v-33l-162 -240h-219z" />
    <glyph glyph-name="Omegatonos" unicode="&#x38f;" horiz-adv-x="1617" 
d="M1536 786q0 -314 -276 -534h235v-252h-610v242q155 76 264 209q106 132 106 309q0 195 -125 314.5t-321 119.5q-194 0 -319 -120t-125 -314q0 -176 106 -309q110 -134 262 -209v-242h-610v252h235q-276 220 -276 534q-1 139 53.5 263t150.5 214t232.5 141.5t290.5 49.5
q157 2 294 -49.5t232 -141.5t149 -214t52 -263zM-201 1161l72 273h309v-33l-162 -240h-219z" />
    <glyph glyph-name="iotadieresistonos" unicode="&#x390;" horiz-adv-x="753" 
d="M125 307v664h262v-668q0 -88 74 -88q56 0 71 61l213 -118q-30 -82 -107 -130t-185 -48q-158 0 -243 88t-85 239zM100 1124l39 306h275v-33l-129 -273h-185zM-199 1145v264h260v-264h-260zM451 1145v264h260v-264h-260z" />
    <glyph glyph-name="Alpha" unicode="&#x391;" horiz-adv-x="1589" 
d="M23 0l577 1434h391l576 -1434h-305l-125 324h-684l-123 -324h-307zM549 573h493l-247 641z" />
    <glyph glyph-name="Beta" unicode="&#x392;" horiz-adv-x="1447" 
d="M139 0v1434h707q203 0 332 -104.5t129 -268.5q0 -110 -59.5 -193.5t-170.5 -130.5q131 -36 206 -125t75 -217q0 -179 -134.5 -287t-351.5 -108h-733zM416 860h420q97 0 148.5 42.5t51.5 121.5q0 71 -54.5 112.5t-145.5 41.5h-420v-318zM416 256h461q92 0 148 48t56 126
q0 79 -56 129.5t-148 50.5h-461v-354z" />
    <glyph glyph-name="Gamma" unicode="&#x393;" horiz-adv-x="1275" 
d="M1225 1178h-809v-1178h-277v1434h1086v-256z" />
    <glyph glyph-name="uni0394" unicode="&#x394;" horiz-adv-x="1589" 
d="M23 0l577 1434h391l576 -1434h-1544zM426 252h739l-370 962z" />
    <glyph glyph-name="Epsilon" unicode="&#x395;" horiz-adv-x="1327" 
d="M139 1434h1078v-256h-801v-312h739v-256h-739v-354h821v-256h-1098v1434z" />
    <glyph glyph-name="Zeta" unicode="&#x396;" horiz-adv-x="1462" 
d="M98 256l887 922h-876v256h1241v-256l-887 -922h897v-256h-1262v256z" />
    <glyph glyph-name="Eta" unicode="&#x397;" horiz-adv-x="1538" 
d="M1122 580h-706v-580h-277v1434h277v-605h706v605h277v-1434h-277v580z" />
    <glyph glyph-name="Theta" unicode="&#x398;" horiz-adv-x="1669" 
d="M836 1454q151 3 291 -56t241.5 -159t161.5 -237.5t57 -284.5q3 -148 -57 -285.5t-161.5 -237.5t-241.5 -158.5t-291 -55.5q-151 -4 -292 55t-243 159.5t-162 238t-57 284.5q-3 147 57 284t162 237.5t243 159.5t292 56zM836 242q129 0 236 58t171 167.5t64 249.5
q0 211 -135 344t-336 133t-336 -133t-135 -344q0 -140 64 -249.5t171 -167.5t236 -58zM563 608v217h545v-217h-545z" />
    <glyph glyph-name="Iota" unicode="&#x399;" horiz-adv-x="555" 
d="M139 0v1434h277v-1434h-277z" />
    <glyph glyph-name="Kappa" unicode="&#x39a;" horiz-adv-x="1431" 
d="M838 862l557 -862h-328l-416 653l-235 -254v-399h-277v1434h277v-646l594 646h354z" />
    <glyph glyph-name="Lambda" unicode="&#x39b;" horiz-adv-x="1589" 
d="M23 0l577 1434h391l576 -1434h-305l-467 1214l-465 -1214h-307z" />
    <glyph glyph-name="Mu" unicode="&#x39c;" horiz-adv-x="1998" 
d="M1860 0h-277v1286l-373 -1286h-419l-375 1286v-1286h-277v1434h508l352 -1229l355 1229h506v-1434z" />
    <glyph glyph-name="Nu" unicode="&#x39d;" horiz-adv-x="1628" 
d="M416 1243v-1243h-277v1434h477l596 -1244v1244h277v-1434h-477z" />
    <glyph glyph-name="Xi" unicode="&#x39e;" horiz-adv-x="1419" 
d="M1319 1178h-1219v256h1219v-256zM1073 604h-727v246h727v-246zM90 256h1239v-256h-1239v256z" />
    <glyph glyph-name="Omicron" unicode="&#x39f;" horiz-adv-x="1669" 
d="M836 1454q151 3 291 -56t241.5 -159t161.5 -237.5t57 -284.5q3 -148 -57 -285.5t-161.5 -237.5t-241.5 -158.5t-291 -55.5q-151 -4 -292 55t-243 159.5t-162 238t-57 284.5q-3 147 57 284t162 237.5t243 159.5t292 56zM836 242q129 0 236 58t171 167.5t64 249.5
q0 211 -135 344t-336 133t-336 -133t-135 -344q0 -140 64 -249.5t171 -167.5t236 -58z" />
    <glyph glyph-name="Pi" unicode="&#x3a0;" horiz-adv-x="1538" 
d="M1122 1184h-706v-1184h-277v1434h1260v-1434h-277v1184z" />
    <glyph glyph-name="Rho" unicode="&#x3a1;" horiz-adv-x="1370" 
d="M416 553v-553h-277v1434h676q112 0 202.5 -35.5t148.5 -96t89 -139.5t31 -168q0 -117 -52.5 -216t-161.5 -162.5t-257 -63.5h-399zM416 809h379q95 0 153 49.5t58 134.5q0 86 -58 135.5t-153 49.5h-379v-369z" />
    <glyph glyph-name="Sigma" unicode="&#x3a3;" horiz-adv-x="1370" 
d="M893 831v-229l-420 -346h807v-256h-1182v297l539 420l-539 420v297h1141v-256h-766z" />
    <glyph glyph-name="Tau" unicode="&#x3a4;" horiz-adv-x="1392" 
d="M1341 1434v-256h-505v-1178h-277v1178h-508v256h1290z" />
    <glyph glyph-name="Upsilon" unicode="&#x3a5;" horiz-adv-x="1417" 
d="M350 1434l359 -607l378 607h308l-547 -865v-569h-277v569l-548 865h327z" />
    <glyph glyph-name="Phi" unicode="&#x3a6;" horiz-adv-x="1699" 
d="M713 0v164h-88q-115 -2 -217.5 42.5t-174 120.5t-112 178t-39.5 212q-2 143 68.5 271t197.5 206.5t277 75.5h88v164h276v-164h86q150 3 277 -75.5t197.5 -206.5t68.5 -271q1 -110 -39.5 -212t-112 -178t-174 -120.5t-217.5 -42.5h-86v-164h-276zM649 410h64v614h-64
q-134 0 -217.5 -85.5t-83.5 -221.5t83.5 -221.5t217.5 -85.5zM989 410h62q134 0 217.5 85.5t83.5 221.5t-83.5 221.5t-217.5 85.5h-62v-614z" />
    <glyph glyph-name="Chi" unicode="&#x3a7;" horiz-adv-x="1464" 
d="M31 0l542 778l-460 656h327l293 -445l291 445h328l-461 -656l543 -778h-328l-373 559l-375 -559h-327z" />
    <glyph glyph-name="Psi" unicode="&#x3a8;" horiz-adv-x="1675" 
d="M1284 1434h266v-349q0 -289 -151.5 -473.5t-421.5 -222.5v-389h-277v389q-271 38 -423 222.5t-152 473.5v349h266v-359q0 -176 79.5 -285.5t229.5 -144.5v789h277v-789q149 36 228 145t79 285v359z" />
    <glyph glyph-name="uni03A9" unicode="&#x3a9;" horiz-adv-x="1617" 
d="M1536 786q0 -314 -276 -534h235v-252h-610v242q155 76 264 209q106 132 106 309q0 195 -125 314.5t-321 119.5q-194 0 -319 -120t-125 -314q0 -176 106 -309q110 -134 262 -209v-242h-610v252h235q-276 220 -276 534q-1 139 53.5 263t150.5 214t232.5 141.5t290.5 49.5
q157 2 294 -49.5t232 -141.5t149 -214t52 -263z" />
    <glyph glyph-name="Iotadieresis" unicode="&#x3aa;" horiz-adv-x="555" 
d="M139 0v1434h277v-1434h-277zM-49 1608v264h260v-264h-260zM344 1608v264h260v-264h-260z" />
    <glyph glyph-name="Upsilondieresis" unicode="&#x3ab;" horiz-adv-x="1417" 
d="M350 1434l359 -607l378 607h308l-547 -865v-569h-277v569l-548 865h327zM381 1608v264h260v-264h-260zM774 1608v264h260v-264h-260z" />
    <glyph glyph-name="alphatonos" unicode="&#x3ac;" horiz-adv-x="1351" 
d="M70 483q0 231 117.5 369.5t293.5 138.5q181 0 275 -141v121h260v-682q0 -80 67 -80q54 0 72 70l188 -99q-36 -98 -110 -149t-174 -51q-106 0 -175 52.5t-89 135.5q-74 -188 -308 -188q-180 0 -298.5 136.5t-118.5 366.5zM760 487q0 136 -58 207.5t-157 71.5
q-97 0 -155 -73.5t-58 -209.5q0 -132 58.5 -205t154.5 -73q99 0 157 72.5t58 209.5zM532 1137l72 272h309v-33l-161 -239h-220z" />
    <glyph glyph-name="epsilontonos" unicode="&#x3ad;" horiz-adv-x="972" 
d="M74 272q0 90 48.5 147t127.5 75q-73 25 -114.5 83.5t-41.5 139.5q0 127 106.5 200.5t280.5 73.5q151 0 249 -69.5t140 -196.5l-208 -98q-20 78 -68 121t-117 43q-63 0 -102 -28t-39 -75q0 -44 35 -70t92 -26h72v-199h-91q-56 0 -89 -24.5t-33 -65.5q0 -106 161 -106
q95 0 152.5 53t71.5 141l208 -92q-25 -143 -137 -231t-286 -88q-193 0 -305.5 78t-112.5 214zM379 1137l72 272h309v-33l-162 -239h-219z" />
    <glyph glyph-name="etatonos" unicode="&#x3ae;" horiz-adv-x="1157" 
d="M770 -406v969q0 99 -50.5 157t-133.5 58q-92 0 -145.5 -62t-53.5 -173v-543h-262v971h262v-123q50 70 125.5 106.5t163.5 36.5q162 0 259 -95.5t97 -260.5v-1041h-262zM512 1137l72 272h309v-33l-162 -239h-219z" />
    <glyph glyph-name="iotatonos" unicode="&#x3af;" horiz-adv-x="753" 
d="M125 307v664h262v-668q0 -88 74 -88q56 0 71 61l213 -118q-30 -82 -107 -130t-185 -48q-158 0 -243 88t-85 239zM147 1137l72 272h309v-33l-161 -239h-220z" />
    <glyph glyph-name="upsilondieresistonos" unicode="&#x3b0;" horiz-adv-x="1161" 
d="M125 430v541h262v-549q0 -102 50.5 -156.5t144.5 -54.5q93 0 143.5 54.5t50.5 156.5v549h260v-541q0 -213 -114 -331.5t-340 -118.5q-228 0 -342.5 118.5t-114.5 331.5zM428 1124l39 306h274v-33l-129 -273h-184zM129 1145v264h260v-264h-260zM778 1145v264h260v-264
h-260z" />
    <glyph glyph-name="alpha" unicode="&#x3b1;" horiz-adv-x="1351" 
d="M70 483q0 231 117.5 369.5t293.5 138.5q181 0 275 -141v121h260v-682q0 -80 67 -80q54 0 72 70l188 -99q-36 -98 -110 -149t-174 -51q-106 0 -175 52.5t-89 135.5q-74 -188 -308 -188q-180 0 -298.5 136.5t-118.5 366.5zM760 487q0 136 -58 207.5t-157 71.5
q-97 0 -155 -73.5t-58 -209.5q0 -132 58.5 -205t154.5 -73q99 0 157 72.5t58 209.5z" />
    <glyph glyph-name="beta" unicode="&#x3b2;" horiz-adv-x="1161" 
d="M125 -406v1459q0 125 55 217.5t146 138t206 45.5q175 0 281.5 -90.5t106.5 -228.5q0 -107 -47 -181t-128 -106q148 -28 239 -134.5t91 -279.5q0 -205 -112.5 -329.5t-303.5 -124.5q-83 0 -157 31t-115 89v-506h-262zM823 446q0 131 -87.5 202t-233.5 71h-23v205h21
q76 2 127 48t51 120q0 65 -38.5 101t-102.5 36q-70 0 -110 -45.5t-40 -126.5v-615q0 -109 61.5 -172t159.5 -63q100 0 157.5 62t57.5 177z" />
    <glyph glyph-name="gamma" unicode="&#x3b3;" horiz-adv-x="1153" 
d="M446 -406v568l-411 809h280l263 -553l260 553h280l-411 -809v-568h-261z" />
    <glyph glyph-name="delta" unicode="&#x3b4;" horiz-adv-x="1146" 
d="M70 471q0 152 70.5 263.5t176.5 158.5q-101 19 -161 85t-60 167q0 137 131.5 223t329.5 86q133 0 236 -33.5t194 -107.5l-133 -193q-120 105 -291 105q-94 0 -148.5 -32.5t-54.5 -88.5t55 -86.5t158 -30.5q225 0 364.5 -143t139.5 -355q0 -222 -141.5 -365.5
t-362.5 -143.5q-218 0 -360.5 141t-142.5 350zM821 485q0 121 -69.5 196t-178.5 75t-178 -75t-69 -196t69 -195.5t178 -74.5t178.5 74.5t69.5 195.5z" />
    <glyph glyph-name="epsilon" unicode="&#x3b5;" horiz-adv-x="972" 
d="M74 272q0 90 48.5 147t127.5 75q-73 25 -114.5 83.5t-41.5 139.5q0 127 106.5 200.5t280.5 73.5q151 0 249 -69.5t140 -196.5l-208 -98q-20 78 -68 121t-117 43q-63 0 -102 -28t-39 -75q0 -44 35 -70t92 -26h72v-199h-91q-56 0 -89 -24.5t-33 -65.5q0 -106 161 -106
q95 0 152.5 53t71.5 141l208 -92q-25 -143 -137 -231t-286 -88q-193 0 -305.5 78t-112.5 214z" />
    <glyph glyph-name="zeta" unicode="&#x3b6;" horiz-adv-x="1075" 
d="M930 -426l-193 131q76 61 76 139q0 64 -45.5 100t-140.5 36q-117 0 -219 39t-177 109.5t-118 176.5t-43 234q0 258 155 426q151 164 389 243h-516v226h934v-209q-362 -119 -534 -278.5t-172 -379.5q0 -171 102.5 -263.5t278.5 -92.5q168 0 265 -87.5t97 -250.5
q0 -181 -139 -299z" />
    <glyph glyph-name="eta" unicode="&#x3b7;" horiz-adv-x="1157" 
d="M770 -406v969q0 99 -50.5 157t-133.5 58q-92 0 -145.5 -62t-53.5 -173v-543h-262v971h262v-123q50 70 125.5 106.5t163.5 36.5q162 0 259 -95.5t97 -260.5v-1041h-262z" />
    <glyph glyph-name="theta" unicode="&#x3b8;" horiz-adv-x="1159" 
d="M70 717q0 357 135.5 547t374.5 190t374.5 -190t135.5 -547q0 -358 -134.5 -547.5t-375.5 -189.5q-239 0 -374.5 190t-135.5 547zM330 829h501q-12 188 -76 289t-175 101q-112 0 -175.5 -101t-74.5 -289zM831 604h-501q21 -389 250 -389q117 0 178 97.5t73 291.5z" />
    <glyph glyph-name="iota" unicode="&#x3b9;" horiz-adv-x="753" 
d="M125 307v664h262v-668q0 -88 74 -88q56 0 71 61l213 -118q-30 -82 -107 -130t-185 -48q-158 0 -243 88t-85 239z" />
    <glyph glyph-name="kappa" unicode="&#x3ba;" horiz-adv-x="1060" 
d="M125 0v971h256v-344l297 344h323l-419 -459l440 -512h-315l-326 391v-391h-256z" />
    <glyph glyph-name="lambda" unicode="&#x3bb;" horiz-adv-x="1097" 
d="M1075 0h-272l-256 668l-250 -668h-272l395 997l-45 117q-34 88 -117 88q-77 0 -111 -69l-167 135q47 81 125 123.5t176 42.5q121 0 197 -55.5t118 -166.5z" />
    <glyph glyph-name="uni03BC" unicode="&#x3bc;" horiz-adv-x="1171" 
d="M125 -406v1377h262v-551q0 -215 191 -215q97 0 152.5 71t55.5 195v500h261v-971h-261v143q-33 -79 -92.5 -121t-140.5 -42q-115 0 -166 57v-443h-262z" />
    <glyph glyph-name="nu" unicode="&#x3bd;" horiz-adv-x="1153" 
d="M311 971l267 -725l264 725h276l-383 -971h-317l-383 971h276z" />
    <glyph glyph-name="xi" unicode="&#x3be;" horiz-adv-x="1038" 
d="M895 -426l-193 123q74 65 74 139q0 64 -50 104t-151 40q-235 0 -368 110t-133 305q0 129 66.5 226t183.5 145q-90 39 -144.5 118.5t-54.5 182.5q0 178 124 282.5t320 104.5q192 0 309 -93t140 -269l-252 -64q-7 96 -58.5 146.5t-138.5 50.5q-86 0 -137 -48.5t-51 -125.5
q0 -87 63.5 -138t171.5 -51h158v-221h-164q-132 0 -206 -58.5t-74 -158.5q0 -106 75.5 -159.5t237.5 -53.5q178 0 283.5 -91.5t105.5 -264.5q0 -84 -37 -157t-100 -124z" />
    <glyph glyph-name="omicron" unicode="&#x3bf;" horiz-adv-x="1155" 
d="M70 485q0 219 143.5 362.5t364.5 143.5t364 -143.5t143 -362.5q0 -217 -144 -361t-363 -144t-363.5 144t-144.5 361zM829 485q0 121 -70.5 196t-180.5 75t-181 -75.5t-71 -195.5t71 -195t181 -75t180.5 75t70.5 195z" />
    <glyph glyph-name="pi" unicode="&#x3c0;" horiz-adv-x="1421" 
d="M756 307v438h-213v-745h-260v745h-252v226h1237v-226h-252v-442q0 -84 74 -84q54 0 75 62l209 -111q-40 -95 -115.5 -142.5t-175.5 -47.5q-158 0 -242.5 88t-84.5 239z" />
    <glyph glyph-name="rho" unicode="&#x3c1;" horiz-adv-x="1212" 
d="M125 -406v848q0 263 137 406t371 143q230 0 370 -141t140 -367q0 -224 -130 -363.5t-333 -139.5q-100 0 -179.5 37.5t-123.5 105.5v-529h-252zM881 483q0 131 -70 207t-182 76t-182 -76t-70 -207q0 -127 70.5 -203.5t181.5 -76.5q112 0 182 75.5t70 204.5z" />
    <glyph glyph-name="uni03C2" unicode="&#x3c2;" horiz-adv-x="1054" 
d="M891 -426l-184 137q75 63 75 142q0 57 -46 92t-140 35q-232 0 -379 141.5t-147 370.5q0 143 69 258t183 178t249 63q186 0 312.5 -93t158.5 -257l-231 -78q-13 92 -76.5 145.5t-156.5 53.5q-63 0 -119.5 -30.5t-94.5 -93.5t-38 -146q0 -129 84.5 -204t226.5 -77
q192 -5 296.5 -91t104.5 -251q0 -169 -147 -295z" />
    <glyph glyph-name="sigma" unicode="&#x3c3;" horiz-adv-x="1155" 
d="M70 475q0 220 150.5 358t404.5 138h469v-215h-170q73 -41 113 -123t40 -191q0 -127 -64 -232.5t-180 -167.5t-260 -62q-218 0 -360.5 141.5t-142.5 353.5zM821 475q0 115 -69.5 187.5t-176.5 72.5t-178 -73t-71 -187q0 -115 70 -187.5t177 -72.5t177.5 73t70.5 187z" />
    <glyph glyph-name="tau" unicode="&#x3c4;" horiz-adv-x="948" 
d="M281 307v445h-246v219h825v-219h-317v-449q0 -88 73 -88q57 0 72 61l213 -118q-29 -82 -107 -130t-186 -48q-158 0 -242.5 88t-84.5 239z" />
    <glyph glyph-name="upsilon" unicode="&#x3c5;" horiz-adv-x="1161" 
d="M125 430v541h262v-549q0 -102 50.5 -156.5t144.5 -54.5q93 0 143.5 54.5t50.5 156.5v549h260v-541q0 -213 -114 -331.5t-340 -118.5q-228 0 -342.5 118.5t-114.5 331.5z" />
    <glyph glyph-name="phi" unicode="&#x3c6;" horiz-adv-x="1486" 
d="M1417 485q0 -215 -137.5 -350t-343.5 -135h-62v-406h-262v406h-61q-206 0 -343.5 135t-137.5 350t137.5 350.5t343.5 135.5h61v463h262v-463h62q206 0 343.5 -135.5t137.5 -350.5zM580 231h32v510h-32q-124 0 -194.5 -67.5t-70.5 -188.5t70.5 -187.5t194.5 -66.5z
M1171 485q0 121 -70 188.5t-194 67.5h-33v-510h33q124 0 194 66.5t70 187.5z" />
    <glyph glyph-name="chi" unicode="&#x3c7;" horiz-adv-x="1050" 
d="M23 -406l358 717l-328 660h297l174 -391l176 391h297l-327 -660l358 -717h-297l-207 459l-205 -459h-296z" />
    <glyph glyph-name="psi" unicode="&#x3c8;" horiz-adv-x="1411" 
d="M580 231v1203h251v-1203q95 5 149 63.5t54 178.5v498h252v-492q0 -221 -119.5 -346t-335.5 -133v-406h-251v406q-216 8 -335.5 133t-119.5 346v492h252v-498q0 -120 54 -178.5t149 -63.5z" />
    <glyph glyph-name="omega" unicode="&#x3c9;" horiz-adv-x="1619" 
d="M684 438v318h252v-318q0 -227 172 -227q91 0 140.5 76t49.5 217q0 129 -44 254t-111 213h268q61 -87 100 -207.5t39 -247.5q0 -242 -102 -389t-324 -147q-220 0 -315 194q-95 -194 -313 -194q-222 0 -324 147t-102 389q0 127 39 247.5t100 207.5h268q-67 -88 -111 -213
t-44 -254q0 -141 49.5 -217t140.5 -76q172 0 172 227z" />
    <glyph glyph-name="iotadieresis" unicode="&#x3ca;" horiz-adv-x="753" 
d="M125 307v664h262v-668q0 -88 74 -88q56 0 71 61l213 -118q-30 -82 -107 -130t-185 -48q-158 0 -243 88t-85 239zM-72 1145v264h260v-264h-260zM322 1145v264h260v-264h-260z" />
    <glyph glyph-name="upsilondieresis" unicode="&#x3cb;" horiz-adv-x="1161" 
d="M125 430v541h262v-549q0 -102 50.5 -156.5t144.5 -54.5q93 0 143.5 54.5t50.5 156.5v549h260v-541q0 -213 -114 -331.5t-340 -118.5q-228 0 -342.5 118.5t-114.5 331.5zM256 1145v264h260v-264h-260zM649 1145v264h260v-264h-260z" />
    <glyph glyph-name="omicrontonos" unicode="&#x3cc;" horiz-adv-x="1155" 
d="M70 485q0 219 143.5 362.5t364.5 143.5t364 -143.5t143 -362.5q0 -217 -144 -361t-363 -144t-363.5 144t-144.5 361zM829 485q0 121 -70.5 196t-180.5 75t-181 -75.5t-71 -195.5t71 -195t181 -75t180.5 75t70.5 195zM469 1137l72 272h309v-33l-162 -239h-219z" />
    <glyph glyph-name="upsilontonos" unicode="&#x3cd;" horiz-adv-x="1161" 
d="M125 430v541h262v-549q0 -102 50.5 -156.5t144.5 -54.5q93 0 143.5 54.5t50.5 156.5v549h260v-541q0 -213 -114 -331.5t-340 -118.5q-228 0 -342.5 118.5t-114.5 331.5zM473 1137l72 272h309v-33l-162 -239h-219z" />
    <glyph glyph-name="omegatonos" unicode="&#x3ce;" horiz-adv-x="1619" 
d="M684 438v318h252v-318q0 -227 172 -227q91 0 140.5 76t49.5 217q0 129 -44 254t-111 213h268q61 -87 100 -207.5t39 -247.5q0 -242 -102 -389t-324 -147q-220 0 -315 194q-95 -194 -313 -194q-222 0 -324 147t-102 389q0 127 39 247.5t100 207.5h268q-67 -88 -111 -213
t-44 -254q0 -141 49.5 -217t140.5 -76q172 0 172 227zM702 1137l72 272h309v-33l-161 -239h-220z" />
    <glyph glyph-name="uni0400" unicode="&#x400;" horiz-adv-x="1327" 
d="M139 1434h1078v-256h-801v-312h739v-256h-739v-354h821v-256h-1098v1434zM535 1599l-265 240v33h322l174 -273h-231z" />
    <glyph glyph-name="uni0401" unicode="&#x401;" horiz-adv-x="1327" 
d="M139 1434h1078v-256h-801v-312h739v-256h-739v-354h821v-256h-1098v1434zM324 1608v264h260v-264h-260zM717 1608v264h260v-264h-260z" />
    <glyph glyph-name="uni0402" unicode="&#x402;" horiz-adv-x="1732" 
d="M1227 -225v32q81 152 117 277t36 274q0 402 -270 402q-136 0 -208.5 -96.5t-72.5 -260.5v-403h-266v1194h-512v240h1290v-240h-512v-389q51 87 144 136.5t209 49.5q226 0 346 -170q119 -168 119 -436q0 -130 -23 -252q-21 -107 -51 -184q-25 -65 -80 -174h-266z" />
    <glyph glyph-name="uni0403" unicode="&#x403;" horiz-adv-x="1275" 
d="M1225 1178h-809v-1178h-277v1434h1086v-256zM557 1599l174 273h322v-33l-265 -240h-231z" />
    <glyph glyph-name="uni0404" unicode="&#x404;" horiz-adv-x="1617" 
d="M1303 653l251 -100q-59 -262 -249 -418q-189 -155 -484 -155q-165 0 -304 56t-234 154t-148 234t-53 293q-2 152 55 289.5t155.5 236.5t237 156.5t291.5 54.5q137 0 252 -37.5t196.5 -103.5t136 -151.5t79.5 -186.5l-254 -113q-31 158 -140 250t-272 92q-165 0 -284 -95
t-156 -259h588v-256h-590q32 -169 153 -266t293 -97q196 0 319.5 114.5t160.5 307.5z" />
    <glyph glyph-name="uni0405" unicode="&#x405;" horiz-adv-x="1335" 
d="M657 1208q-101 0 -163 -43t-62 -110q0 -82 85 -132t249 -81q267 -50 386.5 -148.5t119.5 -279.5q0 -190 -157 -312t-415 -122q-213 0 -393 98q-182 102 -264 338l246 153q42 -165 150.5 -251.5t267.5 -86.5q129 0 206.5 47t77.5 125q0 81 -73 128.5t-254 76.5
q-508 77 -508 449q0 167 145 282t373 115q193 0 335 -92t201 -260l-239 -139q-67 245 -314 245z" />
    <glyph glyph-name="uni0406" unicode="&#x406;" horiz-adv-x="555" 
d="M139 0v1434h277v-1434h-277z" />
    <glyph glyph-name="uni0407" unicode="&#x407;" horiz-adv-x="555" 
d="M139 0v1434h277v-1434h-277zM-49 1608v264h260v-264h-260zM344 1608v264h260v-264h-260z" />
    <glyph glyph-name="uni0408" unicode="&#x408;" horiz-adv-x="1251" 
d="M850 1434h276v-942q0 -81 -17 -153.5t-56 -139t-97 -114.5t-146 -76.5t-198 -28.5q-242 0 -381 137.5t-139 351.5q0 152 72 256l254 -100q-53 -71 -53 -168t67.5 -159t173.5 -62q124 0 184 75.5t60 214.5v908z" />
    <glyph glyph-name="uni0409" unicode="&#x409;" horiz-adv-x="2119" 
d="M45 0v39q123 225 123 688v707h1018v-564h362q219 0 350.5 -121.5t131.5 -312.5q0 -195 -130.5 -315.5t-351.5 -120.5h-639v1184h-465v-432q0 -532 -114 -752h-285zM1186 256h362q92 0 148.5 49t56.5 131q0 81 -56 129.5t-149 48.5h-362v-358z" />
    <glyph glyph-name="uni040A" unicode="&#x40a;" horiz-adv-x="2050" 
d="M139 0v1434h277v-564h467v564h276v-564h320q219 0 350 -121.5t131 -312.5q0 -196 -130 -316t-351 -120h-596v614h-467v-614h-277zM1159 256h320q92 0 148 49t56 131q0 81 -55.5 129.5t-148.5 48.5h-320v-358z" />
    <glyph glyph-name="uni040B" unicode="&#x40b;" horiz-adv-x="1687" 
d="M559 0v1178h-508v256h1290v-256h-505v-365q46 85 135.5 131.5t197.5 46.5q180 0 280.5 -99t100.5 -276v-616h-276v545q0 100 -55 157.5t-152 57.5q-99 0 -165 -71.5t-66 -190.5v-498h-277z" />
    <glyph glyph-name="uni040C" unicode="&#x40c;" horiz-adv-x="1386" 
d="M139 0v1434h277v-557l551 557h360l-680 -684l717 -750h-383l-565 602v-602h-277zM573 1599l175 273h321v-33l-264 -240h-232z" />
    <glyph glyph-name="uni040D" unicode="&#x40d;" horiz-adv-x="1628" 
d="M1212 1243l-596 -1243h-477v1434h277v-1244l596 1244h477v-1434h-277v1243zM684 1599l-264 240v33h321l174 -273h-231z" />
    <glyph glyph-name="uni040E" unicode="&#x40e;" horiz-adv-x="1484" 
d="M231 0l357 541l-561 893h331l387 -637l398 637h315l-905 -1434h-322zM1014 1827q0 -110 -75 -173t-191 -63t-190.5 63t-74.5 173q0 22 2 28h177l-3 -18q0 -35 25.5 -58.5t63.5 -23.5q40 0 64 23t24 59l-2 18h178q2 -6 2 -28z" />
    <glyph glyph-name="uni040F" unicode="&#x40f;" horiz-adv-x="1406" 
d="M580 -225v225h-441v1434h277v-1182h575v1182h277v-1436h-439v-223h-249z" />
    <glyph glyph-name="uni0410" unicode="&#x410;" horiz-adv-x="1589" 
d="M23 0l577 1434h391l576 -1434h-305l-125 324h-684l-123 -324h-307zM549 573h493l-247 641z" />
    <glyph glyph-name="uni0411" unicode="&#x411;" horiz-adv-x="1454" 
d="M139 0v1434h1037v-256h-760v-316h461q217 0 352 -114t135 -316q0 -200 -135 -316t-352 -116h-738zM416 256h467q92 0 148 49t56 127t-56 126t-148 48h-467v-350z" />
    <glyph glyph-name="uni0412" unicode="&#x412;" horiz-adv-x="1447" 
d="M139 0v1434h707q203 0 332 -104.5t129 -268.5q0 -110 -59.5 -193.5t-170.5 -130.5q131 -36 206 -125t75 -217q0 -179 -134.5 -287t-351.5 -108h-733zM416 860h420q97 0 148.5 42.5t51.5 121.5q0 71 -54.5 112.5t-145.5 41.5h-420v-318zM416 256h461q92 0 148 48t56 126
q0 79 -56 129.5t-148 50.5h-461v-354z" />
    <glyph glyph-name="uni0413" unicode="&#x413;" horiz-adv-x="1275" 
d="M1225 1178h-809v-1178h-277v1434h1086v-256z" />
    <glyph glyph-name="uni0414" unicode="&#x414;" horiz-adv-x="1495" 
d="M37 -225v471h143q89 115 129 215q41 104 53 211q13 120 13 301v461h909v-1188h174v-471h-250v225h-919v-225h-252zM477 246h541v942h-387v-215q0 -259 -31 -420q-27 -151 -123 -307z" />
    <glyph glyph-name="uni0415" unicode="&#x415;" horiz-adv-x="1327" 
d="M139 1434h1078v-256h-801v-312h739v-256h-739v-354h821v-256h-1098v1434z" />
    <glyph glyph-name="uni0416" unicode="&#x416;" horiz-adv-x="2217" 
d="M1479 750l716 -750h-383l-565 602v-602h-276v602l-563 -602h-385l716 750l-678 684h361l549 -557v557h276v-557l551 557h361z" />
    <glyph glyph-name="uni0417" unicode="&#x417;" horiz-adv-x="1224" 
d="M74 438l252 94q8 -131 88 -216t217 -85q116 0 182 46.5t66 136.5q0 95 -61.5 143.5t-170.5 48.5h-82v236h94q98 0 150.5 46t52.5 132q0 88 -64.5 138t-176.5 50q-107 0 -176.5 -59t-92.5 -174l-229 100q37 172 167.5 275.5t338.5 103.5q218 0 353.5 -113t135.5 -301
q0 -118 -59 -199.5t-156 -111.5q106 -33 171 -116.5t65 -213.5q0 -203 -144 -311q-141 -108 -368 -108q-229 0 -374.5 125t-178.5 333z" />
    <glyph glyph-name="uni0418" unicode="&#x418;" horiz-adv-x="1628" 
d="M1212 1243l-596 -1243h-477v1434h277v-1244l596 1244h477v-1434h-277v1243z" />
    <glyph glyph-name="uni0419" unicode="&#x419;" horiz-adv-x="1628" 
d="M1212 1243l-596 -1243h-477v1434h277v-1244l596 1244h477v-1434h-277v1243zM1065 1827q0 -110 -75 -173t-191 -63t-190 63t-74 173q0 22 2 28h176l-2 -18q0 -35 25 -58.5t63 -23.5q40 0 64 23t24 59l-2 18h178q2 -6 2 -28z" />
    <glyph glyph-name="uni041A" unicode="&#x41a;" horiz-adv-x="1386" 
d="M139 0v1434h277v-557l551 557h360l-680 -684l717 -750h-383l-565 602v-602h-277z" />
    <glyph glyph-name="uni041B" unicode="&#x41b;" horiz-adv-x="1474" 
d="M45 0v39q123 225 123 688v707h1167v-1434h-276v1184h-615v-432q0 -532 -114 -752h-285z" />
    <glyph glyph-name="uni041C" unicode="&#x41c;" horiz-adv-x="1998" 
d="M1860 0h-277v1286l-373 -1286h-419l-375 1286v-1286h-277v1434h508l352 -1229l355 1229h506v-1434z" />
    <glyph glyph-name="uni041D" unicode="&#x41d;" horiz-adv-x="1538" 
d="M1122 580h-706v-580h-277v1434h277v-605h706v605h277v-1434h-277v580z" />
    <glyph glyph-name="uni041E" unicode="&#x41e;" horiz-adv-x="1669" 
d="M836 1454q151 3 291 -56t241.5 -159t161.5 -237.5t57 -284.5q3 -148 -57 -285.5t-161.5 -237.5t-241.5 -158.5t-291 -55.5q-151 -4 -292 55t-243 159.5t-162 238t-57 284.5q-3 147 57 284t162 237.5t243 159.5t292 56zM836 242q129 0 236 58t171 167.5t64 249.5
q0 211 -135 344t-336 133t-336 -133t-135 -344q0 -140 64 -249.5t171 -167.5t236 -58z" />
    <glyph glyph-name="uni041F" unicode="&#x41f;" horiz-adv-x="1538" 
d="M1122 1184h-706v-1184h-277v1434h1260v-1434h-277v1184z" />
    <glyph glyph-name="uni0420" unicode="&#x420;" horiz-adv-x="1370" 
d="M416 553v-553h-277v1434h676q112 0 202.5 -35.5t148.5 -96t89 -139.5t31 -168q0 -117 -52.5 -216t-161.5 -162.5t-257 -63.5h-399zM416 809h379q95 0 153 49.5t58 134.5q0 86 -58 135.5t-153 49.5h-379v-369z" />
    <glyph glyph-name="uni0421" unicode="&#x421;" horiz-adv-x="1617" 
d="M365 717q0 -221 130 -353.5t328 -132.5q196 0 319.5 114.5t160.5 307.5l251 -100q-59 -262 -249 -418q-189 -155 -484 -155q-165 0 -304 56t-234 154t-148 234t-53 293q-2 152 55 289.5t155.5 236.5t237 156.5t291.5 54.5q137 0 252 -37.5t196.5 -103.5t136 -151.5
t79.5 -186.5l-254 -113q-31 158 -140 250t-272 92q-195 0 -324.5 -134.5t-129.5 -352.5z" />
    <glyph glyph-name="uni0422" unicode="&#x422;" horiz-adv-x="1392" 
d="M1341 1434v-256h-505v-1178h-277v1178h-508v256h1290z" />
    <glyph glyph-name="uni0423" unicode="&#x423;" horiz-adv-x="1484" 
d="M231 0l357 541l-561 893h331l387 -637l398 637h315l-905 -1434h-322z" />
    <glyph glyph-name="uni0424" unicode="&#x424;" horiz-adv-x="1724" 
d="M1001 0h-276v164h-100q-229 0 -386 159.5t-157 393.5q0 150 71.5 277t196.5 201.5t275 74.5h100v164h276v-164h99q112 0 213 -44t173 -118.5t114 -176.5t42 -214q0 -234 -156.5 -393.5t-385.5 -159.5h-99v-164zM649 420h76v594h-76q-129 0 -212 -82t-83 -215t83 -215
t212 -82zM1075 1014h-74v-594h74q129 0 213 82t84 215t-84 215t-213 82z" />
    <glyph glyph-name="uni0425" unicode="&#x425;" horiz-adv-x="1464" 
d="M31 0l542 778l-460 656h327l293 -445l291 445h328l-461 -656l543 -778h-328l-373 559l-375 -559h-327z" />
    <glyph glyph-name="uni0426" unicode="&#x426;" horiz-adv-x="1464" 
d="M1176 -225v225h-1037v1434h277v-1182h561v1182h276v-1182h174v-477h-251z" />
    <glyph glyph-name="uni0427" unicode="&#x427;" horiz-adv-x="1449" 
d="M1034 0v461q-155 -137 -383 -137q-244 0 -385 149.5t-141 386.5v574h276v-535q0 -152 79.5 -235.5t221.5 -83.5q94 0 173.5 39.5t158.5 125.5v689h277v-1434h-277z" />
    <glyph glyph-name="uni0428" unicode="&#x428;" horiz-adv-x="1996" 
d="M1581 1434h277v-1434h-1719v1434h277v-1182h444v1182h277v-1182h444v1182z" />
    <glyph glyph-name="uni0429" unicode="&#x429;" horiz-adv-x="2068" 
d="M1782 -225v225h-1643v1434h277v-1182h444v1182h277v-1182h444v1182h277v-1182h174v-477h-250z" />
    <glyph glyph-name="uni042A" unicode="&#x42a;" horiz-adv-x="1665" 
d="M1575 432q0 -200 -135.5 -316t-352.5 -116h-733v1178h-303v256h580v-572h456q218 0 353 -114t135 -316zM1298 432q0 78 -56 126t-148 48h-463v-350h463q92 0 148 49t56 127z" />
    <glyph glyph-name="uni042B" unicode="&#x42b;" horiz-adv-x="2004" 
d="M139 0v1434h277v-572h456q218 0 353 -114t135 -316q0 -200 -135.5 -316t-352.5 -116h-733zM416 256h463q92 0 148 49t56 127t-56 126t-148 48h-463v-350zM1589 0v1434h277v-1434h-277z" />
    <glyph glyph-name="uni042C" unicode="&#x42c;" horiz-adv-x="1449" 
d="M139 0v1434h277v-572h456q218 0 353 -114t135 -316q0 -200 -135.5 -316t-352.5 -116h-733zM416 256h463q92 0 148 49t56 127t-56 126t-148 48h-463v-350z" />
    <glyph glyph-name="uni042D" unicode="&#x42d;" horiz-adv-x="1617" 
d="M63 553l254 100q33 -192 158 -307t322 -115q172 0 293.5 97t156.5 266h-600v256h598q-38 164 -160 258q-125 96 -284 96q-164 0 -273.5 -92.5t-140.5 -249.5l-252 113q25 98 80 183t137.5 152t199 105.5t253.5 38.5q155 2 292 -54t234 -154.5t152 -236t53 -292.5
q0 -213 -87.5 -379.5t-256.5 -262t-395 -95.5q-295 0 -484 155q-188 157 -250 418z" />
    <glyph glyph-name="uni042E" unicode="&#x42e;" horiz-adv-x="2301" 
d="M2220 717q3 -148 -57 -285.5t-162 -237.5t-242 -158.5t-291 -55.5q-270 -4 -483 170.5t-258 429.5h-311v-580h-277v1434h277v-605h307q23 173 129.5 317.5t270 227.5t345.5 80q151 3 291 -56t242 -159t162 -237.5t57 -284.5zM1939 717q0 211 -135 344t-336 133t-336 -133
t-135 -344q0 -140 64 -249.5t171 -167.5t236 -58t236 58t171 167.5t64 249.5z" />
    <glyph glyph-name="uni042F" unicode="&#x42f;" horiz-adv-x="1415" 
d="M84 0v33l448 536q-117 4 -214.5 58.5t-156.5 156t-59 230.5q0 184 128.5 302t342.5 118h703v-1434h-277v569h-133l-465 -569h-317zM590 825h409v353h-409q-102 0 -156.5 -46t-54.5 -128q0 -83 55 -131t156 -48z" />
    <glyph glyph-name="uni0430" unicode="&#x430;" horiz-adv-x="1089" 
d="M84 281q0 152 101.5 231.5t277.5 79.5q87 0 166 -21l86 -20v61q0 81 -54 127.5t-145 46.5q-86 0 -139.5 -42.5t-71.5 -118.5l-227 61q39 144 152.5 224.5t287.5 80.5q220 0 333.5 -100.5t113.5 -292.5v-598h-240v150q-95 -170 -322 -170q-131 0 -225 83t-94 218zM715 358
v9l-60 18q-98 29 -151 29q-73 0 -113.5 -30.5t-40.5 -86.5q0 -55 40.5 -86t117.5 -31q93 0 150 47.5t57 130.5z" />
    <glyph glyph-name="uni0431" unicode="&#x431;" horiz-adv-x="1161" 
d="M70 594q0 300 143 471q143 175 377 240q171 48 224 86.5t44 113.5h227q2 -8 2 -37q0 -140 -93 -220.5t-281 -125.5q-190 -44 -284.5 -123t-125.5 -221q48 100 137.5 156.5t204.5 56.5q143 0 245.5 -69t151 -182.5t48.5 -258.5q0 -218 -138.5 -359.5t-361.5 -141.5
q-133 0 -234.5 48.5t-163 134t-92 194t-30.5 237.5zM836 483q0 128 -71 204.5t-185 76.5q-112 0 -184 -77.5t-72 -203.5q0 -121 73 -197.5t183 -76.5q114 0 185 74t71 200z" />
    <glyph glyph-name="uni0432" unicode="&#x432;" horiz-adv-x="1110" 
d="M125 0v971h557q139 0 224 -70t85 -186q0 -77 -39 -134t-108 -87q86 -19 133 -77t47 -149q0 -121 -91 -194.5t-241 -73.5h-567zM377 596h264q50 0 77 21.5t27 62.5q0 39 -27.5 61.5t-76.5 22.5h-264v-168zM377 209h291q51 0 80.5 25t29.5 67q0 43 -29.5 68.5t-80.5 25.5
h-291v-186z" />
    <glyph glyph-name="uni0433" unicode="&#x433;" horiz-adv-x="864" 
d="M125 0v971h706v-236h-444v-735h-262z" />
    <glyph glyph-name="uni0434" unicode="&#x434;" horiz-adv-x="1187" 
d="M53 -225v456h107q58 124 76 228q20 97 20 268v244h754v-740h127v-456h-232v225h-622v-225h-230zM412 231h366v525h-291v-60q0 -144 -17.5 -250t-57.5 -215z" />
    <glyph glyph-name="uni0435" unicode="&#x435;" horiz-adv-x="1093" 
d="M813 371l223 -88q-52 -143 -168 -223t-284 -80q-227 0 -370.5 141.5t-143.5 370.5q0 138 60 251.5t171.5 180.5t251.5 67q202 0 326.5 -119t124.5 -317q0 -59 -13 -119h-659q1 -107 74.5 -169t181.5 -62q179 0 225 166zM332 610h416l2 8q0 73 -54.5 117.5t-142.5 44.5
q-81 0 -142 -46t-79 -124z" />
    <glyph glyph-name="uni0436" unicode="&#x436;" horiz-adv-x="1587" 
d="M39 0l440 512l-420 459h318l291 -340v340h252v-340l290 340h318l-420 -459l440 -512h-309l-319 387v-387h-252v387l-320 -387h-309z" />
    <glyph glyph-name="uni0437" unicode="&#x437;" horiz-adv-x="972" 
d="M57 299l209 92q14 -88 71 -141t152 -53q162 0 162 106q0 41 -33.5 65.5t-89.5 24.5h-90v199h72q57 0 92 26t35 70q0 47 -39 75t-102 28q-69 0 -117 -43t-68 -121l-209 98q42 127 140.5 196.5t249.5 69.5q174 0 280.5 -73.5t106.5 -200.5q0 -81 -41.5 -139.5t-114.5 -83.5
q79 -18 127.5 -75t48.5 -147q0 -136 -112.5 -214t-305.5 -78q-174 0 -286.5 88t-137.5 231z" />
    <glyph glyph-name="uni0438" unicode="&#x438;" horiz-adv-x="1257" 
d="M125 0v971h256v-703l383 703h369v-971h-256v702l-381 -702h-371z" />
    <glyph glyph-name="uni0439" unicode="&#x439;" horiz-adv-x="1257" 
d="M125 0v971h256v-703l383 703h369v-971h-256v702l-381 -702h-371zM895 1364q0 -110 -75 -173t-191 -63t-190 63t-74 173q0 23 2 29h176l-2 -19q0 -35 25 -58.5t63 -23.5q40 0 64 23t24 59l-2 19h178q2 -6 2 -29z" />
    <glyph glyph-name="uni043A" unicode="&#x43a;" horiz-adv-x="1060" 
d="M125 0v971h256v-344l297 344h323l-419 -459l440 -512h-315l-326 391v-391h-256z" />
    <glyph glyph-name="uni043B" unicode="&#x43b;" horiz-adv-x="1114" 
d="M37 0v33q61 116 90 254q33 138 33 389v295h829v-971h-256v735h-317v-49q0 -440 -123 -686h-256z" />
    <glyph glyph-name="uni043C" unicode="&#x43c;" horiz-adv-x="1527" 
d="M1403 971v-971h-256v739l-219 -739h-328l-219 739v-739h-256v971h420l219 -729l219 729h420z" />
    <glyph glyph-name="uni043D" unicode="&#x43d;" horiz-adv-x="1165" 
d="M381 971v-357h403v357h256v-971h-256v379h-403v-379h-256v971h256z" />
    <glyph glyph-name="uni043E" unicode="&#x43e;" horiz-adv-x="1155" 
d="M70 485q0 219 143.5 362.5t364.5 143.5t364 -143.5t143 -362.5q0 -217 -144 -361t-363 -144t-363.5 144t-144.5 361zM829 485q0 121 -70.5 196t-180.5 75t-181 -75.5t-71 -195.5t71 -195t181 -75t180.5 75t70.5 195z" />
    <glyph glyph-name="uni043F" unicode="&#x43f;" horiz-adv-x="1136" 
d="M125 0v971h887v-971h-256v735h-375v-735h-256z" />
    <glyph glyph-name="uni0440" unicode="&#x440;" horiz-adv-x="1224" 
d="M125 971h252v-146q55 76 140.5 121t180.5 45q199 0 328 -141.5t129 -368.5q0 -226 -132 -363.5t-339 -137.5q-100 0 -179.5 39t-117.5 106v-531h-262v1377zM635 203q111 0 184.5 76.5t73.5 201.5q0 128 -73.5 206.5t-184.5 78.5q-109 0 -183.5 -79t-74.5 -206
q0 -126 74.5 -202t183.5 -76z" />
    <glyph glyph-name="uni0441" unicode="&#x441;" horiz-adv-x="1146" 
d="M592 211q114 0 180 65.5t80 174.5l242 -84q-44 -189 -173.5 -288t-322.5 -99q-238 0 -383 141t-145 371q0 143 69 258t183 178t249 63q186 0 312.5 -93t158.5 -257l-231 -78q-13 92 -76.5 145.5t-156.5 53.5q-63 0 -119.5 -30.5t-94.5 -93.5t-38 -146q0 -126 79 -203.5
t187 -77.5z" />
    <glyph glyph-name="uni0442" unicode="&#x442;" horiz-adv-x="919" 
d="M332 0v735h-305v236h866v-236h-305v-735h-256z" />
    <glyph glyph-name="uni0443" unicode="&#x443;" horiz-adv-x="1091" 
d="M803 971h266l-661 -1377h-267l260 543l-389 834h275l250 -553z" />
    <glyph glyph-name="uni0444" unicode="&#x444;" horiz-adv-x="1886" 
d="M815 -406v517q-47 -62 -126 -96.5t-171 -34.5q-198 0 -323 137t-125 366q0 231 123 369.5t315 138.5q102 0 180 -36t123 -101v580h266v-580q45 65 122 101t179 36q193 0 316 -138.5t123 -369.5q0 -229 -125 -366t-324 -137q-92 0 -169.5 34.5t-127.5 96.5v-517h-256z
M821 483q0 129 -71 206t-175 77q-110 0 -176.5 -76.5t-66.5 -206.5q0 -129 66.5 -204.5t176.5 -75.5q104 0 175 75.5t71 204.5zM1556 483q0 129 -67.5 206t-177.5 77q-102 0 -173 -77t-71 -206q0 -130 70 -205t174 -75q110 0 177.5 75.5t67.5 204.5z" />
    <glyph glyph-name="uni0445" unicode="&#x445;" horiz-adv-x="1034" 
d="M975 971l-316 -457l353 -514h-297l-199 309l-197 -309h-296l352 514l-316 457h297l160 -254l162 254h297z" />
    <glyph glyph-name="uni0446" unicode="&#x446;" horiz-adv-x="1236" 
d="M954 -225v225h-829v971h256v-735h381v735h256v-735h168v-461h-232z" />
    <glyph glyph-name="uni0447" unicode="&#x447;" horiz-adv-x="1167" 
d="M786 545v426h256v-971h-256v346q-113 -119 -307 -119q-165 0 -259.5 98t-94.5 265v381h256v-309q0 -104 49.5 -160t147.5 -56q122 0 208 99z" />
    <glyph glyph-name="uni0448" unicode="&#x448;" horiz-adv-x="1662" 
d="M125 0v971h256v-735h324v735h256v-735h321v735h256v-971h-1413z" />
    <glyph glyph-name="uni0449" unicode="&#x449;" horiz-adv-x="1759" 
d="M1477 -225v225h-1352v971h256v-735h324v735h256v-735h321v735h256v-735h168v-461h-229z" />
    <glyph glyph-name="uni044A" unicode="&#x44a;" horiz-adv-x="1232" 
d="M295 0v764h-277v207h523v-328h254q166 0 259 -84t93 -231q0 -148 -94.5 -238t-257.5 -90h-500zM541 209h241q59 0 92 30.5t33 82.5t-33 83t-92 31h-241v-227z" />
    <glyph glyph-name="uni044B" unicode="&#x44b;" horiz-adv-x="1574" 
d="M125 0v971h246v-328h254q166 0 259 -84t93 -231q0 -148 -94.5 -238t-257.5 -90h-500zM371 209h241q59 0 92 30.5t33 82.5t-33 83t-92 31h-241v-227zM1188 971h262v-971h-262v971z" />
    <glyph glyph-name="uni044C" unicode="&#x44c;" horiz-adv-x="1062" 
d="M125 0v971h246v-328h254q166 0 259 -84t93 -231q0 -148 -94.5 -238t-257.5 -90h-500zM371 209h241q59 0 92 30.5t33 82.5t-33 83t-92 31h-241v-227z" />
    <glyph glyph-name="uni044D" unicode="&#x44d;" horiz-adv-x="1146" 
d="M1077 492q0 -230 -145 -371t-383 -141q-193 0 -322.5 99t-173.5 288l242 84q14 -109 80 -174.5t180 -65.5q94 0 161 45.5t91 130.5h-270v209h270q-26 80 -90 123t-148 43q-93 0 -156.5 -53.5t-76.5 -145.5l-232 78q38 166 164 258t312 92q138 0 251 -62t179.5 -177
t66.5 -260z" />
    <glyph glyph-name="uni044E" unicode="&#x44e;" horiz-adv-x="1595" 
d="M1526 483q0 -217 -144 -360t-364 -143q-193 0 -330 110q-133 110 -168 289h-139v-379h-256v971h256v-357h143q41 170 174 273q131 104 320 104q220 0 364 -144t144 -364zM1270 483q0 121 -71 197t-181 76t-181 -76t-71 -197q0 -120 71 -194t181 -74t181 74t71 194z" />
    <glyph glyph-name="uni044F" unicode="&#x44f;" horiz-adv-x="1048" 
d="M49 20l295 359q-121 3 -201 86t-80 207q0 132 87.5 215.5t236.5 83.5h537v-971h-246v379h-51l-308 -379h-270v20zM678 578v184h-260q-53 0 -81 -24.5t-28 -67.5t28 -67.5t81 -24.5h260z" />
    <glyph glyph-name="uni0450" unicode="&#x450;" horiz-adv-x="1093" 
d="M813 371l223 -88q-52 -143 -168 -223t-284 -80q-227 0 -370.5 141.5t-143.5 370.5q0 138 60 251.5t171.5 180.5t251.5 67q202 0 326.5 -119t124.5 -317q0 -59 -13 -119h-659q1 -107 74.5 -169t181.5 -62q179 0 225 166zM332 610h416l2 8q0 73 -54.5 117.5t-142.5 44.5
q-81 0 -142 -46t-79 -124zM438 1137l-264 239v33h322l174 -272h-232z" />
    <glyph glyph-name="uni0451" unicode="&#x451;" horiz-adv-x="1093" 
d="M813 371l223 -88q-52 -143 -168 -223t-284 -80q-227 0 -370.5 141.5t-143.5 370.5q0 138 60 251.5t171.5 180.5t251.5 67q202 0 326.5 -119t124.5 -317q0 -59 -13 -119h-659q1 -107 74.5 -169t181.5 -62q179 0 225 166zM332 610h416l2 8q0 73 -54.5 117.5t-142.5 44.5
q-81 0 -142 -46t-79 -124zM227 1145v264h260v-264h-260zM621 1145v264h260v-264h-260z" />
    <glyph glyph-name="uni0452" unicode="&#x452;" horiz-adv-x="1189" 
d="M1065 623v-711q0 -156 -90 -247t-252 -91q-143 0 -234 70.5t-104 191.5l246 60q5 -40 28.5 -64.5t63.5 -24.5q38 0 60 27t22 72v655q0 100 -52.5 156.5t-146.5 56.5q-95 0 -157 -74t-62 -196v-504h-262v1124h-125v197h125v113h262v-113h275v-197h-275v-327
q44 93 129.5 143.5t192.5 50.5q164 0 260 -100.5t96 -267.5z" />
    <glyph glyph-name="uni0453" unicode="&#x453;" horiz-adv-x="864" 
d="M125 0v971h706v-236h-444v-735h-262zM362 1137l175 272h321v-33l-264 -239h-232z" />
    <glyph glyph-name="uni0454" unicode="&#x454;" horiz-adv-x="1146" 
d="M70 492q0 145 66.5 260t179.5 177t251 62q186 0 311.5 -92t163.5 -258l-231 -78q-13 92 -76.5 145.5t-156.5 53.5q-84 0 -148 -43t-90 -123h270v-209h-270q24 -85 91 -130.5t161 -45.5q114 0 180 65.5t80 174.5l242 -84q-44 -189 -173.5 -288t-322.5 -99q-238 0 -383 141
t-145 371z" />
    <glyph glyph-name="uni0455" unicode="&#x455;" horiz-adv-x="974" 
d="M53 240l205 108q68 -153 244 -153q74 0 115.5 26t41.5 68q0 52 -48.5 80.5t-176.5 46.5q-332 52 -332 291q0 123 109.5 203.5t261.5 80.5q147 0 235 -52t134 -153l-199 -108q-37 110 -164 110q-60 0 -98.5 -23t-38.5 -60q0 -43 46 -65.5t169 -41.5q184 -29 265 -102
t81 -203q0 -136 -116.5 -224.5t-292.5 -88.5q-166 0 -277.5 67t-163.5 193z" />
    <glyph glyph-name="uni0456" unicode="&#x456;" horiz-adv-x="512" 
d="M125 971h262v-971h-262v971zM117 1116v277h280v-277h-280z" />
    <glyph glyph-name="uni0457" unicode="&#x457;" horiz-adv-x="512" 
d="M125 971h262v-971h-262v971zM-72 1145v264h260v-264h-260zM322 1145v264h260v-264h-260z" />
    <glyph glyph-name="uni0458" unicode="&#x458;" horiz-adv-x="512" 
d="M125 -406v1377h262v-1377h-262zM117 1116v277h280v-277h-280z" />
    <glyph glyph-name="uni0459" unicode="&#x459;" horiz-adv-x="1658" 
d="M37 0v33q61 116 90 254q33 138 33 389v295h807v-328h254q166 0 259 -84t93 -231q0 -148 -94.5 -238t-257.5 -90h-500v735h-305v-49q0 -440 -123 -686h-256zM967 209h241q59 0 92 30.5t33 82.5t-33 83t-92 31h-241v-227z" />
    <glyph glyph-name="uni045A" unicode="&#x45a;" horiz-adv-x="1724" 
d="M125 0v971h256v-361h393v361h258v-371h258q165 0 256.5 -78t91.5 -223t-91 -222t-257 -77h-516v381h-393v-381h-256zM1032 209h254q54 0 82.5 24t28.5 68q0 90 -111 90h-254v-182z" />
    <glyph glyph-name="uni045B" unicode="&#x45b;" horiz-adv-x="1189" 
d="M387 0h-262v1434h262v-637q44 93 129.5 143.5t192.5 50.5q164 0 260 -100.5t96 -267.5v-623h-260v561q0 100 -52.5 156.5t-146.5 56.5q-95 0 -157 -74t-62 -196v-504zM0 1321h662v-197h-662v197z" />
    <glyph glyph-name="uni045C" unicode="&#x45c;" horiz-adv-x="1060" 
d="M125 0v971h256v-344l297 344h323l-419 -459l440 -512h-315l-326 391v-391h-256zM416 1137l174 272h321v-33l-264 -239h-231z" />
    <glyph glyph-name="uni045D" unicode="&#x45d;" horiz-adv-x="1257" 
d="M125 0v971h256v-703l383 703h369v-971h-256v702l-381 -702h-371zM514 1137l-264 239v33h321l174 -272h-231z" />
    <glyph glyph-name="uni045E" unicode="&#x45e;" horiz-adv-x="1091" 
d="M803 971h266l-661 -1377h-267l260 543l-389 834h275l250 -553zM809 1364q0 -110 -75 -173t-191 -63t-190 63t-74 173q0 23 2 29h176l-2 -19q0 -35 25 -58.5t63 -23.5q40 0 64 23t24 59l-2 19h178q2 -6 2 -29z" />
    <glyph glyph-name="uni045F" unicode="&#x45f;" horiz-adv-x="1140" 
d="M455 -225v225h-330v971h256v-735h379v735h256v-971h-330v-225h-231z" />
    <glyph glyph-name="uni0462" unicode="&#x462;" horiz-adv-x="1591" 
d="M1503 432q0 -200 -135 -316t-352 -116h-733v1049h-281v221h281v164h276v-164h291v-221h-291v-187h457q217 0 352 -114t135 -316zM1227 432q0 78 -56.5 126t-148.5 48h-463v-350h463q92 0 148.5 49t56.5 127z" />
    <glyph glyph-name="uni0463" unicode="&#x463;" horiz-adv-x="1015" 
d="M930 401q0 -191 -119.5 -296t-318.5 -105h-361v1049h-258v219h258v166h246v-166h332v-219h-332v-248h115q195 0 315 -105q123 -102 123 -295zM674 401q0 82 -49.5 128t-141.5 46h-106v-350h106q92 0 141.5 45.5t49.5 130.5z" />
    <glyph glyph-name="uni0472" unicode="&#x472;" horiz-adv-x="1669" 
d="M1587 717q3 -148 -57 -285.5t-161.5 -237.5t-241.5 -158.5t-291 -55.5q-151 -4 -292 55t-243 159.5t-162 238t-57 284.5q-3 147 57 284t162 237.5t243 159.5t292 56q151 3 291 -56t241.5 -159t161.5 -237.5t57 -284.5zM383 858q94 55 201 55q87 0 151 -21t156 -71
q73 -41 114 -56t93 -15q121 0 198 77q-34 167 -161 267q-124 100 -299 100q-165 0 -288.5 -91.5t-164.5 -244.5zM1288 578q-86 -56 -201 -56q-89 0 -153.5 21.5t-155.5 72.5q-65 38 -109 54t-96 16q-116 0 -198 -82q34 -163 162 -264q128 -98 299 -98q158 0 286 90
q125 91 166 246z" />
    <glyph glyph-name="uni0473" unicode="&#x473;" horiz-adv-x="1155" 
d="M1085 481q0 -218 -142.5 -359.5t-364.5 -141.5t-365 142t-143 359q0 219 144.5 364.5t363.5 145.5t363 -145.5t144 -364.5zM342 612q57 11 80 11q45 0 81 -11.5t101 -42.5q34 -17 50.5 -24t37.5 -13t41 -6q56 0 96 37q-20 93 -88.5 148t-162.5 55q-79 0 -141.5 -41
t-94.5 -113zM821 373q-47 -21 -108 -21q-46 0 -82.5 12t-100.5 42q-34 17 -50.5 24t-37.5 13t-41 6q-43 0 -79 -25q17 -100 86.5 -158.5t169.5 -58.5q87 0 152 44t91 122z" />
    <glyph glyph-name="uni0474" unicode="&#x474;" horiz-adv-x="1708" 
d="M578 0l-560 1434h306l450 -1217l387 1022q48 126 123.5 181t185.5 55q109 0 183.5 -55t103.5 -165l-198 -108q-15 63 -70 63q-53 0 -78 -71l-440 -1139h-393z" />
    <glyph glyph-name="uni0475" unicode="&#x475;" horiz-adv-x="1218" 
d="M414 0l-379 971h276l262 -725l211 563q40 108 105 156.5t160 48.5q165 0 229 -150l-156 -133q-14 39 -51 39q-40 0 -61 -53l-279 -717h-317z" />
    <glyph glyph-name="uni0490" unicode="&#x490;" horiz-adv-x="1275" 
d="M958 1782h267v-604h-809v-1178h-277v1434h819v348z" />
    <glyph glyph-name="uni0491" unicode="&#x491;" horiz-adv-x="864" 
d="M586 1198h245v-463h-444v-735h-262v971h461v227z" />
    <glyph glyph-name="uni0492" unicode="&#x492;" horiz-adv-x="1384" 
d="M1290 1178h-809v-334h486v-211h-486v-633h-276v633h-176v211h176v590h1085v-256z" />
    <glyph glyph-name="uni0493" unicode="&#x493;" horiz-adv-x="892" 
d="M862 735h-440v-166h233v-186h-233v-383h-262v383h-137v186h137v402h702v-236z" />
    <glyph glyph-name="uni0496" unicode="&#x496;" horiz-adv-x="2217" 
d="M1479 750l716 -750h-383l-565 602v-602h-276v602l-563 -602h-385l716 750l-678 684h361l549 -557v557h276v-557l551 557h361zM1956 -225v477h252v-477h-252z" />
    <glyph glyph-name="uni0497" unicode="&#x497;" horiz-adv-x="1587" 
d="M39 0l440 512l-420 459h318l291 -340v340h252v-340l290 340h318l-420 -459l440 -512h-309l-319 387v-387h-252v387l-320 -387h-309zM1368 -225v436h231v-436h-231z" />
    <glyph glyph-name="uni0498" unicode="&#x498;" horiz-adv-x="1224" 
d="M74 438l252 94q8 -131 88 -216t217 -85q116 0 182 46.5t66 136.5q0 95 -61.5 143.5t-170.5 48.5h-82v236h94q98 0 150.5 46t52.5 132q0 88 -64.5 138t-176.5 50q-107 0 -176.5 -59t-92.5 -174l-229 100q37 172 167.5 275.5t338.5 103.5q218 0 353.5 -113t135.5 -301
q0 -118 -59 -199.5t-156 -111.5q106 -33 171 -116.5t65 -213.5q0 -203 -144 -311q-141 -108 -368 -108q-229 0 -374.5 125t-178.5 333zM575 -98q40 37 93 37q73 0 118 -42.5t45 -115.5q0 -74 -49.5 -120t-128.5 -46q-77 0 -125.5 33.5t-60.5 99.5l123 31q2 -23 18.5 -38
t42.5 -15t43 15t17 40t-15.5 40t-44.5 15q-18 0 -34.5 -9t-24.5 -22l-121 23q28 109 41 205h123q-24 -74 -60 -131z" />
    <glyph glyph-name="uni0499" unicode="&#x499;" horiz-adv-x="972" 
d="M57 299l209 92q14 -88 71 -141t152 -53q162 0 162 106q0 41 -33.5 65.5t-89.5 24.5h-90v199h72q57 0 92 26t35 70q0 47 -39 75t-102 28q-69 0 -117 -43t-68 -121l-209 98q42 127 140.5 196.5t249.5 69.5q174 0 280.5 -73.5t106.5 -200.5q0 -81 -41.5 -139.5t-114.5 -83.5
q79 -18 127.5 -75t48.5 -147q0 -136 -112.5 -214t-305.5 -78q-174 0 -286.5 88t-137.5 231zM449 -98q40 37 92 37q73 0 118.5 -42.5t45.5 -115.5q0 -74 -50 -120t-129 -46q-77 0 -125.5 33.5t-60.5 99.5l123 31q2 -23 18.5 -38t42.5 -15t43 15t17 40t-15.5 40t-44.5 15
q-18 0 -34.5 -9t-24.5 -22l-121 23q28 109 41 205h123q-25 -77 -59 -131z" />
    <glyph glyph-name="uni049A" unicode="&#x49a;" horiz-adv-x="1386" 
d="M139 0v1434h277v-557l551 557h360l-680 -684l717 -750h-383l-565 602v-602h-277zM1124 -225v477h252v-477h-252z" />
    <glyph glyph-name="uni049B" unicode="&#x49b;" horiz-adv-x="1060" 
d="M125 0v971h256v-344l297 344h323l-419 -459l440 -512h-315l-326 391v-391h-256zM842 -225v436h231v-436h-231z" />
    <glyph glyph-name="uni04A0" unicode="&#x4a0;" horiz-adv-x="1742" 
d="M1004 750l716 -750h-383l-565 602v-602h-276v1198h-445v236h721v-557l551 557h360z" />
    <glyph glyph-name="uni04A1" unicode="&#x4a1;" horiz-adv-x="1206" 
d="M727 512l440 -512h-315l-326 391v-391h-256v774h-260v197h516v-344l297 344h324z" />
    <glyph glyph-name="uni04A2" unicode="&#x4a2;" horiz-adv-x="1538" 
d="M1122 580h-706v-580h-277v1434h277v-605h706v605h277v-1434h-277v580zM1382 -225v477h252v-477h-252z" />
    <glyph glyph-name="uni04A3" unicode="&#x4a3;" horiz-adv-x="1304" 
d="M381 971v-357h403v357h256v-971h-256v379h-403v-379h-256v971h256zM1036 -225v436h232v-436h-232z" />
    <glyph glyph-name="uni04AA" unicode="&#x4aa;" horiz-adv-x="1617" 
d="M365 717q0 -221 130 -353.5t328 -132.5q196 0 319.5 114.5t160.5 307.5l251 -100q-59 -262 -249 -418q-189 -155 -484 -155q-165 0 -304 56t-234 154t-148 234t-53 293q-2 152 55 289.5t155.5 236.5t237 156.5t291.5 54.5q137 0 252 -37.5t196.5 -103.5t136 -151.5
t79.5 -186.5l-254 -113q-31 158 -140 250t-272 92q-195 0 -324.5 -134.5t-129.5 -352.5zM766 -98q40 37 92 37q73 0 118.5 -42.5t45.5 -115.5q0 -74 -49.5 -120t-128.5 -46q-77 0 -126 33.5t-61 99.5l123 31q2 -23 19 -38t43 -15t42.5 15t16.5 40t-15 40t-44 15
q-18 0 -35 -9t-25 -22l-120 23q25 100 40 205h123q-25 -77 -59 -131z" />
    <glyph glyph-name="uni04AB" unicode="&#x4ab;" horiz-adv-x="1146" 
d="M592 211q114 0 180 65.5t80 174.5l242 -84q-44 -189 -173.5 -288t-322.5 -99q-238 0 -383 141t-145 371q0 143 69 258t183 178t249 63q186 0 312.5 -93t158.5 -257l-231 -78q-13 92 -76.5 145.5t-156.5 53.5q-63 0 -119.5 -30.5t-94.5 -93.5t-38 -146q0 -126 79 -203.5
t187 -77.5zM532 -98q40 37 93 37q73 0 118 -42.5t45 -115.5q0 -74 -49.5 -120t-128.5 -46q-77 0 -125.5 33.5t-60.5 99.5l123 31q2 -23 18.5 -38t42.5 -15t43 15t17 40t-15.5 40t-44.5 15q-18 0 -34.5 -9t-24.5 -22l-121 23q28 109 41 205h123q-24 -74 -60 -131z" />
    <glyph glyph-name="uni04AE" unicode="&#x4ae;" horiz-adv-x="1417" 
d="M350 1434l359 -607l378 607h308l-547 -865v-569h-277v569l-548 865h327z" />
    <glyph glyph-name="uni04AF" unicode="&#x4af;" horiz-adv-x="1144" 
d="M442 -406v406l-407 971h276l262 -682l261 682h276l-405 -971v-406h-263z" />
    <glyph glyph-name="uni04B0" unicode="&#x4b0;" horiz-adv-x="1417" 
d="M1395 1434l-422 -668h205v-197h-330v-569h-277v569h-331v197h206l-423 668h327l359 -607l378 607h308z" />
    <glyph glyph-name="uni04B1" unicode="&#x4b1;" horiz-adv-x="1144" 
d="M1110 971l-362 -869h192v-204h-235v-304h-263v304h-235v204h192l-364 869h276l262 -682l261 682h276z" />
    <glyph glyph-name="uni04B2" unicode="&#x4b2;" horiz-adv-x="1464" 
d="M31 0l542 778l-460 656h327l293 -445l291 445h328l-461 -656l543 -778h-328l-373 559l-375 -559h-327zM1249 -225v477h252v-477h-252z" />
    <glyph glyph-name="uni04B3" unicode="&#x4b3;" horiz-adv-x="1034" 
d="M975 971l-316 -457l353 -514h-297l-199 309l-197 -309h-296l352 514l-316 457h297l160 -254l162 254h297zM825 -225v436h232v-436h-232z" />
    <glyph glyph-name="uni04B6" unicode="&#x4b6;" horiz-adv-x="1449" 
d="M1034 0v461q-155 -137 -383 -137q-244 0 -385 149.5t-141 386.5v574h276v-535q0 -152 79.5 -235.5t221.5 -83.5q94 0 173.5 39.5t158.5 125.5v689h277v-1434h-277zM1311 -225v477h252v-477h-252z" />
    <glyph glyph-name="uni04B7" unicode="&#x4b7;" horiz-adv-x="1308" 
d="M786 545v426h256v-971h-256v346q-113 -119 -307 -119q-165 0 -259.5 98t-94.5 265v381h256v-309q0 -104 49.5 -160t147.5 -56q122 0 208 99zM1042 -225v436h232v-436h-232z" />
    <glyph glyph-name="uni04BA" unicode="&#x4ba;" horiz-adv-x="1449" 
d="M139 0v1434h277v-459q159 135 385 135q244 0 384 -150t140 -387v-573h-276v535q0 152 -79 235.5t-220 83.5q-94 0 -173 -39t-161 -125v-690h-277z" />
    <glyph glyph-name="uni04BB" unicode="&#x4bb;" horiz-adv-x="1189" 
d="M387 0h-262v1434h262v-637q44 93 129.5 143.5t192.5 50.5q164 0 260 -100.5t96 -267.5v-623h-260v561q0 100 -52.5 156.5t-146.5 56.5q-95 0 -157 -74t-62 -196v-504z" />
    <glyph glyph-name="uni04C0" unicode="&#x4c0;" horiz-adv-x="555" 
d="M139 0v1434h277v-1434h-277z" />
    <glyph glyph-name="uni04C1" unicode="&#x4c1;" horiz-adv-x="2217" 
d="M1479 750l716 -750h-383l-565 602v-602h-276v602l-563 -602h-385l716 750l-678 684h361l549 -557v557h276v-557l551 557h361zM1376 1827q0 -110 -75 -173t-191 -63t-190 63t-74 173q0 22 2 28h176l-2 -18q0 -35 25 -58.5t63 -23.5q40 0 64 23t24 59l-2 18h178q2 -6 2 -28
z" />
    <glyph glyph-name="uni04C2" unicode="&#x4c2;" horiz-adv-x="1587" 
d="M39 0l440 512l-420 459h318l291 -340v340h252v-340l290 340h318l-420 -459l440 -512h-309l-319 387v-387h-252v387l-320 -387h-309zM1061 1364q0 -110 -75 -173t-191 -63t-190.5 63t-74.5 173q0 23 2 29h177l-2 -19q0 -35 25 -58.5t63 -23.5q40 0 64 23t24 59l-2 19h178
q2 -6 2 -29z" />
    <glyph glyph-name="uni04CF" unicode="&#x4cf;" horiz-adv-x="512" 
d="M125 0v1434h262v-1434h-262z" />
    <glyph glyph-name="uni04D0" unicode="&#x4d0;" horiz-adv-x="1589" 
d="M23 0l577 1434h391l576 -1434h-305l-125 324h-684l-123 -324h-307zM549 573h493l-247 641zM1061 1827q0 -110 -75 -173t-191 -63t-190.5 63t-74.5 173q0 22 2 28h177l-2 -18q0 -35 25 -58.5t63 -23.5q40 0 64 23t24 59l-2 18h178q2 -6 2 -28z" />
    <glyph glyph-name="uni04D1" unicode="&#x4d1;" horiz-adv-x="1089" 
d="M84 281q0 152 101.5 231.5t277.5 79.5q87 0 166 -21l86 -20v61q0 81 -54 127.5t-145 46.5q-86 0 -139.5 -42.5t-71.5 -118.5l-227 61q39 144 152.5 224.5t287.5 80.5q220 0 333.5 -100.5t113.5 -292.5v-598h-240v150q-95 -170 -322 -170q-131 0 -225 83t-94 218zM715 358
v9l-60 18q-98 29 -151 29q-73 0 -113.5 -30.5t-40.5 -86.5q0 -55 40.5 -86t117.5 -31q93 0 150 47.5t57 130.5zM786 1364q0 -110 -75 -173t-191 -63t-190 63t-74 173q0 23 2 29h176l-2 -19q0 -35 25 -58.5t63 -23.5q40 0 64 23t24 59l-2 19h178q2 -6 2 -29z" />
    <glyph glyph-name="uni04D2" unicode="&#x4d2;" horiz-adv-x="1589" 
d="M23 0l577 1434h391l576 -1434h-305l-125 324h-684l-123 -324h-307zM549 573h493l-247 641zM469 1608v264h260v-264h-260zM862 1608v264h260v-264h-260z" />
    <glyph glyph-name="uni04D3" unicode="&#x4d3;" horiz-adv-x="1089" 
d="M84 281q0 152 101.5 231.5t277.5 79.5q87 0 166 -21l86 -20v61q0 81 -54 127.5t-145 46.5q-86 0 -139.5 -42.5t-71.5 -118.5l-227 61q39 144 152.5 224.5t287.5 80.5q220 0 333.5 -100.5t113.5 -292.5v-598h-240v150q-95 -170 -322 -170q-131 0 -225 83t-94 218zM715 358
v9l-60 18q-98 29 -151 29q-73 0 -113.5 -30.5t-40.5 -86.5q0 -55 40.5 -86t117.5 -31q93 0 150 47.5t57 130.5zM195 1145v264h260v-264h-260zM588 1145v264h260v-264h-260z" />
    <glyph glyph-name="uni04D4" unicode="&#x4d4;" horiz-adv-x="2025" 
d="M1214 256h721v-256h-997v324h-440l-168 -324h-307l747 1434h1145v-260h-701v-308h639v-256h-639v-354zM938 573v601l-311 -601h311z" />
    <glyph glyph-name="uni04D5" unicode="&#x4d5;" horiz-adv-x="1746" 
d="M84 281q0 150 100 228.5t277 78.5h264v20q0 82 -57.5 130t-155.5 48q-89 0 -145 -42t-70 -115l-217 59q36 148 148.5 225.5t285.5 77.5q252 0 365 -149q57 72 142 110.5t185 38.5q202 0 326.5 -119t124.5 -317q0 -63 -12 -119h-660q1 -107 74.5 -170t181.5 -63
q176 0 225 168l224 -88q-52 -143 -168.5 -223t-284.5 -80q-137 0 -238.5 58.5t-146.5 158.5q-133 -217 -422 -217q-148 0 -247 85.5t-99 215.5zM985 610h416l2 8q0 73 -54.5 117.5t-142.5 44.5q-81 0 -142 -46t-79 -124zM725 375v49h-213q-76 0 -121 -32t-45 -91
q0 -56 39.5 -86.5t112.5 -30.5q104 0 165.5 54t61.5 137z" />
    <glyph glyph-name="uni04D6" unicode="&#x4d6;" horiz-adv-x="1327" 
d="M139 1434h1078v-256h-801v-312h739v-256h-739v-354h821v-256h-1098v1434zM915 1827q0 -110 -75 -173t-191 -63t-190 63t-74 173q0 22 2 28h176l-2 -18q0 -35 25 -58.5t63 -23.5q40 0 64 23t24 59l-2 18h178q2 -6 2 -28z" />
    <glyph glyph-name="uni04D7" unicode="&#x4d7;" horiz-adv-x="1093" 
d="M813 371l223 -88q-52 -143 -168 -223t-284 -80q-227 0 -370.5 141.5t-143.5 370.5q0 138 60 251.5t171.5 180.5t251.5 67q202 0 326.5 -119t124.5 -317q0 -59 -13 -119h-659q1 -107 74.5 -169t181.5 -62q179 0 225 166zM332 610h416l2 8q0 73 -54.5 117.5t-142.5 44.5
q-81 0 -142 -46t-79 -124zM819 1364q0 -110 -75 -173t-191 -63t-190 63t-74 173q0 23 2 29h176l-2 -19q0 -35 25 -58.5t63 -23.5q40 0 64 23t24 59l-2 19h178q2 -6 2 -29z" />
    <glyph glyph-name="uni04D8" unicode="&#x4d8;" horiz-adv-x="1505" 
d="M1423 717q2 -151 -50 -288t-144 -237t-225 -157.5t-285 -54.5q-291 0 -472 175t-181 461q0 88 18 164h1061q-19 194 -141.5 304t-315.5 110q-129 0 -222 -69.5t-138 -184.5l-262 113q67 177 233 288q165 113 393 113q214 0 380 -91t258.5 -259t92.5 -387zM1126 545h-768
l-2 -15q6 -122 108 -205t257 -83q154 0 259 77.5t146 225.5z" />
    <glyph glyph-name="uni04D9" unicode="&#x4d9;" horiz-adv-x="1093" 
d="M281 600l-224 88q52 143 168.5 223t284.5 80q227 0 370.5 -141.5t143.5 -370.5q0 -138 -60 -251.5t-171.5 -180.5t-251.5 -67q-202 0 -326.5 119t-124.5 317q0 64 12 119h660q-1 107 -74.5 169t-181.5 62q-179 0 -225 -166zM762 360h-416l-2 -8q0 -73 54.5 -117.5
t142.5 -44.5q81 0 142 46t79 124z" />
    <glyph glyph-name="uni04DA" unicode="&#x4da;" horiz-adv-x="1505" 
d="M1423 717q2 -151 -50 -288t-144 -237t-225 -157.5t-285 -54.5q-291 0 -472 175t-181 461q0 88 18 164h1061q-19 194 -141.5 304t-315.5 110q-129 0 -222 -69.5t-138 -184.5l-262 113q67 177 233 288q165 113 393 113q214 0 380 -91t258.5 -259t92.5 -387zM1126 545h-768
l-2 -15q6 -122 108 -205t257 -83q154 0 259 77.5t146 225.5zM367 1608v264h260v-264h-260zM760 1608v264h260v-264h-260z" />
    <glyph glyph-name="uni04DB" unicode="&#x4db;" horiz-adv-x="1093" 
d="M281 600l-224 88q52 143 168.5 223t284.5 80q227 0 370.5 -141.5t143.5 -370.5q0 -138 -60 -251.5t-171.5 -180.5t-251.5 -67q-202 0 -326.5 119t-124.5 317q0 64 12 119h660q-1 107 -74.5 169t-181.5 62q-179 0 -225 -166zM762 360h-416l-2 -8q0 -73 54.5 -117.5
t142.5 -44.5q81 0 142 46t79 124zM217 1145v264h260v-264h-260zM610 1145v264h260v-264h-260z" />
    <glyph glyph-name="uni04DC" unicode="&#x4dc;" horiz-adv-x="2217" 
d="M1479 750l716 -750h-383l-565 602v-602h-276v602l-563 -602h-385l716 750l-678 684h361l549 -557v557h276v-557l551 557h361zM784 1608v264h260v-264h-260zM1178 1608v264h260v-264h-260z" />
    <glyph glyph-name="uni04DD" unicode="&#x4dd;" horiz-adv-x="1587" 
d="M39 0l440 512l-420 459h318l291 -340v340h252v-340l290 340h318l-420 -459l440 -512h-309l-319 387v-387h-252v387l-320 -387h-309zM469 1145v264h260v-264h-260zM862 1145v264h260v-264h-260z" />
    <glyph glyph-name="uni04DE" unicode="&#x4de;" horiz-adv-x="1224" 
d="M74 438l252 94q8 -131 88 -216t217 -85q116 0 182 46.5t66 136.5q0 95 -61.5 143.5t-170.5 48.5h-82v236h94q98 0 150.5 46t52.5 132q0 88 -64.5 138t-176.5 50q-107 0 -176.5 -59t-92.5 -174l-229 100q37 172 167.5 275.5t338.5 103.5q218 0 353.5 -113t135.5 -301
q0 -118 -59 -199.5t-156 -111.5q106 -33 171 -116.5t65 -213.5q0 -203 -144 -311q-141 -108 -368 -108q-229 0 -374.5 125t-178.5 333zM307 1608v264h260v-264h-260zM700 1608v264h261v-264h-261z" />
    <glyph glyph-name="uni04DF" unicode="&#x4df;" horiz-adv-x="972" 
d="M57 299l209 92q14 -88 71 -141t152 -53q162 0 162 106q0 41 -33.5 65.5t-89.5 24.5h-90v199h72q57 0 92 26t35 70q0 47 -39 75t-102 28q-69 0 -117 -43t-68 -121l-209 98q42 127 140.5 196.5t249.5 69.5q174 0 280.5 -73.5t106.5 -200.5q0 -81 -41.5 -139.5t-114.5 -83.5
q79 -18 127.5 -75t48.5 -147q0 -136 -112.5 -214t-305.5 -78q-174 0 -286.5 88t-137.5 231zM172 1145v264h260v-264h-260zM565 1145v264h260v-264h-260z" />
    <glyph glyph-name="uni04E2" unicode="&#x4e2;" horiz-adv-x="1628" 
d="M1212 1243l-596 -1243h-477v1434h277v-1244l596 1244h477v-1434h-277v1243zM526 1815h545v-185h-545v185z" />
    <glyph glyph-name="uni04E3" unicode="&#x4e3;" horiz-adv-x="1257" 
d="M125 0v971h256v-703l383 703h369v-971h-256v702l-381 -702h-371zM356 1352h545v-185h-545v185z" />
    <glyph glyph-name="uni04E4" unicode="&#x4e4;" horiz-adv-x="1628" 
d="M1212 1243l-596 -1243h-477v1434h277v-1244l596 1244h477v-1434h-277v1243zM473 1608v264h260v-264h-260zM866 1608v264h260v-264h-260z" />
    <glyph glyph-name="uni04E5" unicode="&#x4e5;" horiz-adv-x="1257" 
d="M125 0v971h256v-703l383 703h369v-971h-256v702l-381 -702h-371zM303 1145v264h260v-264h-260zM696 1145v264h260v-264h-260z" />
    <glyph glyph-name="uni04E6" unicode="&#x4e6;" horiz-adv-x="1669" 
d="M836 1454q151 3 291 -56t241.5 -159t161.5 -237.5t57 -284.5q3 -148 -57 -285.5t-161.5 -237.5t-241.5 -158.5t-291 -55.5q-151 -4 -292 55t-243 159.5t-162 238t-57 284.5q-3 147 57 284t162 237.5t243 159.5t292 56zM836 242q129 0 236 58t171 167.5t64 249.5
q0 211 -135 344t-336 133t-336 -133t-135 -344q0 -140 64 -249.5t171 -167.5t236 -58zM506 1608v264h260v-264h-260zM899 1608v264h260v-264h-260z" />
    <glyph glyph-name="uni04E7" unicode="&#x4e7;" horiz-adv-x="1155" 
d="M70 485q0 219 143.5 362.5t364.5 143.5t364 -143.5t143 -362.5q0 -217 -144 -361t-363 -144t-363.5 144t-144.5 361zM829 485q0 121 -70.5 196t-180.5 75t-181 -75.5t-71 -195.5t71 -195t181 -75t180.5 75t70.5 195zM252 1145v264h260v-264h-260zM645 1145v264h260v-264
h-260z" />
    <glyph glyph-name="uni04E8" unicode="&#x4e8;" horiz-adv-x="1669" 
d="M82 717q-3 147 57 284t162 237.5t243 159.5t292 56q151 3 291 -56t241.5 -159t161.5 -237.5t57 -284.5q3 -148 -57 -285.5t-161.5 -237.5t-241.5 -158.5t-291 -55.5q-151 -4 -292 55t-243 159.5t-162 238t-57 284.5zM375 823h919q-35 170 -159 271q-124 100 -299 100
q-172 0 -301 -102q-126 -102 -160 -269zM1294 608h-919q34 -166 160 -268q128 -98 301 -98q172 0 297 98q127 100 161 268z" />
    <glyph glyph-name="uni04E9" unicode="&#x4e9;" horiz-adv-x="1155" 
d="M70 483q0 220 144 364t364 144t363.5 -144t143.5 -364q0 -217 -144 -360t-363 -143q-220 0 -364 143t-144 360zM330 571h497q-23 91 -90 143t-159 52q-91 0 -158 -52.5t-90 -142.5zM827 399h-499q23 -90 90 -141t160 -51q94 0 161.5 51t87.5 141z" />
    <glyph glyph-name="uni04EA" unicode="&#x4ea;" horiz-adv-x="1669" 
d="M82 717q-3 147 57 284t162 237.5t243 159.5t292 56q151 3 291 -56t241.5 -159t161.5 -237.5t57 -284.5q3 -148 -57 -285.5t-161.5 -237.5t-241.5 -158.5t-291 -55.5q-151 -4 -292 55t-243 159.5t-162 238t-57 284.5zM375 823h919q-35 170 -159 271q-124 100 -299 100
q-172 0 -301 -102q-126 -102 -160 -269zM1294 608h-919q34 -166 160 -268q128 -98 301 -98q172 0 297 98q127 100 161 268zM510 1608v264h260v-264h-260zM903 1608v264h260v-264h-260z" />
    <glyph glyph-name="uni04EB" unicode="&#x4eb;" horiz-adv-x="1155" 
d="M70 483q0 220 144 364t364 144t363.5 -144t143.5 -364q0 -217 -144 -360t-363 -143q-220 0 -364 143t-144 360zM330 571h497q-23 91 -90 143t-159 52q-91 0 -158 -52.5t-90 -142.5zM827 399h-499q23 -90 90 -141t160 -51q94 0 161.5 51t87.5 141zM252 1145v264h260v-264
h-260zM645 1145v264h260v-264h-260z" />
    <glyph glyph-name="uni04EC" unicode="&#x4ec;" horiz-adv-x="1617" 
d="M63 553l254 100q33 -192 158 -307t322 -115q172 0 293.5 97t156.5 266h-600v256h598q-38 164 -160 258q-125 96 -284 96q-164 0 -273.5 -92.5t-140.5 -249.5l-252 113q25 98 80 183t137.5 152t199 105.5t253.5 38.5q155 2 292 -54t234 -154.5t152 -236t53 -292.5
q0 -213 -87.5 -379.5t-256.5 -262t-395 -95.5q-295 0 -484 155q-188 157 -250 418zM479 1608v264h260v-264h-260zM872 1608v264h261v-264h-261z" />
    <glyph glyph-name="uni04ED" unicode="&#x4ed;" horiz-adv-x="1146" 
d="M1077 492q0 -230 -145 -371t-383 -141q-193 0 -322.5 99t-173.5 288l242 84q14 -109 80 -174.5t180 -65.5q94 0 161 45.5t91 130.5h-270v209h270q-26 80 -90 123t-148 43q-93 0 -156.5 -53.5t-76.5 -145.5l-232 78q38 166 164 258t312 92q138 0 251 -62t179.5 -177
t66.5 -260zM246 1145v264h260v-264h-260zM639 1145v264h260v-264h-260z" />
    <glyph glyph-name="uni04EE" unicode="&#x4ee;" horiz-adv-x="1484" 
d="M231 0l357 541l-561 893h331l387 -637l398 637h315l-905 -1434h-322zM475 1815h545v-185h-545v185z" />
    <glyph glyph-name="uni04EF" unicode="&#x4ef;" horiz-adv-x="1091" 
d="M803 971h266l-661 -1377h-267l260 543l-389 834h275l250 -553zM270 1352h545v-185h-545v185z" />
    <glyph glyph-name="uni04F0" unicode="&#x4f0;" horiz-adv-x="1484" 
d="M231 0l357 541l-561 893h331l387 -637l398 637h315l-905 -1434h-322zM422 1608v264h260v-264h-260zM815 1608v264h260v-264h-260z" />
    <glyph glyph-name="uni04F1" unicode="&#x4f1;" horiz-adv-x="1091" 
d="M803 971h266l-661 -1377h-267l260 543l-389 834h275l250 -553zM217 1145v264h260v-264h-260zM610 1145v264h260v-264h-260z" />
    <glyph glyph-name="uni04F2" unicode="&#x4f2;" horiz-adv-x="1484" 
d="M231 0l357 541l-561 893h331l387 -637l398 637h315l-905 -1434h-322zM418 1599l174 273h321v-33l-264 -240h-231zM850 1599l174 273h322v-33l-265 -240h-231z" />
    <glyph glyph-name="uni04F3" unicode="&#x4f3;" horiz-adv-x="1091" 
d="M803 971h266l-661 -1377h-267l260 543l-389 834h275l250 -553zM213 1137l174 272h322v-33l-265 -239h-231zM645 1137l174 272h322v-33l-264 -239h-232z" />
    <glyph glyph-name="uni04F4" unicode="&#x4f4;" horiz-adv-x="1449" 
d="M1034 0v461q-155 -137 -383 -137q-244 0 -385 149.5t-141 386.5v574h276v-535q0 -152 79.5 -235.5t221.5 -83.5q94 0 173.5 39.5t158.5 125.5v689h277v-1434h-277zM393 1608v264h260v-264h-260zM786 1608v264h261v-264h-261z" />
    <glyph glyph-name="uni04F5" unicode="&#x4f5;" horiz-adv-x="1167" 
d="M786 545v426h256v-971h-256v346q-113 -119 -307 -119q-165 0 -259.5 98t-94.5 265v381h256v-309q0 -104 49.5 -160t147.5 -56q122 0 208 99zM258 1145v264h260v-264h-260zM651 1145v264h260v-264h-260z" />
    <glyph glyph-name="uni04F8" unicode="&#x4f8;" horiz-adv-x="2004" 
d="M139 0v1434h277v-572h456q218 0 353 -114t135 -316q0 -200 -135.5 -316t-352.5 -116h-733zM416 256h463q92 0 148 49t56 127t-56 126t-148 48h-463v-350zM1589 0v1434h277v-1434h-277zM649 1608v264h260v-264h-260zM1042 1608v264h261v-264h-261z" />
    <glyph glyph-name="uni04F9" unicode="&#x4f9;" horiz-adv-x="1574" 
d="M125 0v971h246v-328h254q166 0 259 -84t93 -231q0 -148 -94.5 -238t-257.5 -90h-500zM371 209h241q59 0 92 30.5t33 82.5t-33 83t-92 31h-241v-227zM1188 971h262v-971h-262v971zM463 1145v264h260v-264h-260zM856 1145v264h260v-264h-260z" />
    <glyph glyph-name="uni0527" unicode="&#x527;" horiz-adv-x="1333" 
d="M387 0h-262v1434h262v-637q44 93 129.5 143.5t192.5 50.5q164 0 260 -100.5t96 -267.5v-623h-260v561q0 100 -52.5 156.5t-146.5 56.5q-95 0 -157 -74t-62 -196v-504zM1065 -225v436h231v-436h-231z" />
    <glyph glyph-name="uni0E3F" unicode="&#xe3f;" horiz-adv-x="1443" 
d="M1354 395q0 -180 -134.5 -287.5t-353.5 -107.5h-57v-201h-219v201h-451v1434h451v200h219v-200h33q207 0 334 -103t127 -270q0 -112 -59.5 -194t-172.5 -130q135 -36 209 -123t74 -219zM412 1184v-324h178v324h-178zM836 1184h-27v-324h27q97 0 148.5 42.5t51.5 121.5
q0 75 -53 117.5t-147 42.5zM412 252h178v358h-178v-358zM1081 436q0 79 -54.5 126.5t-149.5 47.5h-68v-358h68q96 0 150 49.5t54 134.5z" />
    <glyph glyph-name="Wgrave" unicode="&#x1e80;" horiz-adv-x="2093" 
d="M326 0l-303 1434h286l246 -1250l256 1250h471l256 -1250l246 1250h287l-302 -1434h-460l-262 1249l-261 -1249h-460zM932 1599l-264 240v33h321l174 -273h-231z" />
    <glyph glyph-name="wgrave" unicode="&#x1e81;" horiz-adv-x="1587" 
d="M293 971l178 -725l170 725h307l168 -725l180 725h260l-266 -971h-338l-157 631l-160 -631h-338l-266 971h262zM680 1137l-264 239v33h321l174 -272h-231z" />
    <glyph glyph-name="Wacute" unicode="&#x1e82;" horiz-adv-x="2093" 
d="M326 0l-303 1434h286l246 -1250l256 1250h471l256 -1250l246 1250h287l-302 -1434h-460l-262 1249l-261 -1249h-460zM932 1599l174 273h321v-33l-264 -240h-231z" />
    <glyph glyph-name="wacute" unicode="&#x1e83;" horiz-adv-x="1587" 
d="M293 971l178 -725l170 725h307l168 -725l180 725h260l-266 -971h-338l-157 631l-160 -631h-338l-266 971h262zM680 1137l174 272h322v-33l-265 -239h-231z" />
    <glyph glyph-name="Wdieresis" unicode="&#x1e84;" horiz-adv-x="2093" 
d="M326 0l-303 1434h286l246 -1250l256 1250h471l256 -1250l246 1250h287l-302 -1434h-460l-262 1249l-261 -1249h-460zM721 1608v264h260v-264h-260zM1114 1608v264h260v-264h-260z" />
    <glyph glyph-name="wdieresis" unicode="&#x1e85;" horiz-adv-x="1587" 
d="M293 971l178 -725l170 725h307l168 -725l180 725h260l-266 -971h-338l-157 631l-160 -631h-338l-266 971h262zM469 1145v264h260v-264h-260zM862 1145v264h260v-264h-260z" />
    <glyph glyph-name="uni1E9E" unicode="&#x1e9e;" horiz-adv-x="1484" 
d="M455 231l231 134q25 -60 79 -93.5t126 -33.5q96 0 161.5 62.5t65.5 164.5t-64 162.5t-161 60.5q-59 0 -110 -27.5t-81 -72.5l-180 160l414 430h-248q-149 0 -218 -69t-69 -218v-891h-276v891q0 282 135 412.5t424 130.5h594v-256l-324 -312q27 8 82 8q147 0 253 -115.5
t106 -295.5q0 -210 -137 -346.5t-367 -136.5q-159 0 -269.5 64.5t-166.5 186.5z" />
    <glyph glyph-name="Ygrave" unicode="&#x1ef2;" horiz-adv-x="1417" 
d="M350 1434l359 -607l378 607h308l-547 -865v-569h-277v569l-548 865h327zM594 1599l-264 240v33h321l174 -273h-231z" />
    <glyph glyph-name="ygrave" unicode="&#x1ef3;" horiz-adv-x="1091" 
d="M803 971h266l-661 -1377h-267l260 543l-389 834h275l250 -553zM428 1137l-264 239v33h321l174 -272h-231z" />
    <glyph glyph-name="endash" unicode="&#x2013;" horiz-adv-x="1359" 
d="M96 635h1168v-236h-1168v236z" />
    <glyph glyph-name="emdash" unicode="&#x2014;" horiz-adv-x="1871" 
d="M96 635h1680v-236h-1680v236z" />
    <glyph glyph-name="quoteleft" unicode="&#x2018;" horiz-adv-x="503" 
d="M375 881h-287v354q0 104 60 151.5t165 47.5h103v-134h-103q-44 0 -68 -17t-24 -48t22 -49.5t60 -18.5h72v-286z" />
    <glyph glyph-name="quoteright" unicode="&#x2019;" horiz-adv-x="503" 
d="M129 1434h287v-353q0 -200 -226 -200h-102v133h105q44 0 67 18t23 49t-21.5 48.5t-58.5 17.5h-74v287z" />
    <glyph glyph-name="quotesinglbase" unicode="&#x201a;" horiz-adv-x="503" 
d="M129 287h287v-355q0 -198 -226 -198h-102v133h105q90 0 90 65q0 31 -21 49.5t-59 18.5h-74v287z" />
    <glyph glyph-name="quotedblleft" unicode="&#x201c;" horiz-adv-x="913" 
d="M88 881v354q0 104 60 151.5t165 47.5h103v-134h-103q-44 0 -68 -17t-24 -48t22 -49.5t60 -18.5h72v-286h-287zM498 881v354q0 104 60 151.5t165 47.5h102v-134h-102q-44 0 -68 -17t-24 -48t22 -49.5t60 -18.5h71v-286h-286z" />
    <glyph glyph-name="quotedblright" unicode="&#x201d;" horiz-adv-x="913" 
d="M88 881v133h105q44 0 67 18t23 49t-21.5 48.5t-58.5 17.5h-74v287h287v-353q0 -200 -226 -200h-102zM498 881v133h104q44 0 67 18t23 49t-21.5 48.5t-58.5 17.5h-73v287h286v-353q0 -200 -225 -200h-102z" />
    <glyph glyph-name="quotedblbase" unicode="&#x201e;" horiz-adv-x="942" 
d="M82 -266v133h104q90 0 90 65q0 31 -20.5 49.5t-58.5 18.5h-74v287h287v-355q0 -198 -226 -198h-102zM492 -266v133h104q90 0 90 65q0 31 -21 49.5t-59 18.5h-74v287h287v-355q0 -198 -225 -198h-102z" />
    <glyph glyph-name="dagger" unicode="&#x2020;" horiz-adv-x="819" 
d="M317 553v573h-225v185h225v237h185v-237h225v-185h-225v-573h-185z" />
    <glyph glyph-name="daggerdbl" unicode="&#x2021;" horiz-adv-x="819" 
d="M317 553v266h-225v185h225v122h-225v185h225v237h185v-237h225v-185h-225v-122h225v-185h-225v-266h-185z" />
    <glyph glyph-name="bullet" unicode="&#x2022;" horiz-adv-x="559" 
d="M121 754h317v-318h-317v318z" />
    <glyph glyph-name="ellipsis" unicode="&#x2026;" horiz-adv-x="1384" 
d="M121 287h287v-287h-287v287zM549 287h287v-287h-287v287zM977 287h287v-287h-287v287z" />
    <glyph glyph-name="perthousand" unicode="&#x2030;" horiz-adv-x="2293" 
d="M70 1092q0 157 102.5 259.5t263.5 102.5q162 0 264.5 -103t102.5 -259q0 -157 -103 -260t-264 -103t-263.5 103t-102.5 260zM606 1092q0 81 -47 130.5t-123 49.5q-75 0 -121.5 -49.5t-46.5 -130.5q0 -80 46.5 -130.5t121.5 -50.5t122.5 50.5t47.5 130.5zM426 158
l-127 129l1028 985l127 -129zM954 342q0 157 103 260t264 103q173 0 268 -136q95 136 269 136q161 0 263.5 -103t102.5 -260t-102.5 -259.5t-263.5 -102.5q-170 0 -269 135q-99 -135 -268 -135q-161 0 -264 103t-103 259zM1491 342q0 81 -47 130.5t-123 49.5
q-75 0 -121.5 -49.5t-46.5 -130.5q0 -80 46.5 -130t121.5 -50t122.5 50.5t47.5 129.5zM2028 342q0 81 -47 130.5t-123 49.5q-75 0 -121.5 -49.5t-46.5 -130.5q0 -80 46.5 -130t121.5 -50t122.5 50.5t47.5 129.5z" />
    <glyph glyph-name="guilsinglleft" unicode="&#x2039;" horiz-adv-x="677" 
d="M545 158l-455 426v61l455 426h33v-258l-224 -182v-33l224 -180v-260h-33z" />
    <glyph glyph-name="guilsinglright" unicode="&#x203a;" horiz-adv-x="677" 
d="M100 158v260l224 180v33l-224 182v258h33l455 -426v-61l-455 -426h-33z" />
    <glyph glyph-name="uni203D" unicode="&#x203d;" horiz-adv-x="1189" 
d="M442 410v788q-120 -62 -120 -211q0 -82 55 -158l-211 -131q-94 134 -94 289q0 168 98.5 289.5t271.5 165.5v94h236v-86q203 -24 317.5 -144t114.5 -280q0 -148 -63.5 -244.5t-182.5 -156.5q-111 -57 -137 -78q-37 -32 -45 -91q-1 -10 -2 -22v-24h-238zM739 815
q117 68 117 201q0 78 -48 129t-130 69v-454q7 16 17.5 25t43.5 30zM412 0v287h286v-287h-286z" />
    <glyph glyph-name="uni2042" unicode="&#x2042;" horiz-adv-x="1884" 
d="M846 1485h192v-152l-63 -178l153 119l146 47l59 -182l-143 -49h-189l152 -101l90 -123l-158 -114l-90 122l-53 183l-53 -183l-90 -122l-158 114l90 123l152 101h-187l-145 49l59 182l146 -47l153 -119l-63 178v152zM547 -51h-193v151l64 179l-154 -119l-145 -47l-60 182
l146 49h186l-151 100l-90 123l157 115l90 -123l54 -182l53 182l90 123l158 -115l-90 -123l-152 -100h188l144 -49l-60 -182l-145 47l-154 119l64 -179v-151zM1530 -51h-193v151l64 179l-154 -119l-145 -47l-60 182l146 49h186l-151 100l-90 123l157 115l90 -123l54 -182
l53 182l90 123l158 -115l-90 -123l-152 -100h188l144 -49l-60 -182l-145 47l-154 119l64 -179v-151z" />
    <glyph glyph-name="fraction" unicode="&#x2044;" horiz-adv-x="305" 
d="M604 1247l119 -119l-1022 -976l-119 118z" />
    <glyph glyph-name="uni2051" unicode="&#x2051;" horiz-adv-x="901" 
d="M547 -51h-193v151l64 179l-154 -119l-145 -47l-60 182l146 49h186l-151 100l-90 123l157 115l90 -123l54 -182l53 182l90 123l158 -115l-90 -123l-152 -100h188l144 -49l-60 -182l-145 47l-154 119l64 -179v-151zM354 1485h193v-152l-64 -178l154 119l145 47l60 -182
l-144 -49h-188l152 -101l90 -123l-158 -114l-90 122l-53 183l-54 -183l-90 -122l-157 114l90 123l151 101h-186l-146 49l60 182l145 -47l154 -119l-64 178v152z" />
    <glyph glyph-name="uni2055" unicode="&#x2055;" horiz-adv-x="1638" 
d="M1556 829v-225h-464l329 -330l-159 -157l-330 329v-466h-225v466l-330 -329l-158 157l330 330h-467v225h467l-330 330l158 160l330 -330v465h225v-465l330 330l159 -160l-329 -330h464z" />
    <glyph glyph-name="uni2070" unicode="&#x2070;" horiz-adv-x="757" 
d="M66 1085q0 164 86 260.5t227 96.5t227 -96.5t86 -260.5t-86 -260t-227 -96t-227 96t-86 260zM526 1085q0 101 -39.5 155t-107.5 54t-108 -54.5t-40 -154.5t40 -154t108 -54t107.5 53.5t39.5 154.5z" />
    <glyph glyph-name="uni2074" unicode="&#x2074;" horiz-adv-x="647" 
d="M377 737v142h-330v159q71 68 103 150t32 192v54h158v-50q0 -119 -27.5 -204.5t-89.5 -153.5h154v193h158v-193h92v-147h-92v-142h-158z" />
    <glyph glyph-name="uni2075" unicode="&#x2075;" horiz-adv-x="651" 
d="M557 1434v-146h-326q0 -84 -18 -145q19 29 58.5 47t84.5 18q105 0 169.5 -59.5t64.5 -163.5q0 -118 -66.5 -187t-191.5 -69q-109 0 -185 57.5t-86 157.5l160 33q6 -45 37.5 -74t75.5 -29q46 0 73 29t27 74q0 43 -26.5 68.5t-73.5 25.5q-31 0 -56.5 -15.5t-37.5 -39.5
l-166 41q30 193 30 377h453z" />
    <glyph glyph-name="uni2076" unicode="&#x2076;" horiz-adv-x="667" 
d="M66 1079q0 164 75 263.5t213 99.5q104 0 167.5 -47t80.5 -135l-137 -39q-8 39 -40 62.5t-79 23.5q-57 0 -93 -50t-36 -139v-8q52 82 160 82q98 0 161.5 -61t63.5 -160q0 -109 -70.5 -175.5t-181.5 -66.5q-130 0 -207 93t-77 257zM455 967q0 44 -29 72t-76 28
q-43 0 -72.5 -28.5t-29.5 -71.5t29.5 -72t72.5 -29q44 0 74.5 29t30.5 72z" />
    <glyph glyph-name="uni2077" unicode="&#x2077;" horiz-adv-x="595" 
d="M53 1434h494v-131q-215 -137 -215 -404q0 -88 14 -162h-164q-10 62 -10 125q0 272 170 428h-289v144z" />
    <glyph glyph-name="uni2078" unicode="&#x2078;" horiz-adv-x="661" 
d="M59 946q0 131 121 184q-80 47 -80 134q0 82 63 130t169 48t167.5 -48t61.5 -130q0 -87 -80 -134q123 -52 123 -184q0 -96 -73.5 -156.5t-198.5 -60.5t-199 60.5t-74 156.5zM420 1257q0 34 -24.5 53t-63.5 19q-40 0 -65 -19t-25 -53t25 -52.5t65 -18.5t64 18.5t24 52.5z
M444 965q0 44 -31 69t-81 25t-81.5 -25t-31.5 -69t31.5 -70.5t81.5 -26.5t81 26.5t31 70.5z" />
    <glyph glyph-name="uni2079" unicode="&#x2079;" horiz-adv-x="688" 
d="M63 930l134 41q27 -105 133 -105q69 0 105 49t36 142l-2 16q-48 -86 -154 -86q-101 0 -163 63t-62 154q0 107 70 172.5t178 65.5q138 0 211.5 -92.5t73.5 -253.5q0 -166 -74 -266.5t-217 -100.5q-109 0 -179 53t-90 148zM444 1206q0 44 -28.5 71.5t-73.5 27.5
q-44 0 -74 -28t-30 -71t29.5 -70.5t74.5 -27.5q44 0 73 27.5t29 70.5z" />
    <glyph glyph-name="uni2080" unicode="&#x2080;" horiz-adv-x="757" 
d="M66 -57q0 164 86 260t227 96t227 -96t86 -260t-86 -260.5t-227 -96.5t-227 96.5t-86 260.5zM526 -57q0 101 -39.5 155t-107.5 54t-108 -54.5t-40 -154.5t40 -154.5t108 -54.5t107.5 54t39.5 155z" />
    <glyph glyph-name="uni2081" unicode="&#x2081;" horiz-adv-x="452" 
d="M217 -406v476q-24 -42 -71 -70t-99 -33l-20 172q173 15 200 152h156v-697h-166z" />
    <glyph glyph-name="uni2082" unicode="&#x2082;" horiz-adv-x="618" 
d="M47 70q0 105 71.5 167t188.5 62q122 0 190 -58t68 -159q-3 -54 -15 -92t-38.5 -68.5t-51.5 -49t-73 -48.5q-34 -20 -46.5 -28.5t-28.5 -22.5t-25 -29h272v-150h-506q0 54 10.5 98t27 74.5t44.5 59t55 47.5t68 43q80 45 110.5 78t30.5 76q0 37 -26 58.5t-70 21.5
q-42 0 -67 -21.5t-25 -56.5q0 -36 27 -66l-132 -88q-59 59 -59 152z" />
    <glyph glyph-name="uni2083" unicode="&#x2083;" horiz-adv-x="638" 
d="M51 -213l150 70q8 -55 37.5 -85t78.5 -30q43 0 70 24.5t27 65.5q0 38 -25.5 65t-62.5 27q-41 0 -68 -24l-90 108l166 135h-250v148h465v-123l-156 -117q78 -5 132.5 -63.5t54.5 -157.5q0 -109 -72.5 -176.5t-188.5 -67.5q-110 0 -179.5 54t-88.5 147z" />
    <glyph glyph-name="uni2084" unicode="&#x2084;" horiz-adv-x="647" 
d="M377 -406v142h-330v160q71 68 103 150t32 192v53h158v-49q0 -119 -27.5 -205t-89.5 -154h154v193h158v-193h92v-147h-92v-142h-158z" />
    <glyph glyph-name="uni2085" unicode="&#x2085;" horiz-adv-x="651" 
d="M557 291v-146h-326q0 -83 -18 -145q19 29 59 47.5t84 18.5q105 0 169.5 -60t64.5 -164q0 -118 -66.5 -187t-191.5 -69q-109 0 -185 57.5t-86 157.5l160 33q6 -47 37 -74.5t76 -27.5q46 0 73 28.5t27 73.5q0 43 -26.5 68.5t-73.5 25.5q-31 0 -56.5 -15.5t-37.5 -39.5
l-166 41q30 194 30 377h453z" />
    <glyph glyph-name="uni2086" unicode="&#x2086;" horiz-adv-x="667" 
d="M66 -63q0 164 75 263t213 99q104 0 167.5 -47t80.5 -135l-137 -39q-8 39 -40 62.5t-79 23.5q-57 0 -93 -50t-36 -139v-8q52 82 160 82q98 0 161.5 -61t63.5 -160q0 -109 -70.5 -175.5t-181.5 -66.5q-130 0 -207 93.5t-77 257.5zM455 -176q0 44 -29 72t-76 28
q-43 0 -72.5 -28.5t-29.5 -71.5t29.5 -71.5t72.5 -28.5q44 0 74.5 28.5t30.5 71.5z" />
    <glyph glyph-name="uni2087" unicode="&#x2087;" horiz-adv-x="595" 
d="M53 291h494v-131q-215 -137 -215 -404q0 -88 14 -162h-164q-10 62 -10 125q0 272 170 428h-289v144z" />
    <glyph glyph-name="uni2088" unicode="&#x2088;" horiz-adv-x="661" 
d="M59 -197q0 132 121 185q-80 47 -80 133q0 82 63 130t169 48t167.5 -48t61.5 -130q0 -86 -80 -133q123 -52 123 -185q0 -96 -73.5 -156.5t-198.5 -60.5t-199 60.5t-74 156.5zM420 115q0 34 -24 52.5t-64 18.5t-65 -18.5t-25 -52.5t25 -53t65 -19q39 0 63.5 19t24.5 53z
M444 -178q0 44 -31 69t-81 25t-81.5 -25t-31.5 -69t31.5 -70t81.5 -26t81 26t31 70z" />
    <glyph glyph-name="uni2089" unicode="&#x2089;" horiz-adv-x="688" 
d="M63 -213l134 41q26 -104 133 -104q69 0 105 49t36 141l-2 16q-48 -86 -154 -86q-101 0 -163 63t-62 154q0 107 70 172.5t178 65.5q138 0 211.5 -92.5t73.5 -253.5q0 -166 -74 -266.5t-217 -100.5q-109 0 -179 53t-90 148zM444 63q0 44 -28.5 71.5t-73.5 27.5
q-44 0 -74 -28t-30 -71t29.5 -70.5t74.5 -27.5q44 0 73 27.5t29 70.5z" />
    <glyph glyph-name="franc" unicode="&#x20a3;" horiz-adv-x="1329" 
d="M1235 1194h-786v-365h725v-239h-725v-148h352v-225h-352v-217h-273v217h-174v225h174v992h1059v-240z" />
    <glyph glyph-name="lira" unicode="&#x20a4;" horiz-adv-x="1312" 
d="M1034 346l230 -119q-94 -247 -373 -247q-89 0 -159 29t-140 87q-88 -116 -248 -116q-130 0 -200 66.5t-70 178.5q0 104 73 172t193 68q68 0 133 -27q-6 35 -18 62h-322v198h184q-40 51 -59 80h-186v201h114q-2 10 -2 45q0 130 68 229.5t180.5 150t249.5 50.5
q219 0 352 -108t158 -299l-262 -80q-11 115 -76 182.5t-172 67.5t-172.5 -58.5t-65.5 -167.5v-12h332v-201h-250l58 -80h254v-198h-164q8 -52 8 -94q0 -61 -10 -113q100 -78 198 -78q124 0 164 131zM451 223q-51 39 -105 39q-32 0 -52 -15t-20 -40t20 -40t52 -15
q70 0 105 71z" />
    <glyph glyph-name="uni20A9" unicode="&#x20a9;" horiz-adv-x="1945" 
d="M1923 852v-236h-199l-100 -616h-438l-107 616h-213l-106 -616h-436l-101 616h-200v236h161l-96 582h264l90 -582h213l103 582h430l102 -582h215l90 582h265l-97 -582h160zM905 852h135l-67 389zM543 211l71 405h-135zM1405 211l63 405h-135z" />
    <glyph glyph-name="dong" unicode="&#x20ab;" horiz-adv-x="1269" 
d="M1251 1311v-209h-151v-1102h-256v139q-96 -159 -307 -159q-207 0 -337 138t-130 363q0 227 129.5 368.5t330.5 141.5q101 0 183.5 -45.5t124.5 -120.5v277h-365v209h365v123h262v-123h151zM848 481q0 127 -74.5 206t-183.5 79q-113 0 -185.5 -77t-72.5 -208
q0 -126 73.5 -202t184.5 -76q109 0 183.5 76t74.5 202zM129 -348v207h971v-207h-971z" />
    <glyph glyph-name="Euro" unicode="&#x20ac;" horiz-adv-x="1738" 
d="M1423 653l252 -100q-59 -261 -250 -418q-189 -155 -483 -155q-254 0 -437 123t-257 339h-221v213h178q-2 14 -2 62q0 47 2 61h-178v215h225q79 208 264 334q189 127 426 127q137 0 252 -37.5t196.5 -103.5t136 -151.5t79.5 -186.5l-254 -113q-31 158 -140 250t-272 92
q-123 0 -225 -55.5t-164 -155.5h426v-215h-496q-2 -14 -2 -61q0 -48 2 -62h496v-213h-428q62 -100 165 -155.5t230 -55.5q196 0 319 114.5t160 307.5z" />
    <glyph glyph-name="uni20AE" unicode="&#x20ae;" horiz-adv-x="1388" 
d="M1337 1184h-508v-189l144 76l100 -194l-244 -127v-93l144 76l98 -192l-242 -127v-414h-270v274l-147 -77l-99 192l246 129v90l-145 -76l-101 195l246 129v328h-508v250h1286v-250z" />
    <glyph glyph-name="uni20B4" unicode="&#x20b4;" horiz-adv-x="1404" 
d="M1237 942h115v-207h-1295v207h910q39 45 39 113q0 75 -69 122.5t-183 47.5q-234 0 -336 -217l-215 112q76 163 216.5 248.5t340.5 85.5q233 0 370.5 -102.5t137.5 -270.5q0 -79 -31 -139zM57 453v206h1295v-206h-879q-4 -32 -4 -39q0 -89 79.5 -144t213.5 -55
q116 0 198 40t152 128l201 -143q-96 -136 -235 -198t-330 -62q-241 0 -393 110.5t-152 294.5q0 38 6 68h-152z" />
    <glyph glyph-name="uni20B8" unicode="&#x20b8;" horiz-adv-x="1388" 
d="M51 1188v246h1286v-246h-1286zM559 0v813h-508v246h1286v-246h-508v-813h-270z" />
    <glyph glyph-name="uni20B9" unicode="&#x20b9;" horiz-adv-x="1157" 
d="M1090 1239h-162q38 -60 51 -137h111v-191h-109q-30 -175 -172 -264q161 -72 170 -315q6 -118 21.5 -184t52.5 -115v-33h-283q-27 59 -39 125q-11 61 -14 203q0 130 -56 187.5t-180 57.5h-391v246h412q147 0 200 92h-612v191h608q-50 86 -196 86h-412v246h1000v-195z" />
    <glyph glyph-name="uni20BA" unicode="&#x20ba;" horiz-adv-x="1423" 
d="M1354 510q0 -232 -146.5 -371t-394.5 -139h-528v360l-140 -73l-98 194l238 125v90l-140 -71l-100 192l240 125v492h272v-351l148 78l100 -192l-248 -129v-92l150 77l98 -192l-248 -131v-250h248q124 0 200 64.5t76 179.5q0 102 -55 172l231 125q97 -126 97 -283z" />
    <glyph glyph-name="uni20BD" unicode="&#x20bd;" horiz-adv-x="1402" 
d="M1319 995q0 -85 -32 -163.5t-90 -140.5t-149 -99t-200 -37h-404v-113h367v-225h-367v-217h-262v217h-180v225h180v992h666q110 0 200.5 -35.5t149 -96t90 -139.5t31.5 -168zM1053 995q0 92 -59.5 145.5t-159.5 53.5h-390v-399h390q100 0 159.5 54t59.5 146z" />
    <glyph glyph-name="uni2113" unicode="&#x2113;" horiz-adv-x="1189" 
d="M793 455l227 -43q-38 -203 -157.5 -317.5t-297.5 -114.5q-151 0 -245.5 86.5t-124.5 244.5q-89 -19 -115 -22l-37 217q105 18 141 26q8 177 63.5 348t139 298t192.5 203.5t218 72.5q154 0 231.5 -80t77.5 -235q0 -238 -188 -441q-188 -200 -496 -317q10 -87 49.5 -134.5
t101.5 -47.5q85 0 142.5 66.5t77.5 189.5zM428 612q207 88 322.5 224t115.5 290q0 53 -23.5 81t-62.5 28q-74 0 -149 -85.5t-130 -229.5t-73 -308z" />
    <glyph glyph-name="uni2116" unicode="&#x2116;" horiz-adv-x="2719" 
d="M1634 948q0 219 143.5 362.5t364.5 143.5t364.5 -143.5t143.5 -362.5q0 -217 -144.5 -361.5t-363.5 -144.5t-363.5 144.5t-144.5 361.5zM416 1243v-1243h-277v1434h477l596 -1244v1244h277v-1434h-477zM2394 948q0 120 -71 195.5t-181 75.5t-181 -75.5t-71 -195.5
t71 -195t181 -75t181 75t71 195zM1696 223h893v-223h-893v223z" />
    <glyph glyph-name="uni2117" unicode="&#x2117;" horiz-adv-x="1097" 
d="M80 995q0 196 136 332.5t333 136.5t333 -136.5t136 -332.5t-136 -332.5t-333 -136.5t-333 136.5t-136 332.5zM905 995q0 149 -102.5 254t-253.5 105t-253.5 -105t-102.5 -254t102.5 -253.5t253.5 -104.5t253.5 104.5t102.5 253.5zM358 739v514h258q81 0 125.5 -41
t44.5 -114q0 -74 -44.5 -117t-125.5 -43h-147v-199h-111zM469 1036h137q32 0 51 16.5t19 45.5q0 59 -70 59h-137v-121z" />
    <glyph glyph-name="uni2120" unicode="&#x2120;" horiz-adv-x="1286" 
d="M66 1067l94 57q30 -110 141 -110q39 0 65.5 16t26.5 41q0 28 -24 44.5t-84 23.5q-179 24 -179 157q0 63 53 104.5t138 41.5q81 0 129 -29.5t68 -95.5l-93 -51q-14 43 -38 62.5t-66 19.5q-33 0 -57.5 -15.5t-24.5 -38.5q0 -48 113 -63q93 -12 137.5 -50.5t44.5 -109.5
q0 -70 -57 -115t-150 -45q-181 0 -237 156zM598 920v514h203l108 -418l109 418h203v-514h-111v442l-121 -442h-162l-118 442v-442h-111z" />
    <glyph glyph-name="trademark" unicode="&#x2122;" horiz-adv-x="1261" 
d="M240 920v413h-174v101h456v-101h-172v-413h-110zM573 920v514h203l109 -418l108 418h203v-514h-111v442l-120 -442h-162l-119 442v-442h-111z" />
    <glyph glyph-name="uni2126" unicode="&#x2126;" horiz-adv-x="1617" 
d="M1536 786q0 -314 -276 -534h235v-252h-610v242q155 76 264 209q106 132 106 309q0 195 -125 314.5t-321 119.5q-194 0 -319 -120t-125 -314q0 -176 106 -309q110 -134 262 -209v-242h-610v252h235q-276 220 -276 534q-1 139 53.5 263t150.5 214t232.5 141.5t290.5 49.5
q157 2 294 -49.5t232 -141.5t149 -214t52 -263z" />
    <glyph glyph-name="estimated" unicode="&#x212e;" horiz-adv-x="1591" 
d="M1503 655h-1126v-217q61 -114 176.5 -178.5t263.5 -64.5q177 0 303 86.5t180 244.5l203 -86q-72 -206 -256 -333t-430 -127q-154 -3 -292.5 55.5t-236 158.5t-154 237t-54.5 286q-3 152 53 289.5t154 237t236.5 156.5t293.5 54q142 2 272 -52t223 -146.5t147 -221.5
t52 -270q0 -65 -8 -109zM377 1001v-161h840v161q-57 106 -168 172t-242 66q-141 0 -251.5 -62t-178.5 -176z" />
    <glyph glyph-name="uni2153" unicode="&#x2153;" horiz-adv-x="1396" 
d="M217 737v475q-24 -42 -71 -69.5t-99 -32.5l-20 172q173 15 200 152h156v-697h-166zM1057 1247l119 -119l-1022 -976l-119 118zM809 193l149 69q8 -55 38 -85t79 -30q43 0 69.5 25t26.5 66q0 38 -25.5 65t-62.5 27q-39 0 -67 -25l-90 109l166 135h-250v147h465v-123
l-156 -116q78 -5 132 -63.5t54 -157.5q0 -109 -72 -176.5t-188 -67.5q-110 0 -179.5 54t-88.5 147z" />
    <glyph glyph-name="uni2154" unicode="&#x2154;" horiz-adv-x="1562" 
d="M47 1212q0 105 72 167.5t188 62.5q122 0 190 -58t68 -159q-3 -54 -15 -92t-38.5 -68.5t-51.5 -49t-73 -48.5q-34 -20 -46.5 -28.5t-28.5 -22.5t-25 -29h272v-150h-506q0 54 10.5 98t27 74.5t44.5 59t55 47.5t68 43q80 45 110.5 77.5t30.5 75.5q0 37 -26 58.5t-70 21.5
q-42 0 -67 -21.5t-25 -56.5t27 -65l-132 -88q-59 59 -59 151zM1223 1247l118 -119l-1022 -976l-118 118zM975 193l149 69q8 -55 38 -85t79 -30q43 0 69.5 25t26.5 66q0 38 -25.5 65t-62.5 27q-39 0 -67 -25l-90 109l165 135h-249v147h465v-123l-156 -116q78 -5 132 -63.5
t54 -157.5q0 -109 -72 -176.5t-188 -67.5q-110 0 -179.5 54t-88.5 147z" />
    <glyph glyph-name="oneeighth" unicode="&#x215b;" horiz-adv-x="1419" 
d="M217 737v475q-24 -42 -71 -69.5t-99 -32.5l-20 172q173 15 200 152h156v-697h-166zM1057 1247l119 -119l-1022 -976l-119 118zM817 209q0 131 121 184q-80 47 -80 133q0 82 63 130.5t169 48.5q105 0 167 -48.5t62 -130.5q0 -86 -80 -133q123 -53 123 -184
q0 -96 -73.5 -156.5t-198.5 -60.5t-199 60.5t-74 156.5zM1178 520q0 34 -24.5 53t-63.5 19q-40 0 -65.5 -19t-25.5 -53t25.5 -52.5t65.5 -18.5t64 18.5t24 52.5zM1202 227q0 44 -31 69.5t-81 25.5t-81.5 -25.5t-31.5 -69.5t31.5 -70t81.5 -26t81 26t31 70z" />
    <glyph glyph-name="threeeighths" unicode="&#x215c;" horiz-adv-x="1605" 
d="M51 930l150 69q8 -55 37.5 -84.5t78.5 -29.5q43 0 70 24.5t27 65.5q0 38 -25.5 65t-62.5 27q-40 0 -68 -25l-90 109l166 135h-250v148h465v-123l-156 -117q78 -5 132.5 -63.5t54.5 -157.5q0 -109 -72.5 -176.5t-188.5 -67.5q-110 0 -179.5 54t-88.5 147zM1243 1247
l119 -119l-1022 -976l-119 118zM1004 209q0 131 120 184q-80 47 -80 133q0 82 63 130.5t169 48.5q105 0 167 -48.5t62 -130.5q0 -86 -80 -133q123 -53 123 -184q0 -96 -73.5 -156.5t-198.5 -60.5t-198.5 60.5t-73.5 156.5zM1364 520q0 34 -24.5 53t-63.5 19q-40 0 -65 -19
t-25 -53t25 -52.5t65 -18.5t64 18.5t24 52.5zM1389 227q0 44 -31.5 69.5t-81.5 25.5t-81.5 -25.5t-31.5 -69.5t31.5 -70t81.5 -26t81.5 26t31.5 70z" />
    <glyph glyph-name="fiveeighths" unicode="&#x215d;" horiz-adv-x="1617" 
d="M557 1434v-146h-326q0 -84 -18 -145q19 29 58.5 47t84.5 18q105 0 169.5 -59.5t64.5 -163.5q0 -118 -66.5 -187t-191.5 -69q-109 0 -185 57.5t-86 157.5l160 33q6 -45 37.5 -74t75.5 -29q46 0 73 29t27 74q0 43 -26.5 68.5t-73.5 25.5q-31 0 -56.5 -15.5t-37.5 -39.5
l-166 41q30 193 30 377h453zM1255 1247l119 -119l-1022 -976l-119 118zM1016 209q0 131 121 184q-80 47 -80 133q0 82 62.5 130.5t168.5 48.5t168 -48.5t62 -130.5q0 -86 -80 -133q123 -53 123 -184q0 -96 -74 -156.5t-199 -60.5t-198.5 60.5t-73.5 156.5zM1376 520
q0 34 -24.5 53t-63.5 19q-40 0 -65 -19t-25 -53t25 -52.5t65 -18.5t64 18.5t24 52.5zM1401 227q0 44 -31.5 69.5t-81.5 25.5t-81 -25.5t-31 -69.5t31 -70t81 -26t81.5 26t31.5 70z" />
    <glyph glyph-name="seveneighths" unicode="&#x215e;" horiz-adv-x="1562" 
d="M53 1434h494v-131q-215 -137 -215 -404q0 -88 14 -162h-164q-10 62 -10 125q0 272 170 428h-289v144zM1200 1247l119 -119l-1022 -976l-119 118zM961 209q0 131 120 184q-80 47 -80 133q0 82 63 130.5t169 48.5q105 0 167 -48.5t62 -130.5q0 -86 -80 -133
q123 -53 123 -184q0 -96 -73.5 -156.5t-198.5 -60.5t-198.5 60.5t-73.5 156.5zM1321 520q0 34 -24.5 53t-63.5 19q-40 0 -65 -19t-25 -53t25 -52.5t65 -18.5t64 18.5t24 52.5zM1346 227q0 44 -31.5 69.5t-81.5 25.5t-81.5 -25.5t-31.5 -69.5t31.5 -70t81.5 -26t81.5 26
t31.5 70z" />
    <glyph glyph-name="uni2160" unicode="&#x2160;" horiz-adv-x="1228" 
d="M1147 256v-256h-1065v256h395v922h-395v256h1065v-256h-393v-922h393z" />
    <glyph glyph-name="uni2161" unicode="&#x2161;" horiz-adv-x="1900" 
d="M82 0v256h395v922h-395v256h1737v-256h-396v-922h396v-256h-1737zM754 256h393v922h-393v-922z" />
    <glyph glyph-name="uni2162" unicode="&#x2162;" horiz-adv-x="2570" 
d="M82 0v256h395v922h-395v256h2406v-256h-393v-922h393v-256h-2406zM754 256h393v922h-393v-922zM1423 256h396v922h-396v-922z" />
    <glyph glyph-name="uni2163" unicode="&#x2163;" horiz-adv-x="2570" 
d="M82 0v256h395v922h-395v256h2406v-256h-290l-318 -922h608v-256h-2406zM754 256h563l-318 922h-245v-922zM1597 252l306 926h-611z" />
    <glyph glyph-name="uni2164" unicode="&#x2164;" horiz-adv-x="1945" 
d="M82 0v256h610l-317 922h-293v256h1782v-256h-291l-318 -922h609v-256h-1782zM973 252l305 926h-610z" />
    <glyph glyph-name="uni2165" unicode="&#x2165;" horiz-adv-x="2570" 
d="M82 0v256h610l-317 922h-293v256h2406v-256h-393v-922h393v-256h-2406zM973 252l305 926h-610zM1255 256h564v922h-246z" />
    <glyph glyph-name="uni2166" unicode="&#x2166;" horiz-adv-x="3241" 
d="M82 0v256h610l-317 922h-293v256h3078v-256h-395v-922h395v-256h-3078zM973 252l305 926h-610zM1255 256h564v922h-246zM2095 256h393v922h-393v-922z" />
    <glyph glyph-name="uni2167" unicode="&#x2167;" horiz-adv-x="3911" 
d="M82 0v256h610l-317 922h-293v256h3748v-256h-393v-922h393v-256h-3748zM973 252l305 926h-610zM1255 256h564v922h-246zM2095 256h393v922h-393v-922zM2765 256h395v922h-395v-922z" />
    <glyph glyph-name="uni2168" unicode="&#x2168;" horiz-adv-x="2570" 
d="M82 0v256h395v922h-395v256h2406v-256h-313l-399 -461l399 -461h313v-256h-2406zM754 256h266l401 461l-401 461h-266v-922zM1597 907l224 271h-447zM1374 256h447l-224 272z" />
    <glyph glyph-name="uni2169" unicode="&#x2169;" horiz-adv-x="1945" 
d="M82 0v256h313l402 461l-402 461h-313v256h1782v-256h-314l-399 -461l399 -461h314v-256h-1782zM973 907l223 271h-446zM750 256h446l-223 272z" />
    <glyph glyph-name="uni216A" unicode="&#x216a;" horiz-adv-x="2570" 
d="M82 0v256h313l402 461l-402 461h-313v256h2406v-256h-393v-922h393v-256h-2406zM973 907l223 271h-446zM1550 256h269v922h-269l-399 -461zM750 256h446l-223 272z" />
    <glyph glyph-name="uni216B" unicode="&#x216b;" horiz-adv-x="3241" 
d="M82 0v256h313l402 461l-402 461h-313v256h3078v-256h-395v-922h395v-256h-3078zM973 907l223 271h-446zM1550 256h269v922h-269l-399 -461zM2095 256h393v922h-393v-922zM750 256h446l-223 272z" />
    <glyph glyph-name="uni216C" unicode="&#x216c;" horiz-adv-x="1515" 
d="M82 0v256h246v922h-246v256h747v-256h-225v-922h553v324h277v-580h-1352z" />
    <glyph glyph-name="uni216D" unicode="&#x216d;" horiz-adv-x="1624" 
d="M82 717q-3 153 53.5 291.5t154.5 236.5t233 155t284 54q142 0 258.5 -56.5t171.5 -152.5v189h254v-578h-250q-20 163 -132.5 255.5t-285.5 92.5q-200 0 -330.5 -134t-130.5 -353q0 -221 130 -353.5t331 -132.5q196 0 319.5 114.5t160.5 307.5l251 -100
q-59 -262 -249 -418q-189 -155 -484 -155q-165 0 -304 56t-234 154t-148 234t-53 293z" />
    <glyph glyph-name="uni216E" unicode="&#x216e;" horiz-adv-x="1644" 
d="M82 0v256h246v924h-246v254h737q233 0 402.5 -91.5t255.5 -254.5t86 -381q0 -153 -50.5 -282.5t-144 -224t-233.5 -147.5t-310 -53h-743zM604 256h215q232 0 348 125q119 125 119 326q0 223 -120.5 347t-350.5 124h-211v-922z" />
    <glyph glyph-name="uni216F" unicode="&#x216f;" horiz-adv-x="2375" 
d="M82 0v256h246v922h-246v256h729l377 -1174l377 1174h729v-256h-246v-922h246v-256h-738v256h216v938l-390 -1194h-387l-391 1194v-938h215v-256h-737z" />
    <glyph glyph-name="uni2180" unicode="&#x2180;" horiz-adv-x="2355" 
d="M82 707q0 218 86 381t255 254.5t402 91.5h707q349 0 545 -198t196 -529q0 -153 -50.5 -282.5t-143.5 -224t-233 -147.5t-310 -53h-717q-170 0 -310 53t-233 147.5t-143.5 224t-50.5 282.5zM825 256h215v922h-211q-230 0 -350.5 -124t-120.5 -347q0 -200 117 -326
q119 -125 350 -125zM1317 256h215q223 0 344 123.5t121 327.5q0 223 -120 347t-351 124h-209v-922z" />
    <glyph glyph-name="uni2181" unicode="&#x2181;" horiz-adv-x="1644" 
d="M82 0v256h246v924h-246v254h737q233 0 402.5 -91.5t255.5 -254.5t86 -381q0 -153 -50.5 -282.5t-144 -224t-233.5 -147.5t-310 -53h-743zM604 256h215q232 0 348 125q119 125 119 326q0 223 -120.5 347t-350.5 124h-211v-103h174q173 0 276 -96.5t103 -261.5t-103 -262
t-276 -97h-174v-102zM604 584h148q70 0 110.5 35.5t40.5 97.5q0 65 -40.5 99t-110.5 34h-148v-266z" />
    <glyph glyph-name="uni2182" unicode="&#x2182;" horiz-adv-x="2355" 
d="M82 707q0 218 86 381t255 254.5t402 91.5h707q349 0 545 -198t196 -529q0 -153 -50.5 -282.5t-143.5 -224t-233 -147.5t-310 -53h-717q-170 0 -310 53t-233 147.5t-143.5 224t-50.5 282.5zM825 256h215v102h-174q-173 0 -276 97t-103 262t103 261.5t276 96.5h174v103
h-211q-230 0 -350.5 -124t-120.5 -347q0 -200 117 -326q119 -125 350 -125zM1317 256h215q223 0 344 123.5t121 327.5q0 223 -120 347t-351 124h-209v-103h174q173 0 276 -96.5t103 -261.5t-103 -262t-276 -97h-174v-102zM893 584h147v266h-147q-71 0 -111.5 -34t-40.5 -99
q0 -62 41 -97.5t111 -35.5zM1317 584h147q68 0 109 35.5t41 97.5q0 65 -40.5 99t-109.5 34h-147v-266z" />
    <glyph glyph-name="arrowleft" unicode="&#x2190;" horiz-adv-x="1843" 
d="M82 399v236q219 23 341 154t130 348l266 -62q-13 -156 -101 -276.5t-214 -163.5h1257v-236h-1257q124 -40 213 -161q86 -117 102 -279l-266 -61q-8 217 -130 347.5t-341 153.5z" />
    <glyph glyph-name="arrowup" unicode="&#x2191;" horiz-adv-x="1402" 
d="M584 0v1012q-39 -123 -162 -213q-119 -88 -279 -103l-61 267q217 8 348 130t154 343h235q23 -219 154 -342t348 -131l-61 -267q-156 13 -277 101.5t-164 214.5v-1012h-235z" />
    </font>
</defs>
</svg>
